  0
SECTION
  2
HEADER
  9
$ACADVER
  1
AC1009
  9
$EXTMIN
 10
0.0
 20
0.0
 30
0.0
  9
$EXTMAX
 10
1000.0
 20
1000.0
 30
0.0
  9
$FILLMODE
 70
 0
  9
$SPLFRAME
 70
 1
  0
ENDSEC
  0
SECTION
  2
TABLES
  0
TABLE
  2
LAYER
 70
1
  0
LAYER
  2
0
 70
     0
 62
     7
  6
CONTINUOUS
  0
ENDTAB
  0
ENDSEC
  0
SECTION
  2
ENTITIES
  0
POLYLINE
  8
0
 62
     0
 66
     1
 10
0
 20
0
 30
0.0
 70
     1
 40
0.53175
 41
0.53175
  0
VERTEX
  8
0
 10
1.2468
 20
8.61675
 30
0.0
 40
0.00738542
 41
0.00738542
  0
VERTEX
  8
0
 10
1.24544
 20
8.60639
 30
0.0
 40
0.00738542
 41
0.00738542
  0
VERTEX
  8
0
 10
1.24208
 20
8.59711
 30
0.0
 40
0.00738542
 41
0.00738542
  0
VERTEX
  8
0
 10
1.23763
 20
8.58783
 30
0.0
 40
0.00738542
 41
0.00738542
  0
VERTEX
  8
0
 10
1.23112
 20
8.57969
 30
0.0
 40
0.00738542
 41
0.00738542
  0
VERTEX
  8
0
 10
1.22363
 20
8.5726
 30
0.0
 40
0.00738542
 41
0.00738542
  0
VERTEX
  8
0
 10
1.21517
 20
8.56765
 30
0.0
 40
0.00738542
 41
0.00738542
  0
VERTEX
  8
0
 10
1.20568
 20
8.56375
 30
0.0
 40
0.00738542
 41
0.00738542
  0
VERTEX
  8
0
 10
1.19623
 20
8.56196
 30
0.0
 40
0.00738542
 41
0.00738542
  0
VERTEX
  8
0
 10
1.18582
 20
8.56222
 30
0.0
 40
0.00738542
 41
0.00738542
  0
VERTEX
  8
0
 10
1.17546
 20
8.56358
 30
0.0
 40
0.00738542
 41
0.00738542
  0
VERTEX
  8
0
 10
1.16618
 20
8.567
 30
0.0
 40
0.00738542
 41
0.00738542
  0
VERTEX
  8
0
 10
1.1569
 20
8.5714
 30
0.0
 40
0.00738542
 41
0.00738542
  0
VERTEX
  8
0
 10
1.14985
 20
8.57894
 30
0.0
 40
0.00738542
 41
0.00738542
  0
VERTEX
  8
0
 10
1.14274
 20
8.58643
 30
0.0
 40
0.00738542
 41
0.00738542
  0
VERTEX
  8
0
 10
1.13775
 20
8.59489
 30
0.0
 40
0.00738542
 41
0.00738542
  0
VERTEX
  8
0
 10
1.13493
 20
8.60542
 30
0.0
 40
0.00738542
 41
0.00738542
  0
VERTEX
  8
0
 10
1.13314
 20
8.61486
 30
0.0
 40
0.00738542
 41
0.00738542
  0
VERTEX
  8
0
 10
1.13341
 20
8.62528
 30
0.0
 40
0.00738542
 41
0.00738542
  0
VERTEX
  8
0
 10
1.1358
 20
8.63558
 30
0.0
 40
0.00738542
 41
0.00738542
  0
VERTEX
  8
0
 10
1.13921
 20
8.64486
 30
0.0
 40
0.00738542
 41
0.00738542
  0
VERTEX
  8
0
 10
1.14464
 20
8.65306
 30
0.0
 40
0.00738542
 41
0.00738542
  0
VERTEX
  8
0
 10
1.15213
 20
8.66015
 30
0.0
 40
0.00738542
 41
0.00738542
  0
VERTEX
  8
0
 10
1.15967
 20
8.66721
 30
0.0
 40
0.00738542
 41
0.00738542
  0
VERTEX
  8
0
 10
1.16911
 20
8.67111
 30
0.0
 40
0.00738542
 41
0.00738542
  0
VERTEX
  8
0
 10
1.1786
 20
8.67393
 30
0.0
 40
0.00738542
 41
0.00738542
  0
VERTEX
  8
0
 10
1.18907
 20
8.67572
 30
0.0
 40
0.00738542
 41
0.00738542
  0
VERTEX
  8
0
 10
1.19944
 20
8.67437
 30
0.0
 40
0.00738542
 41
0.00738542
  0
VERTEX
  8
0
 10
1.20877
 20
8.67204
 30
0.0
 40
0.00738542
 41
0.00738542
  0
VERTEX
  8
0
 10
1.21804
 20
8.66758
 30
0.0
 40
0.00738542
 41
0.00738542
  0
VERTEX
  8
0
 10
1.22618
 20
8.66217
 30
0.0
 40
0.00738542
 41
0.00738542
  0
VERTEX
  8
0
 10
1.23329
 20
8.65463
 30
0.0
 40
0.00738542
 41
0.00738542
  0
VERTEX
  8
0
 10
1.23926
 20
8.64615
 30
0.0
 40
0.00738542
 41
0.00738542
  0
VERTEX
  8
0
 10
1.24316
 20
8.63667
 30
0.0
 40
0.00738542
 41
0.00738542
  0
VERTEX
  8
0
 10
1.24598
 20
8.62722
 30
0.0
 40
0.00738542
 41
0.00738542
  0
VERTEX
  8
0
 10
1.2468
 20
8.61675
 30
0.0
 40
0.00738542
 41
0.00738542
  0
SEQEND
 8
0
  0
POLYLINE
  8
0
 62
     0
 66
     1
 10
0
 20
0
 30
0.0
 70
     1
 40
0.53175
 41
0.53175
  0
VERTEX
  8
0
 10
1.70617
 20
7.13618
 30
0.0
 40
0.00738542
 41
0.00738542
  0
VERTEX
  8
0
 10
1.70481
 20
7.12576
 30
0.0
 40
0.00738542
 41
0.00738542
  0
VERTEX
  8
0
 10
1.70139
 20
7.11649
 30
0.0
 40
0.00738542
 41
0.00738542
  0
VERTEX
  8
0
 10
1.697
 20
7.10726
 30
0.0
 40
0.00738542
 41
0.00738542
  0
VERTEX
  8
0
 10
1.69049
 20
7.09907
 30
0.0
 40
0.00738542
 41
0.00738542
  0
VERTEX
  8
0
 10
1.683
 20
7.09201
 30
0.0
 40
0.00738542
 41
0.00738542
  0
VERTEX
  8
0
 10
1.67447
 20
7.08703
 30
0.0
 40
0.00738542
 41
0.00738542
  0
VERTEX
  8
0
 10
1.66499
 20
7.08317
 30
0.0
 40
0.00738542
 41
0.00738542
  0
VERTEX
  8
0
 10
1.6556
 20
7.08132
 30
0.0
 40
0.00738542
 41
0.00738542
  0
VERTEX
  8
0
 10
1.64512
 20
7.08062
 30
0.0
 40
0.00738542
 41
0.00738542
  0
VERTEX
  8
0
 10
1.63476
 20
7.08192
 30
0.0
 40
0.00738542
 41
0.00738542
  0
VERTEX
  8
0
 10
1.62549
 20
7.08637
 30
0.0
 40
0.00738542
 41
0.00738542
  0
VERTEX
  8
0
 10
1.61626
 20
7.09082
 30
0.0
 40
0.00738542
 41
0.00738542
  0
VERTEX
  8
0
 10
1.60813
 20
7.09733
 30
0.0
 40
0.00738542
 41
0.00738542
  0
VERTEX
  8
0
 10
1.60211
 20
7.10585
 30
0.0
 40
0.00738542
 41
0.00738542
  0
VERTEX
  8
0
 10
1.59711
 20
7.11431
 30
0.0
 40
0.00738542
 41
0.00738542
  0
VERTEX
  8
0
 10
1.59429
 20
7.12375
 30
0.0
 40
0.00738542
 41
0.00738542
  0
VERTEX
  8
0
 10
1.5925
 20
7.13422
 30
0.0
 40
0.00738542
 41
0.00738542
  0
VERTEX
  8
0
 10
1.59283
 20
7.14464
 30
0.0
 40
0.00738542
 41
0.00738542
  0
VERTEX
  8
0
 10
1.59517
 20
7.15397
 30
0.0
 40
0.00738542
 41
0.00738542
  0
VERTEX
  8
0
 10
1.59858
 20
7.16325
 30
0.0
 40
0.00738542
 41
0.00738542
  0
VERTEX
  8
0
 10
1.60406
 20
7.17247
 30
0.0
 40
0.00738542
 41
0.00738542
  0
VERTEX
  8
0
 10
1.61046
 20
7.17958
 30
0.0
 40
0.00738542
 41
0.00738542
  0
VERTEX
  8
0
 10
1.61897
 20
7.1856
 30
0.0
 40
0.00738542
 41
0.00738542
  0
VERTEX
  8
0
 10
1.62853
 20
7.19054
 30
0.0
 40
0.00738542
 41
0.00738542
  0
VERTEX
  8
0
 10
1.63797
 20
7.19336
 30
0.0
 40
0.00738542
 41
0.00738542
  0
VERTEX
  8
0
 10
1.64844
 20
7.19412
 30
0.0
 40
0.00738542
 41
0.00738542
  0
VERTEX
  8
0
 10
1.65886
 20
7.19379
 30
0.0
 40
0.00738542
 41
0.00738542
  0
VERTEX
  8
0
 10
1.66813
 20
7.19146
 30
0.0
 40
0.00738542
 41
0.00738542
  0
VERTEX
  8
0
 10
1.6774
 20
7.18701
 30
0.0
 40
0.00738542
 41
0.00738542
  0
VERTEX
  8
0
 10
1.68554
 20
7.1805
 30
0.0
 40
0.00738542
 41
0.00738542
  0
VERTEX
  8
0
 10
1.69265
 20
7.1741
 30
0.0
 40
0.00738542
 41
0.00738542
  0
VERTEX
  8
0
 10
1.69868
 20
7.16558
 30
0.0
 40
0.00738542
 41
0.00738542
  0
VERTEX
  8
0
 10
1.70253
 20
7.15608
 30
0.0
 40
0.00738542
 41
0.00738542
  0
VERTEX
  8
0
 10
1.70535
 20
7.14556
 30
0.0
 40
0.00738542
 41
0.00738542
  0
VERTEX
  8
0
 10
1.70617
 20
7.13618
 30
0.0
 40
0.00738542
 41
0.00738542
  0
SEQEND
 8
0
  0
POLYLINE
  8
0
 62
     0
 66
     1
 10
0
 20
0
 30
0.0
 70
     1
 40
0.53175
 41
0.53175
  0
VERTEX
  8
0
 10
0.702419
 20
7.16525
 30
0.0
 40
0.00738542
 41
0.00738542
  0
VERTEX
  8
0
 10
0.701064
 20
7.15489
 30
0.0
 40
0.00738542
 41
0.00738542
  0
VERTEX
  8
0
 10
0.698676
 20
7.14556
 30
0.0
 40
0.00738542
 41
0.00738542
  0
VERTEX
  8
0
 10
0.693197
 20
7.13633
 30
0.0
 40
0.00738542
 41
0.00738542
  0
VERTEX
  8
0
 10
0.687771
 20
7.12819
 30
0.0
 40
0.00738542
 41
0.00738542
  0
VERTEX
  8
0
 10
0.679253
 20
7.12115
 30
0.0
 40
0.00738542
 41
0.00738542
  0
VERTEX
  8
0
 10
0.670736
 20
7.11615
 30
0.0
 40
0.00738542
 41
0.00738542
  0
VERTEX
  8
0
 10
0.661296
 20
7.11225
 30
0.0
 40
0.00738542
 41
0.00738542
  0
VERTEX
  8
0
 10
0.651856
 20
7.11046
 30
0.0
 40
0.00738542
 41
0.00738542
  0
VERTEX
  8
0
 10
0.641385
 20
7.10975
 30
0.0
 40
0.00738542
 41
0.00738542
  0
VERTEX
  8
0
 10
0.631022
 20
7.11106
 30
0.0
 40
0.00738542
 41
0.00738542
  0
VERTEX
  8
0
 10
0.621744
 20
7.1155
 30
0.0
 40
0.00738542
 41
0.00738542
  0
VERTEX
  8
0
 10
0.612522
 20
7.11996
 30
0.0
 40
0.00738542
 41
0.00738542
  0
VERTEX
  8
0
 10
0.605414
 20
7.12642
 30
0.0
 40
0.00738542
 41
0.00738542
  0
VERTEX
  8
0
 10
0.598361
 20
7.13493
 30
0.0
 40
0.00738542
 41
0.00738542
  0
VERTEX
  8
0
 10
0.593371
 20
7.14339
 30
0.0
 40
0.00738542
 41
0.00738542
  0
VERTEX
  8
0
 10
0.590549
 20
7.15289
 30
0.0
 40
0.00738542
 41
0.00738542
  0
VERTEX
  8
0
 10
0.588758
 20
7.16336
 30
0.0
 40
0.00738542
 41
0.00738542
  0
VERTEX
  8
0
 10
0.589031
 20
7.17378
 30
0.0
 40
0.00738542
 41
0.00738542
  0
VERTEX
  8
0
 10
0.591417
 20
7.18306
 30
0.0
 40
0.00738542
 41
0.00738542
  0
VERTEX
  8
0
 10
0.594781
 20
7.19239
 30
0.0
 40
0.00738542
 41
0.00738542
  0
VERTEX
  8
0
 10
0.600261
 20
7.20161
 30
0.0
 40
0.00738542
 41
0.00738542
  0
VERTEX
  8
0
 10
0.607801
 20
7.20865
 30
0.0
 40
0.00738542
 41
0.00738542
  0
VERTEX
  8
0
 10
0.615235
 20
7.21468
 30
0.0
 40
0.00738542
 41
0.00738542
  0
VERTEX
  8
0
 10
0.624783
 20
7.21961
 30
0.0
 40
0.00738542
 41
0.00738542
  0
VERTEX
  8
0
 10
0.634224
 20
7.2225
 30
0.0
 40
0.00738542
 41
0.00738542
  0
VERTEX
  8
0
 10
0.644694
 20
7.22319
 30
0.0
 40
0.00738542
 41
0.00738542
  0
VERTEX
  8
0
 10
0.655057
 20
7.22293
 30
0.0
 40
0.00738542
 41
0.00738542
  0
VERTEX
  8
0
 10
0.664387
 20
7.22054
 30
0.0
 40
0.00738542
 41
0.00738542
  0
VERTEX
  8
0
 10
0.673665
 20
7.21614
 30
0.0
 40
0.00738542
 41
0.00738542
  0
VERTEX
  8
0
 10
0.689942
 20
7.20313
 30
0.0
 40
0.00738542
 41
0.00738542
  0
VERTEX
  8
0
 10
0.694933
 20
7.19467
 30
0.0
 40
0.00738542
 41
0.00738542
  0
VERTEX
  8
0
 10
0.699869
 20
7.18517
 30
0.0
 40
0.00738542
 41
0.00738542
  0
VERTEX
  8
0
 10
0.70166
 20
7.17469
 30
0.0
 40
0.00738542
 41
0.00738542
  0
VERTEX
  8
0
 10
0.702419
 20
7.16525
 30
0.0
 40
0.00738542
 41
0.00738542
  0
SEQEND
 8
0
  0
POLYLINE
  8
0
 62
     0
 66
     1
 10
0
 20
0
 30
0.0
 70
     1
 40
0.53175
 41
0.53175
  0
VERTEX
  8
0
 10
0.474392
 20
7.81901
 30
0.0
 40
0.00738542
 41
0.00738542
  0
VERTEX
  8
0
 10
0.476508
 20
7.85542
 30
0.0
 40
0.00738542
 41
0.00738542
  0
VERTEX
  8
0
 10
0.480632
 20
7.89074
 30
0.0
 40
0.00738542
 41
0.00738542
  0
VERTEX
  8
0
 10
0.485786
 20
7.92606
 30
0.0
 40
0.00738542
 41
0.00738542
  0
VERTEX
  8
0
 10
0.493056
 20
7.96024
 30
0.0
 40
0.00738542
 41
0.00738542
  0
VERTEX
  8
0
 10
0.502442
 20
7.99539
 30
0.0
 40
0.00738542
 41
0.00738542
  0
VERTEX
  8
0
 10
0.513781
 20
8.02838
 30
0.0
 40
0.00738542
 41
0.00738542
  0
VERTEX
  8
0
 10
0.526258
 20
8.06244
 30
0.0
 40
0.00738542
 41
0.00738542
  0
VERTEX
  8
0
 10
0.540744
 20
8.09429
 30
0.0
 40
0.00738542
 41
0.00738542
  0
VERTEX
  8
0
 10
0.556207
 20
8.12619
 30
0.0
 40
0.00738542
 41
0.00738542
  0
VERTEX
  8
0
 10
0.573785
 20
8.1569
 30
0.0
 40
0.00738542
 41
0.00738542
  0
VERTEX
  8
0
 10
0.593479
 20
8.18761
 30
0.0
 40
0.00738542
 41
0.00738542
  0
VERTEX
  8
0
 10
0.614094
 20
8.21619
 30
0.0
 40
0.00738542
 41
0.00738542
  0
VERTEX
  8
0
 10
0.636774
 20
8.24474
 30
0.0
 40
0.00738542
 41
0.00738542
  0
VERTEX
  8
0
 10
0.660482
 20
8.27111
 30
0.0
 40
0.00738542
 41
0.00738542
  0
VERTEX
  8
0
 10
0.685167
 20
8.2965
 30
0.0
 40
0.00738542
 41
0.00738542
  0
VERTEX
  8
0
 10
0.710883
 20
8.32069
 30
0.0
 40
0.00738542
 41
0.00738542
  0
VERTEX
  8
0
 10
0.738661
 20
8.34283
 30
0.0
 40
0.00738542
 41
0.00738542
  0
VERTEX
  8
0
 10
0.767415
 20
8.36496
 30
0.0
 40
0.00738542
 41
0.00738542
  0
VERTEX
  8
0
 10
0.797146
 20
8.38385
 30
0.0
 40
0.00738542
 41
0.00738542
  0
VERTEX
  8
0
 10
0.826878
 20
8.40278
 30
0.0
 40
0.00738542
 41
0.00738542
  0
VERTEX
  8
0
 10
0.858615
 20
8.4196
 30
0.0
 40
0.00738542
 41
0.00738542
  0
VERTEX
  8
0
 10
0.891331
 20
8.43431
 30
0.0
 40
0.00738542
 41
0.00738542
  0
VERTEX
  8
0
 10
0.924044
 20
8.44792
 30
0.0
 40
0.00738542
 41
0.00738542
  0
VERTEX
  8
0
 10
0.957736
 20
8.45947
 30
0.0
 40
0.00738542
 41
0.00738542
  0
VERTEX
  8
0
 10
0.992404
 20
8.46886
 30
0.0
 40
0.00738542
 41
0.00738542
  0
VERTEX
  8
0
 10
1.02702
 20
8.47721
 30
0.0
 40
0.00738542
 41
0.00738542
  0
VERTEX
  8
0
 10
1.06158
 20
8.4835
 30
0.0
 40
0.00738542
 41
0.00738542
  0
VERTEX
  8
0
 10
1.09717
 20
8.48768
 30
0.0
 40
0.00738542
 41
0.00738542
  0
VERTEX
  8
0
 10
1.13265
 20
8.48981
 30
0.0
 40
0.00738542
 41
0.00738542
  0
VERTEX
  8
0
 10
1.16808
 20
8.49083
 30
0.0
 40
0.00738542
 41
0.00738542
  0
VERTEX
  8
0
 10
1.2035
 20
8.48981
 30
0.0
 40
0.00738542
 41
0.00738542
  0
VERTEX
  8
0
 10
1.23985
 20
8.48671
 30
0.0
 40
0.00738542
 41
0.00738542
  0
VERTEX
  8
0
 10
1.27517
 20
8.48253
 30
0.0
 40
0.00738542
 41
0.00738542
  0
VERTEX
  8
0
 10
1.30941
 20
8.47635
 30
0.0
 40
0.00738542
 41
0.00738542
  0
VERTEX
  8
0
 10
1.34456
 20
8.46799
 30
0.0
 40
0.00738542
 41
0.00738542
  0
VERTEX
  8
0
 10
1.37869
 20
8.45762
 30
0.0
 40
0.00738542
 41
0.00738542
  0
VERTEX
  8
0
 10
1.41168
 20
8.44624
 30
0.0
 40
0.00738542
 41
0.00738542
  0
VERTEX
  8
0
 10
1.44467
 20
8.43278
 30
0.0
 40
0.00738542
 41
0.00738542
  0
VERTEX
  8
0
 10
1.47754
 20
8.41726
 30
0.0
 40
0.00738542
 41
0.00738542
  0
VERTEX
  8
0
 10
1.50831
 20
8.40072
 30
0.0
 40
0.00738542
 41
0.00738542
  0
VERTEX
  8
0
 10
1.53906
 20
8.38211
 30
0.0
 40
0.00738542
 41
0.00738542
  0
VERTEX
  8
0
 10
1.56868
 20
8.36149
 30
0.0
 40
0.00738542
 41
0.00738542
  0
VERTEX
  8
0
 10
1.59722
 20
8.34088
 30
0.0
 40
0.00738542
 41
0.00738542
  0
VERTEX
  8
0
 10
1.62468
 20
8.31711
 30
0.0
 40
0.00738542
 41
0.00738542
  0
VERTEX
  8
0
 10
1.65007
 20
8.29346
 30
0.0
 40
0.00738542
 41
0.00738542
  0
VERTEX
  8
0
 10
1.6754
 20
8.26774
 30
0.0
 40
0.00738542
 41
0.00738542
  0
VERTEX
  8
0
 10
1.69857
 20
8.241
 30
0.0
 40
0.00738542
 41
0.00738542
  0
VERTEX
  8
0
 10
1.72071
 20
8.21326
 30
0.0
 40
0.00738542
 41
0.00738542
  0
VERTEX
  8
0
 10
1.74175
 20
8.18349
 30
0.0
 40
0.00738542
 41
0.00738542
  0
VERTEX
  8
0
 10
1.76064
 20
8.15375
 30
0.0
 40
0.00738542
 41
0.00738542
  0
VERTEX
  8
0
 10
1.77746
 20
8.12201
 30
0.0
 40
0.00738542
 41
0.00738542
  0
VERTEX
  8
0
 10
1.79318
 20
8.09028
 30
0.0
 40
0.00738542
 41
0.00738542
  0
VERTEX
  8
0
 10
1.80789
 20
8.05757
 30
0.0
 40
0.00738542
 41
0.00738542
  0
VERTEX
  8
0
 10
1.82047
 20
8.02485
 30
0.0
 40
0.00738542
 41
0.00738542
  0
VERTEX
  8
0
 10
1.83094
 20
7.99018
 30
0.0
 40
0.00738542
 41
0.00738542
  0
VERTEX
  8
0
 10
1.83936
 20
7.9566
 30
0.0
 40
0.00738542
 41
0.00738542
  0
VERTEX
  8
0
 10
1.84668
 20
7.92096
 30
0.0
 40
0.00738542
 41
0.00738542
  0
VERTEX
  8
0
 10
1.85189
 20
7.88639
 30
0.0
 40
0.00738542
 41
0.00738542
  0
VERTEX
  8
0
 10
1.85607
 20
7.85086
 30
0.0
 40
0.00738542
 41
0.00738542
  0
VERTEX
  8
0
 10
1.85715
 20
7.81537
 30
0.0
 40
0.00738542
 41
0.00738542
  0
VERTEX
  8
0
 10
1.85715
 20
7.77892
 30
0.0
 40
0.00738542
 41
0.00738542
  0
VERTEX
  8
0
 10
1.85508
 20
7.74354
 30
0.0
 40
0.00738542
 41
0.00738542
  0
VERTEX
  8
0
 10
1.85194
 20
7.70822
 30
0.0
 40
0.00738542
 41
0.00738542
  0
VERTEX
  8
0
 10
1.84571
 20
7.67296
 30
0.0
 40
0.00738542
 41
0.00738542
  0
VERTEX
  8
0
 10
1.83849
 20
7.63878
 30
0.0
 40
0.00738542
 41
0.00738542
  0
VERTEX
  8
0
 10
1.8291
 20
7.60363
 30
0.0
 40
0.00738542
 41
0.00738542
  0
VERTEX
  8
0
 10
1.81874
 20
7.56956
 30
0.0
 40
0.00738542
 41
0.00738542
  0
VERTEX
  8
0
 10
1.80638
 20
7.53657
 30
0.0
 40
0.00738542
 41
0.00738542
  0
VERTEX
  8
0
 10
1.79183
 20
7.50467
 30
0.0
 40
0.00738542
 41
0.00738542
  0
VERTEX
  8
0
 10
1.77528
 20
7.47282
 30
0.0
 40
0.00738542
 41
0.00738542
  0
VERTEX
  8
0
 10
1.75771
 20
7.44103
 30
0.0
 40
0.00738542
 41
0.00738542
  0
VERTEX
  8
0
 10
1.73915
 20
7.41135
 30
0.0
 40
0.00738542
 41
0.00738542
  0
VERTEX
  8
0
 10
1.71853
 20
7.38276
 30
0.0
 40
0.00738542
 41
0.00738542
  0
VERTEX
  8
0
 10
1.69581
 20
7.35428
 30
0.0
 40
0.00738542
 41
0.00738542
  0
VERTEX
  8
0
 10
1.6721
 20
7.32785
 30
0.0
 40
0.00738542
 41
0.00738542
  0
VERTEX
  8
0
 10
1.6474
 20
7.30251
 30
0.0
 40
0.00738542
 41
0.00738542
  0
VERTEX
  8
0
 10
1.62067
 20
7.27826
 30
0.0
 40
0.00738542
 41
0.00738542
  0
VERTEX
  8
0
 10
1.59397
 20
7.25612
 30
0.0
 40
0.00738542
 41
0.00738542
  0
VERTEX
  8
0
 10
1.56515
 20
7.23406
 30
0.0
 40
0.00738542
 41
0.00738542
  0
VERTEX
  8
0
 10
1.53543
 20
7.21511
 30
0.0
 40
0.00738542
 41
0.00738542
  0
VERTEX
  8
0
 10
1.50467
 20
7.19618
 30
0.0
 40
0.00738542
 41
0.00738542
  0
VERTEX
  8
0
 10
1.47293
 20
7.17942
 30
0.0
 40
0.00738542
 41
0.00738542
  0
VERTEX
  8
0
 10
1.44125
 20
7.16471
 30
0.0
 40
0.00738542
 41
0.00738542
  0
VERTEX
  8
0
 10
1.4075
 20
7.1511
 30
0.0
 40
0.00738542
 41
0.00738542
  0
VERTEX
  8
0
 10
1.37381
 20
7.13954
 30
0.0
 40
0.00738542
 41
0.00738542
  0
VERTEX
  8
0
 10
1.34022
 20
7.1301
 30
0.0
 40
0.00738542
 41
0.00738542
  0
VERTEX
  8
0
 10
1.30556
 20
7.12175
 30
0.0
 40
0.00738542
 41
0.00738542
  0
VERTEX
  8
0
 10
1.26997
 20
7.11544
 30
0.0
 40
0.00738542
 41
0.00738542
  0
VERTEX
  8
0
 10
1.23546
 20
7.11128
 30
0.0
 40
0.00738542
 41
0.00738542
  0
VERTEX
  8
0
 10
1.19992
 20
7.10813
 30
0.0
 40
0.00738542
 41
0.00738542
  0
VERTEX
  8
0
 10
1.16347
 20
7.10813
 30
0.0
 40
0.00738542
 41
0.00738542
  0
VERTEX
  8
0
 10
1.12804
 20
7.10915
 30
0.0
 40
0.00738542
 41
0.00738542
  0
VERTEX
  8
0
 10
1.09267
 20
7.11122
 30
0.0
 40
0.00738542
 41
0.00738542
  0
VERTEX
  8
0
 10
1.0574
 20
7.11643
 30
0.0
 40
0.00738542
 41
0.00738542
  0
VERTEX
  8
0
 10
1.02214
 20
7.12267
 30
0.0
 40
0.00738542
 41
0.00738542
  0
VERTEX
  8
0
 10
0.98801
 20
7.13097
 30
0.0
 40
0.00738542
 41
0.00738542
  0
VERTEX
  8
0
 10
0.953939
 20
7.14133
 30
0.0
 40
0.00738542
 41
0.00738542
  0
VERTEX
  8
0
 10
0.919868
 20
7.15272
 30
0.0
 40
0.00738542
 41
0.00738542
  0
VERTEX
  8
0
 10
0.886882
 20
7.16618
 30
0.0
 40
0.00738542
 41
0.00738542
  0
VERTEX
  8
0
 10
0.855035
 20
7.18169
 30
0.0
 40
0.00738542
 41
0.00738542
  0
VERTEX
  8
0
 10
0.823188
 20
7.19824
 30
0.0
 40
0.00738542
 41
0.00738542
  0
VERTEX
  8
0
 10
0.792481
 20
7.21685
 30
0.0
 40
0.00738542
 41
0.00738542
  0
VERTEX
  8
0
 10
0.763889
 20
7.23747
 30
0.0
 40
0.00738542
 41
0.00738542
  0
VERTEX
  8
0
 10
0.735351
 20
7.25814
 30
0.0
 40
0.00738542
 41
0.00738542
  0
VERTEX
  8
0
 10
0.7079
 20
7.28185
 30
0.0
 40
0.00738542
 41
0.00738542
  0
VERTEX
  8
0
 10
0.681478
 20
7.3055
 30
0.0
 40
0.00738542
 41
0.00738542
  0
VERTEX
  8
0
 10
0.657226
 20
7.33122
 30
0.0
 40
0.00738542
 41
0.00738542
  0
VERTEX
  8
0
 10
0.634006
 20
7.35796
 30
0.0
 40
0.00738542
 41
0.00738542
  0
VERTEX
  8
0
 10
0.611871
 20
7.38569
 30
0.0
 40
0.00738542
 41
0.00738542
  0
VERTEX
  8
0
 10
0.590875
 20
7.41547
 30
0.0
 40
0.00738542
 41
0.00738542
  0
VERTEX
  8
0
 10
0.57194
 20
7.44521
 30
0.0
 40
0.00738542
 41
0.00738542
  0
VERTEX
  8
0
 10
0.554036
 20
7.47592
 30
0.0
 40
0.00738542
 41
0.00738542
  0
VERTEX
  8
0
 10
0.538357
 20
7.50874
 30
0.0
 40
0.00738542
 41
0.00738542
  0
VERTEX
  8
0
 10
0.524685
 20
7.54139
 30
0.0
 40
0.00738542
 41
0.00738542
  0
VERTEX
  8
0
 10
0.512099
 20
7.57406
 30
0.0
 40
0.00738542
 41
0.00738542
  0
VERTEX
  8
0
 10
0.501628
 20
7.60775
 30
0.0
 40
0.00738542
 41
0.00738542
  0
VERTEX
  8
0
 10
0.492188
 20
7.64236
 30
0.0
 40
0.00738542
 41
0.00738542
  0
VERTEX
  8
0
 10
0.484918
 20
7.678
 30
0.0
 40
0.00738542
 41
0.00738542
  0
VERTEX
  8
0
 10
0.479656
 20
7.71257
 30
0.0
 40
0.00738542
 41
0.00738542
  0
VERTEX
  8
0
 10
0.476508
 20
7.7481
 30
0.0
 40
0.00738542
 41
0.00738542
  0
VERTEX
  8
0
 10
0.474392
 20
7.78358
 30
0.0
 40
0.00738542
 41
0.00738542
  0
VERTEX
  8
0
 10
0.474392
 20
7.81901
 30
0.0
 40
0.00738542
 41
0.00738542
  0
SEQEND
 8
0
  0
POLYLINE
  8
0
 62
     0
 66
     1
 10
0
 20
0
 30
0.0
 70
     1
 40
0.53175
 41
0.53175
  0
VERTEX
  8
0
 10
0.221354
 20
7.82639
 30
0.0
 40
0.00738542
 41
0.00738542
  0
VERTEX
  8
0
 10
0.221192
 20
7.78472
 30
0.0
 40
0.00738542
 41
0.00738542
  0
VERTEX
  8
0
 10
0.22309
 20
7.74294
 30
0.0
 40
0.00738542
 41
0.00738542
  0
VERTEX
  8
0
 10
0.226074
 20
7.70117
 30
0.0
 40
0.00738542
 41
0.00738542
  0
VERTEX
  8
0
 10
0.231119
 20
7.66038
 30
0.0
 40
0.00738542
 41
0.00738542
  0
VERTEX
  8
0
 10
0.238281
 20
7.61849
 30
0.0
 40
0.00738542
 41
0.00738542
  0
VERTEX
  8
0
 10
0.247504
 20
7.57758
 30
0.0
 40
0.00738542
 41
0.00738542
  0
VERTEX
  8
0
 10
0.257813
 20
7.53771
 30
0.0
 40
0.00738542
 41
0.00738542
  0
VERTEX
  8
0
 10
0.270182
 20
7.49772
 30
0.0
 40
0.00738542
 41
0.00738542
  0
VERTEX
  8
0
 10
0.284668
 20
7.45876
 30
0.0
 40
0.00738542
 41
0.00738542
  0
VERTEX
  8
0
 10
0.301269
 20
7.41971
 30
0.0
 40
0.00738542
 41
0.00738542
  0
VERTEX
  8
0
 10
0.318901
 20
7.38167
 30
0.0
 40
0.00738542
 41
0.00738542
  0
VERTEX
  8
0
 10
0.337619
 20
7.34467
 30
0.0
 40
0.00738542
 41
0.00738542
  0
VERTEX
  8
0
 10
0.358507
 20
7.30865
 30
0.0
 40
0.00738542
 41
0.00738542
  0
VERTEX
  8
0
 10
0.381456
 20
7.2736
 30
0.0
 40
0.00738542
 41
0.00738542
  0
VERTEX
  8
0
 10
0.405436
 20
7.23953
 30
0.0
 40
0.00738542
 41
0.00738542
  0
VERTEX
  8
0
 10
0.430556
 20
7.20649
 30
0.0
 40
0.00738542
 41
0.00738542
  0
VERTEX
  8
0
 10
0.457736
 20
7.17447
 30
0.0
 40
0.00738542
 41
0.00738542
  0
VERTEX
  8
0
 10
0.486057
 20
7.14344
 30
0.0
 40
0.00738542
 41
0.00738542
  0
VERTEX
  8
0
 10
0.515408
 20
7.11442
 30
0.0
 40
0.00738542
 41
0.00738542
  0
VERTEX
  8
0
 10
0.546875
 20
7.08539
 30
0.0
 40
0.00738542
 41
0.00738542
  0
VERTEX
  8
0
 10
0.57845
 20
7.05946
 30
0.0
 40
0.00738542
 41
0.00738542
  0
VERTEX
  8
0
 10
0.612088
 20
7.03347
 30
0.0
 40
0.00738542
 41
0.00738542
  0
VERTEX
  8
0
 10
0.64681
 20
7.01058
 30
0.0
 40
0.00738542
 41
0.00738542
  0
VERTEX
  8
0
 10
0.681586
 20
6.98768
 30
0.0
 40
0.00738542
 41
0.00738542
  0
VERTEX
  8
0
 10
0.718533
 20
6.96685
 30
0.0
 40
0.00738542
 41
0.00738542
  0
VERTEX
  8
0
 10
0.755479
 20
6.94803
 30
0.0
 40
0.00738542
 41
0.00738542
  0
VERTEX
  8
0
 10
0.793565
 20
6.93132
 30
0.0
 40
0.00738542
 41
0.00738542
  0
VERTEX
  8
0
 10
0.832682
 20
6.91558
 30
0.0
 40
0.00738542
 41
0.00738542
  0
VERTEX
  8
0
 10
0.871907
 20
6.90192
 30
0.0
 40
0.00738542
 41
0.00738542
  0
VERTEX
  8
0
 10
0.912164
 20
6.88932
 30
0.0
 40
0.00738542
 41
0.00738542
  0
VERTEX
  8
0
 10
0.952528
 20
6.87875
 30
0.0
 40
0.00738542
 41
0.00738542
  0
VERTEX
  8
0
 10
0.992893
 20
6.87028
 30
0.0
 40
0.00738542
 41
0.00738542
  0
VERTEX
  8
0
 10
1.0344
 20
6.86388
 30
0.0
 40
0.00738542
 41
0.00738542
  0
VERTEX
  8
0
 10
1.07596
 20
6.8585
 30
0.0
 40
0.00738542
 41
0.00738542
  0
VERTEX
  8
0
 10
1.11757
 20
6.85622
 30
0.0
 40
0.00738542
 41
0.00738542
  0
VERTEX
  8
0
 10
1.15923
 20
6.85503
 30
0.0
 40
0.00738542
 41
0.00738542
  0
VERTEX
  8
0
 10
1.2009
 20
6.85487
 30
0.0
 40
0.00738542
 41
0.00738542
  0
VERTEX
  8
0
 10
1.24268
 20
6.85781
 30
0.0
 40
0.00738542
 41
0.00738542
  0
VERTEX
  8
0
 10
1.28445
 20
6.86182
 30
0.0
 40
0.00738542
 41
0.00738542
  0
VERTEX
  8
0
 10
1.32633
 20
6.86789
 30
0.0
 40
0.00738542
 41
0.00738542
  0
VERTEX
  8
0
 10
1.36719
 20
6.87608
 30
0.0
 40
0.00738542
 41
0.00738542
  0
VERTEX
  8
0
 10
1.40815
 20
6.88633
 30
0.0
 40
0.00738542
 41
0.00738542
  0
VERTEX
  8
0
 10
1.44808
 20
6.89768
 30
0.0
 40
0.00738542
 41
0.00738542
  0
VERTEX
  8
0
 10
1.48703
 20
6.91118
 30
0.0
 40
0.00738542
 41
0.00738542
  0
VERTEX
  8
0
 10
1.52599
 20
6.92567
 30
0.0
 40
0.00738542
 41
0.00738542
  0
VERTEX
  8
0
 10
1.56506
 20
6.94228
 30
0.0
 40
0.00738542
 41
0.00738542
  0
VERTEX
  8
0
 10
1.60206
 20
6.96099
 30
0.0
 40
0.00738542
 41
0.00738542
  0
VERTEX
  8
0
 10
1.63917
 20
6.98178
 30
0.0
 40
0.00738542
 41
0.00738542
  0
VERTEX
  8
0
 10
1.67518
 20
7.00261
 30
0.0
 40
0.00738542
 41
0.00738542
  0
VERTEX
  8
0
 10
1.70925
 20
7.02664
 30
0.0
 40
0.00738542
 41
0.00738542
  0
VERTEX
  8
0
 10
1.74328
 20
7.05067
 30
0.0
 40
0.00738542
 41
0.00738542
  0
VERTEX
  8
0
 10
1.77533
 20
7.0779
 30
0.0
 40
0.00738542
 41
0.00738542
  0
VERTEX
  8
0
 10
1.8074
 20
7.10508
 30
0.0
 40
0.00738542
 41
0.00738542
  0
VERTEX
  8
0
 10
1.8374
 20
7.13444
 30
0.0
 40
0.00738542
 41
0.00738542
  0
VERTEX
  8
0
 10
1.8654
 20
7.16487
 30
0.0
 40
0.00738542
 41
0.00738542
  0
VERTEX
  8
0
 10
1.89339
 20
7.1964
 30
0.0
 40
0.00738542
 41
0.00738542
  0
VERTEX
  8
0
 10
1.91932
 20
7.229
 30
0.0
 40
0.00738542
 41
0.00738542
  0
VERTEX
  8
0
 10
1.94325
 20
7.26264
 30
0.0
 40
0.00738542
 41
0.00738542
  0
VERTEX
  8
0
 10
1.96718
 20
7.29742
 30
0.0
 40
0.00738542
 41
0.00738542
  0
VERTEX
  8
0
 10
1.98801
 20
7.33328
 30
0.0
 40
0.00738542
 41
0.00738542
  0
VERTEX
  8
0
 10
2.00786
 20
7.37022
 30
0.0
 40
0.00738542
 41
0.00738542
  0
VERTEX
  8
0
 10
2.02561
 20
7.40826
 30
0.0
 40
0.00738542
 41
0.00738542
  0
VERTEX
  8
0
 10
2.04237
 20
7.44629
 30
0.0
 40
0.00738542
 41
0.00738542
  0
VERTEX
  8
0
 10
2.05701
 20
7.48551
 30
0.0
 40
0.00738542
 41
0.00738542
  0
VERTEX
  8
0
 10
2.07069
 20
7.52468
 30
0.0
 40
0.00738542
 41
0.00738542
  0
VERTEX
  8
0
 10
2.08122
 20
7.56506
 30
0.0
 40
0.00738542
 41
0.00738542
  0
VERTEX
  8
0
 10
2.09076
 20
7.60644
 30
0.0
 40
0.00738542
 41
0.00738542
  0
VERTEX
  8
0
 10
2.09819
 20
7.64686
 30
0.0
 40
0.00738542
 41
0.00738542
  0
VERTEX
  8
0
 10
2.1046
 20
7.68836
 30
0.0
 40
0.00738542
 41
0.00738542
  0
VERTEX
  8
0
 10
2.10894
 20
7.72993
 30
0.0
 40
0.00738542
 41
0.00738542
  0
VERTEX
  8
0
 10
2.11014
 20
7.7716
 30
0.0
 40
0.00738542
 41
0.00738542
  0
VERTEX
  8
0
 10
2.11139
 20
7.81429
 30
0.0
 40
0.00738542
 41
0.00738542
  0
VERTEX
  8
0
 10
2.10949
 20
7.85601
 30
0.0
 40
0.00738542
 41
0.00738542
  0
VERTEX
  8
0
 10
2.10542
 20
7.89675
 30
0.0
 40
0.00738542
 41
0.00738542
  0
VERTEX
  8
0
 10
2.10042
 20
7.93858
 30
0.0
 40
0.00738542
 41
0.00738542
  0
VERTEX
  8
0
 10
2.09326
 20
7.97944
 30
0.0
 40
0.00738542
 41
0.00738542
  0
VERTEX
  8
0
 10
2.08507
 20
8.02035
 30
0.0
 40
0.00738542
 41
0.00738542
  0
VERTEX
  8
0
 10
2.07374
 20
8.06131
 30
0.0
 40
0.00738542
 41
0.00738542
  0
VERTEX
  8
0
 10
2.06136
 20
8.10129
 30
0.0
 40
0.00738542
 41
0.00738542
  0
VERTEX
  8
0
 10
2.04688
 20
8.14025
 30
0.0
 40
0.00738542
 41
0.00738542
  0
VERTEX
  8
0
 10
2.03131
 20
8.17925
 30
0.0
 40
0.00738542
 41
0.00738542
  0
VERTEX
  8
0
 10
2.01367
 20
8.21729
 30
0.0
 40
0.00738542
 41
0.00738542
  0
VERTEX
  8
0
 10
1.9949
 20
8.25429
 30
0.0
 40
0.00738542
 41
0.00738542
  0
VERTEX
  8
0
 10
1.97304
 20
8.29036
 30
0.0
 40
0.00738542
 41
0.00738542
  0
VERTEX
  8
0
 10
1.95111
 20
8.32542
 30
0.0
 40
0.00738542
 41
0.00738542
  0
VERTEX
  8
0
 10
1.92708
 20
8.35943
 30
0.0
 40
0.00738542
 41
0.00738542
  0
VERTEX
  8
0
 10
1.90093
 20
8.39253
 30
0.0
 40
0.00738542
 41
0.00738542
  0
VERTEX
  8
0
 10
1.87478
 20
8.42453
 30
0.0
 40
0.00738542
 41
0.00738542
  0
VERTEX
  8
0
 10
1.84651
 20
8.45557
 30
0.0
 40
0.00738542
 41
0.00738542
  0
VERTEX
  8
0
 10
1.81608
 20
8.4846
 30
0.0
 40
0.00738542
 41
0.00738542
  0
VERTEX
  8
0
 10
1.78564
 20
8.51258
 30
0.0
 40
0.00738542
 41
0.00738542
  0
VERTEX
  8
0
 10
1.7531
 20
8.53956
 30
0.0
 40
0.00738542
 41
0.00738542
  0
VERTEX
  8
0
 10
1.72043
 20
8.56446
 30
0.0
 40
0.00738542
 41
0.00738542
  0
VERTEX
  8
0
 10
1.68571
 20
8.58843
 30
0.0
 40
0.00738542
 41
0.00738542
  0
VERTEX
  8
0
 10
1.6499
 20
8.61133
 30
0.0
 40
0.00738542
 41
0.00738542
  0
VERTEX
  8
0
 10
1.61399
 20
8.63112
 30
0.0
 40
0.00738542
 41
0.00738542
  0
VERTEX
  8
0
 10
1.57601
 20
8.65099
 30
0.0
 40
0.00738542
 41
0.00738542
  0
VERTEX
  8
0
 10
1.53797
 20
8.66769
 30
0.0
 40
0.00738542
 41
0.00738542
  0
VERTEX
  8
0
 10
1.49983
 20
8.68343
 30
0.0
 40
0.00738542
 41
0.00738542
  0
VERTEX
  8
0
 10
1.46067
 20
8.69706
 30
0.0
 40
0.00738542
 41
0.00738542
  0
VERTEX
  8
0
 10
1.42036
 20
8.70969
 30
0.0
 40
0.00738542
 41
0.00738542
  0
VERTEX
  8
0
 10
1.38005
 20
8.72026
 30
0.0
 40
0.00738542
 41
0.00738542
  0
VERTEX
  8
0
 10
1.3386
 20
8.72874
 30
0.0
 40
0.00738542
 41
0.00738542
  0
VERTEX
  8
0
 10
1.29709
 20
8.73514
 30
0.0
 40
0.00738542
 41
0.00738542
  0
VERTEX
  8
0
 10
1.25559
 20
8.7405
 30
0.0
 40
0.00738542
 41
0.00738542
  0
VERTEX
  8
0
 10
1.21397
 20
8.74278
 30
0.0
 40
0.00738542
 41
0.00738542
  0
VERTEX
  8
0
 10
1.17231
 20
8.74397
 30
0.0
 40
0.00738542
 41
0.00738542
  0
VERTEX
  8
0
 10
1.13064
 20
8.74414
 30
0.0
 40
0.00738542
 41
0.00738542
  0
VERTEX
  8
0
 10
1.08887
 20
8.74121
 30
0.0
 40
0.00738542
 41
0.00738542
  0
VERTEX
  8
0
 10
1.04704
 20
8.73719
 30
0.0
 40
0.00738542
 41
0.00738542
  0
VERTEX
  8
0
 10
1.00624
 20
8.73112
 30
0.0
 40
0.00738542
 41
0.00738542
  0
VERTEX
  8
0
 10
0.965386
 20
8.72288
 30
0.0
 40
0.00738542
 41
0.00738542
  0
VERTEX
  8
0
 10
0.924425
 20
8.71263
 30
0.0
 40
0.00738542
 41
0.00738542
  0
VERTEX
  8
0
 10
0.884494
 20
8.70128
 30
0.0
 40
0.00738542
 41
0.00738542
  0
VERTEX
  8
0
 10
0.84451
 20
8.68787
 30
0.0
 40
0.00738542
 41
0.00738542
  0
VERTEX
  8
0
 10
0.805501
 20
8.67333
 30
0.0
 40
0.00738542
 41
0.00738542
  0
VERTEX
  8
0
 10
0.767469
 20
8.65571
 30
0.0
 40
0.00738542
 41
0.00738542
  0
VERTEX
  8
0
 10
0.729492
 20
8.63803
 30
0.0
 40
0.00738542
 41
0.00738542
  0
VERTEX
  8
0
 10
0.693414
 20
8.61719
 30
0.0
 40
0.00738542
 41
0.00738542
  0
VERTEX
  8
0
 10
0.657389
 20
8.59532
 30
0.0
 40
0.00738542
 41
0.00738542
  0
VERTEX
  8
0
 10
0.622287
 20
8.57238
 30
0.0
 40
0.00738542
 41
0.00738542
  0
VERTEX
  8
0
 10
0.589247
 20
8.54725
 30
0.0
 40
0.00738542
 41
0.00738542
  0
VERTEX
  8
0
 10
0.556207
 20
8.52115
 30
0.0
 40
0.00738542
 41
0.00738542
  0
VERTEX
  8
0
 10
0.525174
 20
8.49392
 30
0.0
 40
0.00738542
 41
0.00738542
  0
VERTEX
  8
0
 10
0.495171
 20
8.46457
 30
0.0
 40
0.00738542
 41
0.00738542
  0
VERTEX
  8
0
 10
0.466146
 20
8.43414
 30
0.0
 40
0.00738542
 41
0.00738542
  0
VERTEX
  8
0
 10
0.439182
 20
8.40261
 30
0.0
 40
0.00738542
 41
0.00738542
  0
VERTEX
  8
0
 10
0.413249
 20
8.37001
 30
0.0
 40
0.00738542
 41
0.00738542
  0
VERTEX
  8
0
 10
0.388292
 20
8.33637
 30
0.0
 40
0.00738542
 41
0.00738542
  0
VERTEX
  8
0
 10
0.365397
 20
8.3016
 30
0.0
 40
0.00738542
 41
0.00738542
  0
VERTEX
  8
0
 10
0.344564
 20
8.26574
 30
0.0
 40
0.00738542
 41
0.00738542
  0
VERTEX
  8
0
 10
0.324707
 20
8.22879
 30
0.0
 40
0.00738542
 41
0.00738542
  0
VERTEX
  8
0
 10
0.305881
 20
8.19075
 30
0.0
 40
0.00738542
 41
0.00738542
  0
VERTEX
  8
0
 10
0.289171
 20
8.15272
 30
0.0
 40
0.00738542
 41
0.00738542
  0
VERTEX
  8
0
 10
0.274468
 20
8.11356
 30
0.0
 40
0.00738542
 41
0.00738542
  0
VERTEX
  8
0
 10
0.261828
 20
8.07324
 30
0.0
 40
0.00738542
 41
0.00738542
  0
VERTEX
  8
0
 10
0.250271
 20
8.03293
 30
0.0
 40
0.00738542
 41
0.00738542
  0
VERTEX
  8
0
 10
0.240776
 20
7.99257
 30
0.0
 40
0.00738542
 41
0.00738542
  0
VERTEX
  8
0
 10
0.23329
 20
7.95111
 30
0.0
 40
0.00738542
 41
0.00738542
  0
VERTEX
  8
0
 10
0.227974
 20
7.91064
 30
0.0
 40
0.00738542
 41
0.00738542
  0
VERTEX
  8
0
 10
0.223633
 20
7.86908
 30
0.0
 40
0.00738542
 41
0.00738542
  0
VERTEX
  8
0
 10
0.221354
 20
7.82639
 30
0.0
 40
0.00738542
 41
0.00738542
  0
SEQEND
 8
0
  0
POLYLINE
  8
0
 62
     0
 66
     1
 10
0
 20
0
 30
0.0
 70
     1
 40
0.53175
 41
0.53175
  0
VERTEX
  8
0
 10
1.23443
 20
8.22532
 30
0.0
 40
0.00738542
 41
0.00738542
  0
VERTEX
  8
0
 10
1.23313
 20
8.21804
 30
0.0
 40
0.00738542
 41
0.00738542
  0
VERTEX
  8
0
 10
1.23188
 20
8.20975
 30
0.0
 40
0.00738542
 41
0.00738542
  0
VERTEX
  8
0
 10
1.22852
 20
8.20253
 30
0.0
 40
0.00738542
 41
0.00738542
  0
VERTEX
  8
0
 10
1.22418
 20
8.19536
 30
0.0
 40
0.00738542
 41
0.00738542
  0
VERTEX
  8
0
 10
1.21978
 20
8.18924
 30
0.0
 40
0.00738542
 41
0.00738542
  0
VERTEX
  8
0
 10
1.21343
 20
8.18425
 30
0.0
 40
0.00738542
 41
0.00738542
  0
VERTEX
  8
0
 10
1.20703
 20
8.17919
 30
0.0
 40
0.00738542
 41
0.00738542
  0
VERTEX
  8
0
 10
1.1996
 20
8.17524
 30
0.0
 40
0.00738542
 41
0.00738542
  0
VERTEX
  8
0
 10
1.19228
 20
8.17339
 30
0.0
 40
0.00738542
 41
0.00738542
  0
VERTEX
  8
0
 10
1.1849
 20
8.1715
 30
0.0
 40
0.00738542
 41
0.00738542
  0
VERTEX
  8
0
 10
1.17659
 20
8.17176
 30
0.0
 40
0.00738542
 41
0.00738542
  0
VERTEX
  8
0
 10
1.16824
 20
8.17199
 30
0.0
 40
0.00738542
 41
0.00738542
  0
VERTEX
  8
0
 10
1.16103
 20
8.17426
 30
0.0
 40
0.00738542
 41
0.00738542
  0
VERTEX
  8
0
 10
1.15381
 20
8.1766
 30
0.0
 40
0.00738542
 41
0.00738542
  0
VERTEX
  8
0
 10
1.14665
 20
8.18093
 30
0.0
 40
0.00738542
 41
0.00738542
  0
VERTEX
  8
0
 10
1.14052
 20
8.18636
 30
0.0
 40
0.00738542
 41
0.00738542
  0
VERTEX
  8
0
 10
1.13444
 20
8.19174
 30
0.0
 40
0.00738542
 41
0.00738542
  0
VERTEX
  8
0
 10
1.13048
 20
8.19808
 30
0.0
 40
0.00738542
 41
0.00738542
  0
VERTEX
  8
0
 10
1.12647
 20
8.20551
 30
0.0
 40
0.00738542
 41
0.00738542
  0
VERTEX
  8
0
 10
1.12359
 20
8.21289
 30
0.0
 40
0.00738542
 41
0.00738542
  0
VERTEX
  8
0
 10
1.12277
 20
8.22125
 30
0.0
 40
0.00738542
 41
0.00738542
  0
VERTEX
  8
0
 10
1.12196
 20
8.22857
 30
0.0
 40
0.00738542
 41
0.00738542
  0
VERTEX
  8
0
 10
1.12326
 20
8.23687
 30
0.0
 40
0.00738542
 41
0.00738542
  0
VERTEX
  8
0
 10
1.12451
 20
8.24517
 30
0.0
 40
0.00738542
 41
0.00738542
  0
VERTEX
  8
0
 10
1.12788
 20
8.25239
 30
0.0
 40
0.00738542
 41
0.00738542
  0
VERTEX
  8
0
 10
1.13222
 20
8.25851
 30
0.0
 40
0.00738542
 41
0.00738542
  0
VERTEX
  8
0
 10
1.13661
 20
8.26568
 30
0.0
 40
0.00738542
 41
0.00738542
  0
VERTEX
  8
0
 10
1.14296
 20
8.27067
 30
0.0
 40
0.00738542
 41
0.00738542
  0
VERTEX
  8
0
 10
1.14936
 20
8.27572
 30
0.0
 40
0.00738542
 41
0.00738542
  0
VERTEX
  8
0
 10
1.15674
 20
8.27864
 30
0.0
 40
0.00738542
 41
0.00738542
  0
VERTEX
  8
0
 10
1.16412
 20
8.28153
 30
0.0
 40
0.00738542
 41
0.00738542
  0
VERTEX
  8
0
 10
1.1715
 20
8.28342
 30
0.0
 40
0.00738542
 41
0.00738542
  0
VERTEX
  8
0
 10
1.1798
 20
8.28315
 30
0.0
 40
0.00738542
 41
0.00738542
  0
VERTEX
  8
0
 10
1.18815
 20
8.28293
 30
0.0
 40
0.00738542
 41
0.00738542
  0
VERTEX
  8
0
 10
1.19537
 20
8.28065
 30
0.0
 40
0.00738542
 41
0.00738542
  0
VERTEX
  8
0
 10
1.20258
 20
8.27729
 30
0.0
 40
0.00738542
 41
0.00738542
  0
VERTEX
  8
0
 10
1.20974
 20
8.27399
 30
0.0
 40
0.00738542
 41
0.00738542
  0
VERTEX
  8
0
 10
1.21587
 20
8.26856
 30
0.0
 40
0.00738542
 41
0.00738542
  0
VERTEX
  8
0
 10
1.22195
 20
8.26318
 30
0.0
 40
0.00738542
 41
0.00738542
  0
VERTEX
  8
0
 10
1.22591
 20
8.25581
 30
0.0
 40
0.00738542
 41
0.00738542
  0
VERTEX
  8
0
 10
1.22987
 20
8.2494
 30
0.0
 40
0.00738542
 41
0.00738542
  0
VERTEX
  8
0
 10
1.2328
 20
8.24203
 30
0.0
 40
0.00738542
 41
0.00738542
  0
VERTEX
  8
0
 10
1.23443
 20
8.22532
 30
0.0
 40
0.00738542
 41
0.00738542
  0
SEQEND
 8
0
  0
POLYLINE
  8
0
 62
     0
 66
     1
 10
0
 20
0
 30
0.0
 70
     1
 40
0.53175
 41
0.53175
  0
VERTEX
  8
0
 10
0.845107
 20
7.59467
 30
0.0
 40
0.00738542
 41
0.00738542
  0
VERTEX
  8
0
 10
0.843858
 20
7.58632
 30
0.0
 40
0.00738542
 41
0.00738542
  0
VERTEX
  8
0
 10
0.842557
 20
7.5791
 30
0.0
 40
0.00738542
 41
0.00738542
  0
VERTEX
  8
0
 10
0.839193
 20
7.57086
 30
0.0
 40
0.00738542
 41
0.00738542
  0
VERTEX
  8
0
 10
0.830513
 20
7.5586
 30
0.0
 40
0.00738542
 41
0.00738542
  0
VERTEX
  8
0
 10
0.82411
 20
7.55251
 30
0.0
 40
0.00738542
 41
0.00738542
  0
VERTEX
  8
0
 10
0.817708
 20
7.54856
 30
0.0
 40
0.00738542
 41
0.00738542
  0
VERTEX
  8
0
 10
0.811361
 20
7.54454
 30
0.0
 40
0.00738542
 41
0.00738542
  0
VERTEX
  8
0
 10
0.802951
 20
7.54167
 30
0.0
 40
0.00738542
 41
0.00738542
  0
VERTEX
  8
0
 10
0.795628
 20
7.54085
 30
0.0
 40
0.00738542
 41
0.00738542
  0
VERTEX
  8
0
 10
0.787272
 20
7.54004
 30
0.0
 40
0.00738542
 41
0.00738542
  0
VERTEX
  8
0
 10
0.778971
 20
7.54135
 30
0.0
 40
0.00738542
 41
0.00738542
  0
VERTEX
  8
0
 10
0.771701
 20
7.54258
 30
0.0
 40
0.00738542
 41
0.00738542
  0
VERTEX
  8
0
 10
0.76454
 20
7.54596
 30
0.0
 40
0.00738542
 41
0.00738542
  0
VERTEX
  8
0
 10
0.757378
 20
7.55029
 30
0.0
 40
0.00738542
 41
0.00738542
  0
VERTEX
  8
0
 10
0.751247
 20
7.55464
 30
0.0
 40
0.00738542
 41
0.00738542
  0
VERTEX
  8
0
 10
0.745171
 20
7.56108
 30
0.0
 40
0.00738542
 41
0.00738542
  0
VERTEX
  8
0
 10
0.741157
 20
7.56743
 30
0.0
 40
0.00738542
 41
0.00738542
  0
VERTEX
  8
0
 10
0.737196
 20
7.57378
 30
0.0
 40
0.00738542
 41
0.00738542
  0
VERTEX
  8
0
 10
0.734321
 20
7.58225
 30
0.0
 40
0.00738542
 41
0.00738542
  0
VERTEX
  8
0
 10
0.733453
 20
7.58951
 30
0.0
 40
0.00738542
 41
0.00738542
  0
VERTEX
  8
0
 10
0.732693
 20
7.59793
 30
0.0
 40
0.00738542
 41
0.00738542
  0
VERTEX
  8
0
 10
0.733942
 20
7.60622
 30
0.0
 40
0.00738542
 41
0.00738542
  0
VERTEX
  8
0
 10
0.735243
 20
7.61344
 30
0.0
 40
0.00738542
 41
0.00738542
  0
VERTEX
  8
0
 10
0.738553
 20
7.62067
 30
0.0
 40
0.00738542
 41
0.00738542
  0
VERTEX
  8
0
 10
0.742947
 20
7.62782
 30
0.0
 40
0.00738542
 41
0.00738542
  0
VERTEX
  8
0
 10
0.747287
 20
7.63396
 30
0.0
 40
0.00738542
 41
0.00738542
  0
VERTEX
  8
0
 10
0.753689
 20
7.64003
 30
0.0
 40
0.00738542
 41
0.00738542
  0
VERTEX
  8
0
 10
0.760037
 20
7.64399
 30
0.0
 40
0.00738542
 41
0.00738542
  0
VERTEX
  8
0
 10
0.767469
 20
7.64794
 30
0.0
 40
0.00738542
 41
0.00738542
  0
VERTEX
  8
0
 10
0.774849
 20
7.65087
 30
0.0
 40
0.00738542
 41
0.00738542
  0
VERTEX
  8
0
 10
0.782172
 20
7.65169
 30
0.0
 40
0.00738542
 41
0.00738542
  0
VERTEX
  8
0
 10
0.790528
 20
7.6525
 30
0.0
 40
0.00738542
 41
0.00738542
  0
VERTEX
  8
0
 10
0.798828
 20
7.65121
 30
0.0
 40
0.00738542
 41
0.00738542
  0
VERTEX
  8
0
 10
0.806099
 20
7.64996
 30
0.0
 40
0.00738542
 41
0.00738542
  0
VERTEX
  8
0
 10
0.814344
 20
7.6466
 30
0.0
 40
0.00738542
 41
0.00738542
  0
VERTEX
  8
0
 10
0.826606
 20
7.63792
 30
0.0
 40
0.00738542
 41
0.00738542
  0
VERTEX
  8
0
 10
0.832628
 20
7.63146
 30
0.0
 40
0.00738542
 41
0.00738542
  0
VERTEX
  8
0
 10
0.836643
 20
7.62511
 30
0.0
 40
0.00738542
 41
0.00738542
  0
VERTEX
  8
0
 10
0.840603
 20
7.61768
 30
0.0
 40
0.00738542
 41
0.00738542
  0
VERTEX
  8
0
 10
0.843479
 20
7.61029
 30
0.0
 40
0.00738542
 41
0.00738542
  0
VERTEX
  8
0
 10
0.844347
 20
7.60303
 30
0.0
 40
0.00738542
 41
0.00738542
  0
VERTEX
  8
0
 10
0.845107
 20
7.59467
 30
0.0
 40
0.00738542
 41
0.00738542
  0
SEQEND
 8
0
  0
POLYLINE
  8
0
 62
     0
 66
     1
 10
0
 20
0
 30
0.0
 70
     1
 40
0.53175
 41
0.53175
  0
VERTEX
  8
0
 10
1.58649
 20
7.57314
 30
0.0
 40
0.00738542
 41
0.00738542
  0
VERTEX
  8
0
 10
1.58518
 20
7.56483
 30
0.0
 40
0.00738542
 41
0.00738542
  0
VERTEX
  8
0
 10
1.58393
 20
7.55761
 30
0.0
 40
0.00738542
 41
0.00738542
  0
VERTEX
  8
0
 10
1.58057
 20
7.54937
 30
0.0
 40
0.00738542
 41
0.00738542
  0
VERTEX
  8
0
 10
1.57189
 20
7.53711
 30
0.0
 40
0.00738542
 41
0.00738542
  0
VERTEX
  8
0
 10
1.56543
 20
7.53103
 30
0.0
 40
0.00738542
 41
0.00738542
  0
VERTEX
  8
0
 10
1.55908
 20
7.52707
 30
0.0
 40
0.00738542
 41
0.00738542
  0
VERTEX
  8
0
 10
1.55171
 20
7.52311
 30
0.0
 40
0.00738542
 41
0.00738542
  0
VERTEX
  8
0
 10
1.54428
 20
7.52018
 30
0.0
 40
0.00738542
 41
0.00738542
  0
VERTEX
  8
0
 10
1.537
 20
7.51938
 30
0.0
 40
0.00738542
 41
0.00738542
  0
VERTEX
  8
0
 10
1.5286
 20
7.51856
 30
0.0
 40
0.00738542
 41
0.00738542
  0
VERTEX
  8
0
 10
1.52035
 20
7.51986
 30
0.0
 40
0.00738542
 41
0.00738542
  0
VERTEX
  8
0
 10
1.51307
 20
7.52111
 30
0.0
 40
0.00738542
 41
0.00738542
  0
VERTEX
  8
0
 10
1.50586
 20
7.52442
 30
0.0
 40
0.00738542
 41
0.00738542
  0
VERTEX
  8
0
 10
1.49869
 20
7.52881
 30
0.0
 40
0.00738542
 41
0.00738542
  0
VERTEX
  8
0
 10
1.49257
 20
7.53315
 30
0.0
 40
0.00738542
 41
0.00738542
  0
VERTEX
  8
0
 10
1.48649
 20
7.53961
 30
0.0
 40
0.00738542
 41
0.00738542
  0
VERTEX
  8
0
 10
1.48253
 20
7.54596
 30
0.0
 40
0.00738542
 41
0.00738542
  0
VERTEX
  8
0
 10
1.47851
 20
7.55231
 30
0.0
 40
0.00738542
 41
0.00738542
  0
VERTEX
  8
0
 10
1.47564
 20
7.56071
 30
0.0
 40
0.00738542
 41
0.00738542
  0
VERTEX
  8
0
 10
1.47483
 20
7.56803
 30
0.0
 40
0.00738542
 41
0.00738542
  0
VERTEX
  8
0
 10
1.47407
 20
7.57644
 30
0.0
 40
0.00738542
 41
0.00738542
  0
VERTEX
  8
0
 10
1.47532
 20
7.58469
 30
0.0
 40
0.00738542
 41
0.00738542
  0
VERTEX
  8
0
 10
1.47656
 20
7.59196
 30
0.0
 40
0.00738542
 41
0.00738542
  0
VERTEX
  8
0
 10
1.47993
 20
7.59918
 30
0.0
 40
0.00738542
 41
0.00738542
  0
VERTEX
  8
0
 10
1.48426
 20
7.60633
 30
0.0
 40
0.00738542
 41
0.00738542
  0
VERTEX
  8
0
 10
1.48861
 20
7.61247
 30
0.0
 40
0.00738542
 41
0.00738542
  0
VERTEX
  8
0
 10
1.49507
 20
7.61849
 30
0.0
 40
0.00738542
 41
0.00738542
  0
VERTEX
  8
0
 10
1.50142
 20
7.6225
 30
0.0
 40
0.00738542
 41
0.00738542
  0
VERTEX
  8
0
 10
1.50885
 20
7.62646
 30
0.0
 40
0.00738542
 41
0.00738542
  0
VERTEX
  8
0
 10
1.51622
 20
7.62933
 30
0.0
 40
0.00738542
 41
0.00738542
  0
VERTEX
  8
0
 10
1.52354
 20
7.63021
 30
0.0
 40
0.00738542
 41
0.00738542
  0
VERTEX
  8
0
 10
1.5319
 20
7.63097
 30
0.0
 40
0.00738542
 41
0.00738542
  0
VERTEX
  8
0
 10
1.54021
 20
7.62972
 30
0.0
 40
0.00738542
 41
0.00738542
  0
VERTEX
  8
0
 10
1.54742
 20
7.62847
 30
0.0
 40
0.00738542
 41
0.00738542
  0
VERTEX
  8
0
 10
1.55464
 20
7.62511
 30
0.0
 40
0.00738542
 41
0.00738542
  0
VERTEX
  8
0
 10
1.56179
 20
7.62076
 30
0.0
 40
0.00738542
 41
0.00738542
  0
VERTEX
  8
0
 10
1.56793
 20
7.61643
 30
0.0
 40
0.00738542
 41
0.00738542
  0
VERTEX
  8
0
 10
1.574
 20
7.60997
 30
0.0
 40
0.00738542
 41
0.00738542
  0
VERTEX
  8
0
 10
1.57796
 20
7.60363
 30
0.0
 40
0.00738542
 41
0.00738542
  0
VERTEX
  8
0
 10
1.58192
 20
7.59619
 30
0.0
 40
0.00738542
 41
0.00738542
  0
VERTEX
  8
0
 10
1.58485
 20
7.58882
 30
0.0
 40
0.00738542
 41
0.00738542
  0
VERTEX
  8
0
 10
1.58567
 20
7.58149
 30
0.0
 40
0.00738542
 41
0.00738542
  0
VERTEX
  8
0
 10
1.58649
 20
7.57314
 30
0.0
 40
0.00738542
 41
0.00738542
  0
SEQEND
 8
0
  0
POLYLINE
  8
0
 62
     0
 66
     1
 10
0
 20
0
 30
0.0
 70
     1
 40
0.53175
 41
0.53175
  0
VERTEX
  8
0
 10
0.855469
 20
7.808
 30
0.0
 40
0.00738542
 41
0.00738542
  0
VERTEX
  8
0
 10
0.857042
 20
7.82671
 30
0.0
 40
0.00738542
 41
0.00738542
  0
VERTEX
  8
0
 10
0.8597
 20
7.84538
 30
0.0
 40
0.00738542
 41
0.00738542
  0
VERTEX
  8
0
 10
0.862304
 20
7.86404
 30
0.0
 40
0.00738542
 41
0.00738542
  0
VERTEX
  8
0
 10
0.867025
 20
7.88271
 30
0.0
 40
0.00738542
 41
0.00738542
  0
VERTEX
  8
0
 10
0.872721
 20
7.90022
 30
0.0
 40
0.00738542
 41
0.00738542
  0
VERTEX
  8
0
 10
0.879503
 20
7.91775
 30
0.0
 40
0.00738542
 41
0.00738542
  0
VERTEX
  8
0
 10
0.887315
 20
7.93528
 30
0.0
 40
0.00738542
 41
0.00738542
  0
VERTEX
  8
0
 10
0.896104
 20
7.95167
 30
0.0
 40
0.00738542
 41
0.00738542
  0
VERTEX
  8
0
 10
0.904893
 20
7.96707
 30
0.0
 40
0.00738542
 41
0.00738542
  0
VERTEX
  8
0
 10
0.915744
 20
7.98236
 30
0.0
 40
0.00738542
 41
0.00738542
  0
VERTEX
  8
0
 10
0.927681
 20
7.99767
 30
0.0
 40
0.00738542
 41
0.00738542
  0
VERTEX
  8
0
 10
0.939561
 20
8.01187
 30
0.0
 40
0.00738542
 41
0.00738542
  0
VERTEX
  8
0
 10
0.953504
 20
8.02507
 30
0.0
 40
0.00738542
 41
0.00738542
  0
VERTEX
  8
0
 10
0.967393
 20
8.03717
 30
0.0
 40
0.00738542
 41
0.00738542
  0
VERTEX
  8
0
 10
0.982314
 20
8.04921
 30
0.0
 40
0.00738542
 41
0.00738542
  0
VERTEX
  8
0
 10
0.997179
 20
8.05925
 30
0.0
 40
0.00738542
 41
0.00738542
  0
VERTEX
  8
0
 10
1.01313
 20
8.06917
 30
0.0
 40
0.00738542
 41
0.00738542
  0
VERTEX
  8
0
 10
1.03006
 20
8.07807
 30
0.0
 40
0.00738542
 41
0.00738542
  0
VERTEX
  8
0
 10
1.04693
 20
8.08589
 30
0.0
 40
0.00738542
 41
0.00738542
  0
VERTEX
  8
0
 10
1.06489
 20
8.09267
 30
0.0
 40
0.00738542
 41
0.00738542
  0
VERTEX
  8
0
 10
1.08274
 20
8.09842
 30
0.0
 40
0.00738542
 41
0.00738542
  0
VERTEX
  8
0
 10
1.10059
 20
8.10206
 30
0.0
 40
0.00738542
 41
0.00738542
  0
VERTEX
  8
0
 10
1.11838
 20
8.10574
 30
0.0
 40
0.00738542
 41
0.00738542
  0
VERTEX
  8
0
 10
1.13726
 20
8.10829
 30
0.0
 40
0.00738542
 41
0.00738542
  0
VERTEX
  8
0
 10
1.15603
 20
8.10878
 30
0.0
 40
0.00738542
 41
0.00738542
  0
VERTEX
  8
0
 10
1.1748
 20
8.10932
 30
0.0
 40
0.00738542
 41
0.00738542
  0
VERTEX
  8
0
 10
1.19352
 20
8.10769
 30
0.0
 40
0.00738542
 41
0.00738542
  0
VERTEX
  8
0
 10
1.21218
 20
8.10612
 30
0.0
 40
0.00738542
 41
0.00738542
  0
VERTEX
  8
0
 10
1.23085
 20
8.10249
 30
0.0
 40
0.00738542
 41
0.00738542
  0
VERTEX
  8
0
 10
1.24843
 20
8.09776
 30
0.0
 40
0.00738542
 41
0.00738542
  0
VERTEX
  8
0
 10
1.26709
 20
8.0931
 30
0.0
 40
0.00738542
 41
0.00738542
  0
VERTEX
  8
0
 10
1.28456
 20
8.08632
 30
0.0
 40
0.00738542
 41
0.00738542
  0
VERTEX
  8
0
 10
1.30105
 20
8.07856
 30
0.0
 40
0.00738542
 41
0.00738542
  0
VERTEX
  8
0
 10
1.31744
 20
8.06972
 30
0.0
 40
0.00738542
 41
0.00738542
  0
VERTEX
  8
0
 10
1.33382
 20
8.05989
 30
0.0
 40
0.00738542
 41
0.00738542
  0
VERTEX
  8
0
 10
1.34918
 20
8.04904
 30
0.0
 40
0.00738542
 41
0.00738542
  0
VERTEX
  8
0
 10
1.36448
 20
8.03814
 30
0.0
 40
0.00738542
 41
0.00738542
  0
VERTEX
  8
0
 10
1.37766
 20
8.02528
 30
0.0
 40
0.00738542
 41
0.00738542
  0
VERTEX
  8
0
 10
1.39187
 20
8.01237
 30
0.0
 40
0.00738542
 41
0.00738542
  0
VERTEX
  8
0
 10
1.40397
 20
7.99849
 30
0.0
 40
0.00738542
 41
0.00738542
  0
VERTEX
  8
0
 10
1.41499
 20
7.98356
 30
0.0
 40
0.00738542
 41
0.00738542
  0
VERTEX
  8
0
 10
1.426
 20
7.96761
 30
0.0
 40
0.00738542
 41
0.00738542
  0
VERTEX
  8
0
 10
1.43599
 20
7.95171
 30
0.0
 40
0.00738542
 41
0.00738542
  0
VERTEX
  8
0
 10
1.44487
 20
7.93582
 30
0.0
 40
0.00738542
 41
0.00738542
  0
VERTEX
  8
0
 10
1.45275
 20
7.91889
 30
0.0
 40
0.00738542
 41
0.00738542
  0
VERTEX
  8
0
 10
1.45844
 20
7.90099
 30
0.0
 40
0.00738542
 41
0.00738542
  0
VERTEX
  8
0
 10
1.46419
 20
7.88314
 30
0.0
 40
0.00738542
 41
0.00738542
  0
VERTEX
  8
0
 10
1.46892
 20
7.86529
 30
0.0
 40
0.00738542
 41
0.00738542
  0
VERTEX
  8
0
 10
1.4725
 20
7.8464
 30
0.0
 40
0.00738542
 41
0.00738542
  0
VERTEX
  8
0
 10
1.4751
 20
7.82758
 30
0.0
 40
0.00738542
 41
0.00738542
  0
VERTEX
  8
0
 10
1.47607
 20
7.79004
 30
0.0
 40
0.00738542
 41
0.00738542
  0
VERTEX
  8
0
 10
1.47293
 20
7.75261
 30
0.0
 40
0.00738542
 41
0.00738542
  0
VERTEX
  8
0
 10
1.46929
 20
7.73497
 30
0.0
 40
0.00738542
 41
0.00738542
  0
VERTEX
  8
0
 10
1.46457
 20
7.71636
 30
0.0
 40
0.00738542
 41
0.00738542
  0
VERTEX
  8
0
 10
1.45888
 20
7.69883
 30
0.0
 40
0.00738542
 41
0.00738542
  0
VERTEX
  8
0
 10
1.4521
 20
7.68132
 30
0.0
 40
0.00738542
 41
0.00738542
  0
VERTEX
  8
0
 10
1.44536
 20
7.66379
 30
0.0
 40
0.00738542
 41
0.00738542
  0
VERTEX
  8
0
 10
1.43653
 20
7.64735
 30
0.0
 40
0.00738542
 41
0.00738542
  0
VERTEX
  8
0
 10
1.42671
 20
7.63097
 30
0.0
 40
0.00738542
 41
0.00738542
  0
VERTEX
  8
0
 10
1.41581
 20
7.61567
 30
0.0
 40
0.00738542
 41
0.00738542
  0
VERTEX
  8
0
 10
1.40392
 20
7.6014
 30
0.0
 40
0.00738542
 41
0.00738542
  0
VERTEX
  8
0
 10
1.39204
 20
7.58718
 30
0.0
 40
0.00738542
 41
0.00738542
  0
VERTEX
  8
0
 10
1.37918
 20
7.574
 30
0.0
 40
0.00738542
 41
0.00738542
  0
VERTEX
  8
0
 10
1.3642
 20
7.5619
 30
0.0
 40
0.00738542
 41
0.00738542
  0
VERTEX
  8
0
 10
1.35032
 20
7.54981
 30
0.0
 40
0.00738542
 41
0.00738542
  0
VERTEX
  8
0
 10
1.33436
 20
7.53879
 30
0.0
 40
0.00738542
 41
0.00738542
  0
VERTEX
  8
0
 10
1.31852
 20
7.52989
 30
0.0
 40
0.00738542
 41
0.00738542
  0
VERTEX
  8
0
 10
1.30154
 20
7.521
 30
0.0
 40
0.00738542
 41
0.00738542
  0
VERTEX
  8
0
 10
1.28467
 20
7.51313
 30
0.0
 40
0.00738542
 41
0.00738542
  0
VERTEX
  8
0
 10
1.26779
 20
7.50635
 30
0.0
 40
0.00738542
 41
0.00738542
  0
VERTEX
  8
0
 10
1.24989
 20
7.5006
 30
0.0
 40
0.00738542
 41
0.00738542
  0
VERTEX
  8
0
 10
1.23101
 20
7.49599
 30
0.0
 40
0.00738542
 41
0.00738542
  0
VERTEX
  8
0
 10
1.21322
 20
7.49338
 30
0.0
 40
0.00738542
 41
0.00738542
  0
VERTEX
  8
0
 10
1.19439
 20
7.49078
 30
0.0
 40
0.00738542
 41
0.00738542
  0
VERTEX
  8
0
 10
1.17556
 20
7.48926
 30
0.0
 40
0.00738542
 41
0.00738542
  0
VERTEX
  8
0
 10
1.15685
 20
7.48981
 30
0.0
 40
0.00738542
 41
0.00738542
  0
VERTEX
  8
0
 10
1.13807
 20
7.49035
 30
0.0
 40
0.00738542
 41
0.00738542
  0
VERTEX
  8
0
 10
1.11941
 20
7.49294
 30
0.0
 40
0.00738542
 41
0.00738542
  0
VERTEX
  8
0
 10
1.10075
 20
7.49664
 30
0.0
 40
0.00738542
 41
0.00738542
  0
VERTEX
  8
0
 10
1.08317
 20
7.50028
 30
0.0
 40
0.00738542
 41
0.00738542
  0
VERTEX
  8
0
 10
1.06559
 20
7.50597
 30
0.0
 40
0.00738542
 41
0.00738542
  0
VERTEX
  8
0
 10
1.04807
 20
7.51275
 30
0.0
 40
0.00738542
 41
0.00738542
  0
VERTEX
  8
0
 10
1.0306
 20
7.52056
 30
0.0
 40
0.00738542
 41
0.00738542
  0
VERTEX
  8
0
 10
1.01416
 20
7.52935
 30
0.0
 40
0.00738542
 41
0.00738542
  0
VERTEX
  8
0
 10
0.997775
 20
7.53922
 30
0.0
 40
0.00738542
 41
0.00738542
  0
VERTEX
  8
0
 10
0.982422
 20
7.54904
 30
0.0
 40
0.00738542
 41
0.00738542
  0
VERTEX
  8
0
 10
0.968207
 20
7.56093
 30
0.0
 40
0.00738542
 41
0.00738542
  0
VERTEX
  8
0
 10
0.953993
 20
7.57383
 30
0.0
 40
0.00738542
 41
0.00738542
  0
VERTEX
  8
0
 10
0.94081
 20
7.58669
 30
0.0
 40
0.00738542
 41
0.00738542
  0
VERTEX
  8
0
 10
0.927681
 20
7.60064
 30
0.0
 40
0.00738542
 41
0.00738542
  0
VERTEX
  8
0
 10
0.916613
 20
7.61556
 30
0.0
 40
0.00738542
 41
0.00738542
  0
VERTEX
  8
0
 10
0.905599
 20
7.63049
 30
0.0
 40
0.00738542
 41
0.00738542
  0
VERTEX
  8
0
 10
0.895617
 20
7.64638
 30
0.0
 40
0.00738542
 41
0.00738542
  0
VERTEX
  8
0
 10
0.887804
 20
7.66331
 30
0.0
 40
0.00738542
 41
0.00738542
  0
VERTEX
  8
0
 10
0.879937
 20
7.68018
 30
0.0
 40
0.00738542
 41
0.00738542
  0
VERTEX
  8
0
 10
0.873156
 20
7.69808
 30
0.0
 40
0.00738542
 41
0.00738542
  0
VERTEX
  8
0
 10
0.867404
 20
7.71599
 30
0.0
 40
0.00738542
 41
0.00738542
  0
VERTEX
  8
0
 10
0.862739
 20
7.73383
 30
0.0
 40
0.00738542
 41
0.00738542
  0
VERTEX
  8
0
 10
0.859104
 20
7.75271
 30
0.0
 40
0.00738542
 41
0.00738542
  0
VERTEX
  8
0
 10
0.857531
 20
7.77046
 30
0.0
 40
0.00738542
 41
0.00738542
  0
VERTEX
  8
0
 10
0.856011
 20
7.78928
 30
0.0
 40
0.00738542
 41
0.00738542
  0
VERTEX
  8
0
 10
0.855469
 20
7.808
 30
0.0
 40
0.00738542
 41
0.00738542
  0
SEQEND
 8
0
  0
POLYLINE
  8
0
 62
     0
 66
     1
 10
0
 20
0
 30
0.0
 70
     1
 40
0.53175
 41
0.53175
  0
VERTEX
  8
0
 10
0.589953
 20
7.81569
 30
0.0
 40
0.00738542
 41
0.00738542
  0
VERTEX
  8
0
 10
0.590278
 20
7.79069
 30
0.0
 40
0.00738542
 41
0.00738542
  0
VERTEX
  8
0
 10
0.590603
 20
7.76563
 30
0.0
 40
0.00738542
 41
0.00738542
  0
VERTEX
  8
0
 10
0.592936
 20
7.73953
 30
0.0
 40
0.00738542
 41
0.00738542
  0
VERTEX
  8
0
 10
0.596408
 20
7.71442
 30
0.0
 40
0.00738542
 41
0.00738542
  0
VERTEX
  8
0
 10
0.600857
 20
7.68929
 30
0.0
 40
0.00738542
 41
0.00738542
  0
VERTEX
  8
0
 10
0.606392
 20
7.66411
 30
0.0
 40
0.00738542
 41
0.00738542
  0
VERTEX
  8
0
 10
0.61301
 20
7.63997
 30
0.0
 40
0.00738542
 41
0.00738542
  0
VERTEX
  8
0
 10
0.62066
 20
7.61578
 30
0.0
 40
0.00738542
 41
0.00738542
  0
VERTEX
  8
0
 10
0.629286
 20
7.59153
 30
0.0
 40
0.00738542
 41
0.00738542
  0
VERTEX
  8
0
 10
0.639051
 20
7.56836
 30
0.0
 40
0.00738542
 41
0.00738542
  0
VERTEX
  8
0
 10
0.649849
 20
7.54508
 30
0.0
 40
0.00738542
 41
0.00738542
  0
VERTEX
  8
0
 10
0.660644
 20
7.52186
 30
0.0
 40
0.00738542
 41
0.00738542
  0
VERTEX
  8
0
 10
0.673557
 20
7.50065
 30
0.0
 40
0.00738542
 41
0.00738542
  0
VERTEX
  8
0
 10
0.6875
 20
7.47835
 30
0.0
 40
0.00738542
 41
0.00738542
  0
VERTEX
  8
0
 10
0.702528
 20
7.45811
 30
0.0
 40
0.00738542
 41
0.00738542
  0
VERTEX
  8
0
 10
0.717611
 20
7.43787
 30
0.0
 40
0.00738542
 41
0.00738542
  0
VERTEX
  8
0
 10
0.733724
 20
7.41868
 30
0.0
 40
0.00738542
 41
0.00738542
  0
VERTEX
  8
0
 10
0.751899
 20
7.39936
 30
0.0
 40
0.00738542
 41
0.00738542
  0
VERTEX
  8
0
 10
0.769097
 20
7.38118
 30
0.0
 40
0.00738542
 41
0.00738542
  0
VERTEX
  8
0
 10
0.788411
 20
7.36496
 30
0.0
 40
0.00738542
 41
0.00738542
  0
VERTEX
  8
0
 10
0.807725
 20
7.34879
 30
0.0
 40
0.00738542
 41
0.00738542
  0
VERTEX
  8
0
 10
0.828125
 20
7.33251
 30
0.0
 40
0.00738542
 41
0.00738542
  0
VERTEX
  8
0
 10
0.84961
 20
7.31836
 30
0.0
 40
0.00738542
 41
0.00738542
  0
VERTEX
  8
0
 10
0.892578
 20
7.2921
 30
0.0
 40
0.00738542
 41
0.00738542
  0
VERTEX
  8
0
 10
0.916233
 20
7.28103
 30
0.0
 40
0.00738542
 41
0.00738542
  0
VERTEX
  8
0
 10
0.938857
 20
7.26992
 30
0.0
 40
0.00738542
 41
0.00738542
  0
VERTEX
  8
0
 10
0.986274
 20
7.2519
 30
0.0
 40
0.00738542
 41
0.00738542
  0
VERTEX
  8
0
 10
1.01107
 20
7.2449
 30
0.0
 40
0.00738542
 41
0.00738542
  0
VERTEX
  8
0
 10
1.06076
 20
7.23307
 30
0.0
 40
0.00738542
 41
0.00738542
  0
VERTEX
  8
0
 10
1.08567
 20
7.22922
 30
0.0
 40
0.00738542
 41
0.00738542
  0
VERTEX
  8
0
 10
1.11057
 20
7.2264
 30
0.0
 40
0.00738542
 41
0.00738542
  0
VERTEX
  8
0
 10
1.13656
 20
7.22461
 30
0.0
 40
0.00738542
 41
0.00738542
  0
VERTEX
  8
0
 10
1.16157
 20
7.2239
 30
0.0
 40
0.00738542
 41
0.00738542
  0
VERTEX
  8
0
 10
1.18761
 20
7.22418
 30
0.0
 40
0.00738542
 41
0.00738542
  0
VERTEX
  8
0
 10
1.21267
 20
7.22553
 30
0.0
 40
0.00738542
 41
0.00738542
  0
VERTEX
  8
0
 10
1.23774
 20
7.22792
 30
0.0
 40
0.00738542
 41
0.00738542
  0
VERTEX
  8
0
 10
1.26291
 20
7.23242
 30
0.0
 40
0.00738542
 41
0.00738542
  0
VERTEX
  8
0
 10
1.28803
 20
7.23687
 30
0.0
 40
0.00738542
 41
0.00738542
  0
VERTEX
  8
0
 10
1.31321
 20
7.2424
 30
0.0
 40
0.00738542
 41
0.00738542
  0
VERTEX
  8
0
 10
1.3616
 20
7.25771
 30
0.0
 40
0.00738542
 41
0.00738542
  0
VERTEX
  8
0
 10
1.3858
 20
7.26742
 30
0.0
 40
0.00738542
 41
0.00738542
  0
VERTEX
  8
0
 10
1.40901
 20
7.27713
 30
0.0
 40
0.00738542
 41
0.00738542
  0
VERTEX
  8
0
 10
1.4535
 20
7.30089
 30
0.0
 40
0.00738542
 41
0.00738542
  0
VERTEX
  8
0
 10
1.47575
 20
7.31381
 30
0.0
 40
0.00738542
 41
0.00738542
  0
VERTEX
  8
0
 10
1.49701
 20
7.32878
 30
0.0
 40
0.00738542
 41
0.00738542
  0
VERTEX
  8
0
 10
1.51725
 20
7.34386
 30
0.0
 40
0.00738542
 41
0.00738542
  0
VERTEX
  8
0
 10
1.53749
 20
7.35889
 30
0.0
 40
0.00738542
 41
0.00738542
  0
VERTEX
  8
0
 10
1.55675
 20
7.37603
 30
0.0
 40
0.00738542
 41
0.00738542
  0
VERTEX
  8
0
 10
1.57503
 20
7.39426
 30
0.0
 40
0.00738542
 41
0.00738542
  0
VERTEX
  8
0
 10
1.59224
 20
7.41249
 30
0.0
 40
0.00738542
 41
0.00738542
  0
VERTEX
  8
0
 10
1.60943
 20
7.43181
 30
0.0
 40
0.00738542
 41
0.00738542
  0
VERTEX
  8
0
 10
1.62457
 20
7.45117
 30
0.0
 40
0.00738542
 41
0.00738542
  0
VERTEX
  8
0
 10
1.63981
 20
7.4726
 30
0.0
 40
0.00738542
 41
0.00738542
  0
VERTEX
  8
0
 10
1.65392
 20
7.49306
 30
0.0
 40
0.00738542
 41
0.00738542
  0
VERTEX
  8
0
 10
1.6671
 20
7.51557
 30
0.0
 40
0.00738542
 41
0.00738542
  0
VERTEX
  8
0
 10
1.67919
 20
7.53814
 30
0.0
 40
0.00738542
 41
0.00738542
  0
VERTEX
  8
0
 10
1.69026
 20
7.56076
 30
0.0
 40
0.00738542
 41
0.00738542
  0
VERTEX
  8
0
 10
1.70036
 20
7.58447
 30
0.0
 40
0.00738542
 41
0.00738542
  0
VERTEX
  8
0
 10
1.70936
 20
7.60812
 30
0.0
 40
0.00738542
 41
0.00738542
  0
VERTEX
  8
0
 10
1.71631
 20
7.63189
 30
0.0
 40
0.00738542
 41
0.00738542
  0
VERTEX
  8
0
 10
1.72331
 20
7.65674
 30
0.0
 40
0.00738542
 41
0.00738542
  0
VERTEX
  8
0
 10
1.72922
 20
7.68158
 30
0.0
 40
0.00738542
 41
0.00738542
  0
VERTEX
  8
0
 10
1.7341
 20
7.70643
 30
0.0
 40
0.00738542
 41
0.00738542
  0
VERTEX
  8
0
 10
1.73796
 20
7.73236
 30
0.0
 40
0.00738542
 41
0.00738542
  0
VERTEX
  8
0
 10
1.74154
 20
7.78228
 30
0.0
 40
0.00738542
 41
0.00738542
  0
VERTEX
  8
0
 10
1.74126
 20
7.80832
 30
0.0
 40
0.00738542
 41
0.00738542
  0
VERTEX
  8
0
 10
1.74094
 20
7.83333
 30
0.0
 40
0.00738542
 41
0.00738542
  0
VERTEX
  8
0
 10
1.73856
 20
7.85949
 30
0.0
 40
0.00738542
 41
0.00738542
  0
VERTEX
  8
0
 10
1.73514
 20
7.8846
 30
0.0
 40
0.00738542
 41
0.00738542
  0
VERTEX
  8
0
 10
1.73063
 20
7.90972
 30
0.0
 40
0.00738542
 41
0.00738542
  0
VERTEX
  8
0
 10
1.7251
 20
7.93386
 30
0.0
 40
0.00738542
 41
0.00738542
  0
VERTEX
  8
0
 10
1.71957
 20
7.95904
 30
0.0
 40
0.00738542
 41
0.00738542
  0
VERTEX
  8
0
 10
1.71192
 20
7.98318
 30
0.0
 40
0.00738542
 41
0.00738542
  0
VERTEX
  8
0
 10
1.70324
 20
8.00743
 30
0.0
 40
0.00738542
 41
0.00738542
  0
VERTEX
  8
0
 10
1.69353
 20
8.03065
 30
0.0
 40
0.00738542
 41
0.00738542
  0
VERTEX
  8
0
 10
1.68272
 20
8.05388
 30
0.0
 40
0.00738542
 41
0.00738542
  0
VERTEX
  8
0
 10
1.67085
 20
8.07611
 30
0.0
 40
0.00738542
 41
0.00738542
  0
VERTEX
  8
0
 10
1.65793
 20
8.09836
 30
0.0
 40
0.00738542
 41
0.00738542
  0
VERTEX
  8
0
 10
1.64399
 20
8.11962
 30
0.0
 40
0.00738542
 41
0.00738542
  0
VERTEX
  8
0
 10
1.62999
 20
8.14085
 30
0.0
 40
0.00738542
 41
0.00738542
  0
VERTEX
  8
0
 10
1.61393
 20
8.16114
 30
0.0
 40
0.00738542
 41
0.00738542
  0
VERTEX
  8
0
 10
1.59776
 20
8.18033
 30
0.0
 40
0.00738542
 41
0.00738542
  0
VERTEX
  8
0
 10
1.58063
 20
8.1996
 30
0.0
 40
0.00738542
 41
0.00738542
  0
VERTEX
  8
0
 10
1.56239
 20
8.21679
 30
0.0
 40
0.00738542
 41
0.00738542
  0
VERTEX
  8
0
 10
1.54308
 20
8.23406
 30
0.0
 40
0.00738542
 41
0.00738542
  0
VERTEX
  8
0
 10
1.52376
 20
8.25028
 30
0.0
 40
0.00738542
 41
0.00738542
  0
VERTEX
  8
0
 10
1.50336
 20
8.2654
 30
0.0
 40
0.00738542
 41
0.00738542
  0
VERTEX
  8
0
 10
1.48188
 20
8.28065
 30
0.0
 40
0.00738542
 41
0.00738542
  0
VERTEX
  8
0
 10
1.43892
 20
8.30692
 30
0.0
 40
0.00738542
 41
0.00738542
  0
VERTEX
  8
0
 10
1.41629
 20
8.31799
 30
0.0
 40
0.00738542
 41
0.00738542
  0
VERTEX
  8
0
 10
1.39264
 20
8.32801
 30
0.0
 40
0.00738542
 41
0.00738542
  0
VERTEX
  8
0
 10
1.36898
 20
8.33811
 30
0.0
 40
0.00738542
 41
0.00738542
  0
VERTEX
  8
0
 10
1.34522
 20
8.34608
 30
0.0
 40
0.00738542
 41
0.00738542
  0
VERTEX
  8
0
 10
1.32042
 20
8.35411
 30
0.0
 40
0.00738542
 41
0.00738542
  0
VERTEX
  8
0
 10
1.29563
 20
8.36003
 30
0.0
 40
0.00738542
 41
0.00738542
  0
VERTEX
  8
0
 10
1.27073
 20
8.36496
 30
0.0
 40
0.00738542
 41
0.00738542
  0
VERTEX
  8
0
 10
1.24588
 20
8.36985
 30
0.0
 40
0.00738542
 41
0.00738542
  0
VERTEX
  8
0
 10
1.22092
 20
8.37261
 30
0.0
 40
0.00738542
 41
0.00738542
  0
VERTEX
  8
0
 10
1.19493
 20
8.37446
 30
0.0
 40
0.00738542
 41
0.00738542
  0
VERTEX
  8
0
 10
1.16992
 20
8.37517
 30
0.0
 40
0.00738542
 41
0.00738542
  0
VERTEX
  8
0
 10
1.14388
 20
8.37489
 30
0.0
 40
0.00738542
 41
0.00738542
  0
VERTEX
  8
0
 10
1.11882
 20
8.37354
 30
0.0
 40
0.00738542
 41
0.00738542
  0
VERTEX
  8
0
 10
1.09375
 20
8.37007
 30
0.0
 40
0.00738542
 41
0.00738542
  0
VERTEX
  8
0
 10
1.06863
 20
8.36664
 30
0.0
 40
0.00738542
 41
0.00738542
  0
VERTEX
  8
0
 10
1.04351
 20
8.36214
 30
0.0
 40
0.00738542
 41
0.00738542
  0
VERTEX
  8
0
 10
1.01828
 20
8.35558
 30
0.0
 40
0.00738542
 41
0.00738542
  0
VERTEX
  8
0
 10
0.99414
 20
8.34896
 30
0.0
 40
0.00738542
 41
0.00738542
  0
VERTEX
  8
0
 10
0.969943
 20
8.34028
 30
0.0
 40
0.00738542
 41
0.00738542
  0
VERTEX
  8
0
 10
0.946724
 20
8.3316
 30
0.0
 40
0.00738542
 41
0.00738542
  0
VERTEX
  8
0
 10
0.922526
 20
8.32189
 30
0.0
 40
0.00738542
 41
0.00738542
  0
VERTEX
  8
0
 10
0.878039
 20
8.29813
 30
0.0
 40
0.00738542
 41
0.00738542
  0
VERTEX
  8
0
 10
0.85574
 20
8.28418
 30
0.0
 40
0.00738542
 41
0.00738542
  0
VERTEX
  8
0
 10
0.834526
 20
8.27024
 30
0.0
 40
0.00738542
 41
0.00738542
  0
VERTEX
  8
0
 10
0.814236
 20
8.25521
 30
0.0
 40
0.00738542
 41
0.00738542
  0
VERTEX
  8
0
 10
0.794
 20
8.2391
 30
0.0
 40
0.00738542
 41
0.00738542
  0
VERTEX
  8
0
 10
0.775825
 20
8.22299
 30
0.0
 40
0.00738542
 41
0.00738542
  0
VERTEX
  8
0
 10
0.756511
 20
8.20481
 30
0.0
 40
0.00738542
 41
0.00738542
  0
VERTEX
  8
0
 10
0.739312
 20
8.18653
 30
0.0
 40
0.00738542
 41
0.00738542
  0
VERTEX
  8
0
 10
0.723144
 20
8.16721
 30
0.0
 40
0.00738542
 41
0.00738542
  0
VERTEX
  8
0
 10
0.706922
 20
8.14681
 30
0.0
 40
0.00738542
 41
0.00738542
  0
VERTEX
  8
0
 10
0.691732
 20
8.12642
 30
0.0
 40
0.00738542
 41
0.00738542
  0
VERTEX
  8
0
 10
0.677517
 20
8.10493
 30
0.0
 40
0.00738542
 41
0.00738542
  0
VERTEX
  8
0
 10
0.665474
 20
8.08339
 30
0.0
 40
0.00738542
 41
0.00738542
  0
VERTEX
  8
0
 10
0.653321
 20
8.06082
 30
0.0
 40
0.00738542
 41
0.00738542
  0
VERTEX
  8
0
 10
0.642253
 20
8.03825
 30
0.0
 40
0.00738542
 41
0.00738542
  0
VERTEX
  8
0
 10
0.632215
 20
8.01454
 30
0.0
 40
0.00738542
 41
0.00738542
  0
VERTEX
  8
0
 10
0.62321
 20
7.99083
 30
0.0
 40
0.00738542
 41
0.00738542
  0
VERTEX
  8
0
 10
0.615181
 20
7.9661
 30
0.0
 40
0.00738542
 41
0.00738542
  0
VERTEX
  8
0
 10
0.608236
 20
7.94233
 30
0.0
 40
0.00738542
 41
0.00738542
  0
VERTEX
  8
0
 10
0.602268
 20
7.91749
 30
0.0
 40
0.00738542
 41
0.00738542
  0
VERTEX
  8
0
 10
0.597385
 20
7.89258
 30
0.0
 40
0.00738542
 41
0.00738542
  0
VERTEX
  8
0
 10
0.593533
 20
7.86664
 30
0.0
 40
0.00738542
 41
0.00738542
  0
VERTEX
  8
0
 10
0.591743
 20
7.84169
 30
0.0
 40
0.00738542
 41
0.00738542
  0
VERTEX
  8
0
 10
0.589953
 20
7.81569
 30
0.0
 40
0.00738542
 41
0.00738542
  0
SEQEND
 8
0
  0
POLYLINE
  8
0
 62
     0
 66
     1
 10
0
 20
0
 30
0.0
 70
     1
 40
0.53175
 41
0.53175
  0
VERTEX
  8
0
 10
2.82829
 20
8.22586
 30
0.0
 40
0.00738542
 41
0.00738542
  0
VERTEX
  8
0
 10
2.82807
 20
8.21853
 30
0.0
 40
0.00738542
 41
0.00738542
  0
VERTEX
  8
0
 10
2.82351
 20
8.2041
 30
0.0
 40
0.00738542
 41
0.00738542
  0
VERTEX
  8
0
 10
2.81913
 20
8.19694
 30
0.0
 40
0.00738542
 41
0.00738542
  0
VERTEX
  8
0
 10
2.81478
 20
8.19081
 30
0.0
 40
0.00738542
 41
0.00738542
  0
VERTEX
  8
0
 10
2.8094
 20
8.18576
 30
0.0
 40
0.00738542
 41
0.00738542
  0
VERTEX
  8
0
 10
2.803
 20
8.18072
 30
0.0
 40
0.00738542
 41
0.00738542
  0
VERTEX
  8
0
 10
2.79665
 20
8.17779
 30
0.0
 40
0.00738542
 41
0.00738542
  0
VERTEX
  8
0
 10
2.78933
 20
8.17486
 30
0.0
 40
0.00738542
 41
0.00738542
  0
VERTEX
  8
0
 10
2.78196
 20
8.17301
 30
0.0
 40
0.00738542
 41
0.00738542
  0
VERTEX
  8
0
 10
2.77462
 20
8.17219
 30
0.0
 40
0.00738542
 41
0.00738542
  0
VERTEX
  8
0
 10
2.76736
 20
8.17236
 30
0.0
 40
0.00738542
 41
0.00738542
  0
VERTEX
  8
0
 10
2.75906
 20
8.17367
 30
0.0
 40
0.00738542
 41
0.00738542
  0
VERTEX
  8
0
 10
2.75185
 20
8.176
 30
0.0
 40
0.00738542
 41
0.00738542
  0
VERTEX
  8
0
 10
2.74567
 20
8.17925
 30
0.0
 40
0.00738542
 41
0.00738542
  0
VERTEX
  8
0
 10
2.7385
 20
8.18261
 30
0.0
 40
0.00738542
 41
0.00738542
  0
VERTEX
  8
0
 10
2.73346
 20
8.18799
 30
0.0
 40
0.00738542
 41
0.00738542
  0
VERTEX
  8
0
 10
2.72835
 20
8.19331
 30
0.0
 40
0.00738542
 41
0.00738542
  0
VERTEX
  8
0
 10
2.72336
 20
8.19971
 30
0.0
 40
0.00738542
 41
0.00738542
  0
VERTEX
  8
0
 10
2.72043
 20
8.20708
 30
0.0
 40
0.00738542
 41
0.00738542
  0
VERTEX
  8
0
 10
2.71756
 20
8.21446
 30
0.0
 40
0.00738542
 41
0.00738542
  0
VERTEX
  8
0
 10
2.71669
 20
8.22179
 30
0.0
 40
0.00738542
 41
0.00738542
  0
VERTEX
  8
0
 10
2.71588
 20
8.22911
 30
0.0
 40
0.00738542
 41
0.00738542
  0
VERTEX
  8
0
 10
2.71718
 20
8.23742
 30
0.0
 40
0.00738542
 41
0.00738542
  0
VERTEX
  8
0
 10
2.71843
 20
8.24468
 30
0.0
 40
0.00738542
 41
0.00738542
  0
VERTEX
  8
0
 10
2.72174
 20
8.25185
 30
0.0
 40
0.00738542
 41
0.00738542
  0
VERTEX
  8
0
 10
2.72504
 20
8.25803
 30
0.0
 40
0.00738542
 41
0.00738542
  0
VERTEX
  8
0
 10
2.73042
 20
8.26411
 30
0.0
 40
0.00738542
 41
0.00738542
  0
VERTEX
  8
0
 10
2.73583
 20
8.27024
 30
0.0
 40
0.00738542
 41
0.00738542
  0
VERTEX
  8
0
 10
2.74115
 20
8.27425
 30
0.0
 40
0.00738542
 41
0.00738542
  0
VERTEX
  8
0
 10
2.74858
 20
8.27821
 30
0.0
 40
0.00738542
 41
0.00738542
  0
VERTEX
  8
0
 10
2.75489
 20
8.28114
 30
0.0
 40
0.00738542
 41
0.00738542
  0
VERTEX
  8
0
 10
2.76226
 20
8.28299
 30
0.0
 40
0.00738542
 41
0.00738542
  0
VERTEX
  8
0
 10
2.77061
 20
8.28381
 30
0.0
 40
0.00738542
 41
0.00738542
  0
VERTEX
  8
0
 10
2.77789
 20
8.28358
 30
0.0
 40
0.00738542
 41
0.00738542
  0
VERTEX
  8
0
 10
2.78515
 20
8.28233
 30
0.0
 40
0.00738542
 41
0.00738542
  0
VERTEX
  8
0
 10
2.79237
 20
8.28006
 30
0.0
 40
0.00738542
 41
0.00738542
  0
VERTEX
  8
0
 10
2.79958
 20
8.27669
 30
0.0
 40
0.00738542
 41
0.00738542
  0
VERTEX
  8
0
 10
2.81185
 20
8.26801
 30
0.0
 40
0.00738542
 41
0.00738542
  0
VERTEX
  8
0
 10
2.81683
 20
8.26161
 30
0.0
 40
0.00738542
 41
0.00738542
  0
VERTEX
  8
0
 10
2.82086
 20
8.25526
 30
0.0
 40
0.00738542
 41
0.00738542
  0
VERTEX
  8
0
 10
2.82482
 20
8.24886
 30
0.0
 40
0.00738542
 41
0.00738542
  0
VERTEX
  8
0
 10
2.82671
 20
8.24154
 30
0.0
 40
0.00738542
 41
0.00738542
  0
VERTEX
  8
0
 10
2.82856
 20
8.23421
 30
0.0
 40
0.00738542
 41
0.00738542
  0
VERTEX
  8
0
 10
2.82829
 20
8.22586
 30
0.0
 40
0.00738542
 41
0.00738542
  0
SEQEND
 8
0
  0
POLYLINE
  8
0
 62
     0
 66
     1
 10
0
 20
0
 30
0.0
 70
     1
 40
0.53175
 41
0.53175
  0
VERTEX
  8
0
 10
2.43901
 20
7.59517
 30
0.0
 40
0.00738542
 41
0.00738542
  0
VERTEX
  8
0
 10
2.43881
 20
7.58789
 30
0.0
 40
0.00738542
 41
0.00738542
  0
VERTEX
  8
0
 10
2.43647
 20
7.57964
 30
0.0
 40
0.00738542
 41
0.00738542
  0
VERTEX
  8
0
 10
2.43419
 20
7.57238
 30
0.0
 40
0.00738542
 41
0.00738542
  0
VERTEX
  8
0
 10
2.42979
 20
7.56629
 30
0.0
 40
0.00738542
 41
0.00738542
  0
VERTEX
  8
0
 10
2.42551
 20
7.56017
 30
0.0
 40
0.00738542
 41
0.00738542
  0
VERTEX
  8
0
 10
2.42008
 20
7.55404
 30
0.0
 40
0.00738542
 41
0.00738542
  0
VERTEX
  8
0
 10
2.41374
 20
7.55007
 30
0.0
 40
0.00738542
 41
0.00738542
  0
VERTEX
  8
0
 10
2.40739
 20
7.54606
 30
0.0
 40
0.00738542
 41
0.00738542
  0
VERTEX
  8
0
 10
2.39996
 20
7.54318
 30
0.0
 40
0.00738542
 41
0.00738542
  0
VERTEX
  8
0
 10
2.39264
 20
7.54129
 30
0.0
 40
0.00738542
 41
0.00738542
  0
VERTEX
  8
0
 10
2.38531
 20
7.54047
 30
0.0
 40
0.00738542
 41
0.00738542
  0
VERTEX
  8
0
 10
2.37804
 20
7.54069
 30
0.0
 40
0.00738542
 41
0.00738542
  0
VERTEX
  8
0
 10
2.36974
 20
7.54199
 30
0.0
 40
0.00738542
 41
0.00738542
  0
VERTEX
  8
0
 10
2.36253
 20
7.54428
 30
0.0
 40
0.00738542
 41
0.00738542
  0
VERTEX
  8
0
 10
2.35633
 20
7.54758
 30
0.0
 40
0.00738542
 41
0.00738542
  0
VERTEX
  8
0
 10
2.34918
 20
7.55197
 30
0.0
 40
0.00738542
 41
0.00738542
  0
VERTEX
  8
0
 10
2.34407
 20
7.55626
 30
0.0
 40
0.00738542
 41
0.00738542
  0
VERTEX
  8
0
 10
2.33908
 20
7.56267
 30
0.0
 40
0.00738542
 41
0.00738542
  0
VERTEX
  8
0
 10
2.33404
 20
7.56907
 30
0.0
 40
0.00738542
 41
0.00738542
  0
VERTEX
  8
0
 10
2.33111
 20
7.57536
 30
0.0
 40
0.00738542
 41
0.00738542
  0
VERTEX
  8
0
 10
2.32926
 20
7.58274
 30
0.0
 40
0.00738542
 41
0.00738542
  0
VERTEX
  8
0
 10
2.32742
 20
7.5911
 30
0.0
 40
0.00738542
 41
0.00738542
  0
VERTEX
  8
0
 10
2.32764
 20
7.59842
 30
0.0
 40
0.00738542
 41
0.00738542
  0
VERTEX
  8
0
 10
2.32781
 20
7.60568
 30
0.0
 40
0.00738542
 41
0.00738542
  0
VERTEX
  8
0
 10
2.33014
 20
7.6129
 30
0.0
 40
0.00738542
 41
0.00738542
  0
VERTEX
  8
0
 10
2.33242
 20
7.62017
 30
0.0
 40
0.00738542
 41
0.00738542
  0
VERTEX
  8
0
 10
2.33578
 20
7.62733
 30
0.0
 40
0.00738542
 41
0.00738542
  0
VERTEX
  8
0
 10
2.34114
 20
7.63346
 30
0.0
 40
0.00738542
 41
0.00738542
  0
VERTEX
  8
0
 10
2.35189
 20
7.64356
 30
0.0
 40
0.00738542
 41
0.00738542
  0
VERTEX
  8
0
 10
2.35926
 20
7.64751
 30
0.0
 40
0.00738542
 41
0.00738542
  0
VERTEX
  8
0
 10
2.36561
 20
7.65044
 30
0.0
 40
0.00738542
 41
0.00738542
  0
VERTEX
  8
0
 10
2.37294
 20
7.65229
 30
0.0
 40
0.00738542
 41
0.00738542
  0
VERTEX
  8
0
 10
2.38135
 20
7.6531
 30
0.0
 40
0.00738542
 41
0.00738542
  0
VERTEX
  8
0
 10
2.38861
 20
7.65289
 30
0.0
 40
0.00738542
 41
0.00738542
  0
VERTEX
  8
0
 10
2.39583
 20
7.65164
 30
0.0
 40
0.00738542
 41
0.00738542
  0
VERTEX
  8
0
 10
2.4031
 20
7.64936
 30
0.0
 40
0.00738542
 41
0.00738542
  0
VERTEX
  8
0
 10
2.41026
 20
7.646
 30
0.0
 40
0.00738542
 41
0.00738542
  0
VERTEX
  8
0
 10
2.41639
 20
7.64165
 30
0.0
 40
0.00738542
 41
0.00738542
  0
VERTEX
  8
0
 10
2.42253
 20
7.63628
 30
0.0
 40
0.00738542
 41
0.00738542
  0
VERTEX
  8
0
 10
2.42757
 20
7.63092
 30
0.0
 40
0.00738542
 41
0.00738542
  0
VERTEX
  8
0
 10
2.43153
 20
7.62457
 30
0.0
 40
0.00738542
 41
0.00738542
  0
VERTEX
  8
0
 10
2.43549
 20
7.61714
 30
0.0
 40
0.00738542
 41
0.00738542
  0
VERTEX
  8
0
 10
2.43739
 20
7.60981
 30
0.0
 40
0.00738542
 41
0.00738542
  0
VERTEX
  8
0
 10
2.43924
 20
7.60243
 30
0.0
 40
0.00738542
 41
0.00738542
  0
VERTEX
  8
0
 10
2.43901
 20
7.59517
 30
0.0
 40
0.00738542
 41
0.00738542
  0
SEQEND
 8
0
  0
POLYLINE
  8
0
 62
     0
 66
     1
 10
0
 20
0
 30
0.0
 70
     1
 40
0.53175
 41
0.53175
  0
VERTEX
  8
0
 10
3.18033
 20
7.57368
 30
0.0
 40
0.00738542
 41
0.00738542
  0
VERTEX
  8
0
 10
3.18018
 20
7.5664
 30
0.0
 40
0.00738542
 41
0.00738542
  0
VERTEX
  8
0
 10
3.17785
 20
7.55811
 30
0.0
 40
0.00738542
 41
0.00738542
  0
VERTEX
  8
0
 10
3.17551
 20
7.55089
 30
0.0
 40
0.00738542
 41
0.00738542
  0
VERTEX
  8
0
 10
3.16683
 20
7.53863
 30
0.0
 40
0.00738542
 41
0.00738542
  0
VERTEX
  8
0
 10
3.16146
 20
7.53256
 30
0.0
 40
0.00738542
 41
0.00738542
  0
VERTEX
  8
0
 10
3.15506
 20
7.52854
 30
0.0
 40
0.00738542
 41
0.00738542
  0
VERTEX
  8
0
 10
3.14871
 20
7.52458
 30
0.0
 40
0.00738542
 41
0.00738542
  0
VERTEX
  8
0
 10
3.14133
 20
7.52165
 30
0.0
 40
0.00738542
 41
0.00738542
  0
VERTEX
  8
0
 10
3.134
 20
7.51981
 30
0.0
 40
0.00738542
 41
0.00738542
  0
VERTEX
  8
0
 10
3.12668
 20
7.51893
 30
0.0
 40
0.00738542
 41
0.00738542
  0
VERTEX
  8
0
 10
3.11942
 20
7.51915
 30
0.0
 40
0.00738542
 41
0.00738542
  0
VERTEX
  8
0
 10
3.11106
 20
7.52046
 30
0.0
 40
0.00738542
 41
0.00738542
  0
VERTEX
  8
0
 10
3.10385
 20
7.52274
 30
0.0
 40
0.00738542
 41
0.00738542
  0
VERTEX
  8
0
 10
3.09771
 20
7.52604
 30
0.0
 40
0.00738542
 41
0.00738542
  0
VERTEX
  8
0
 10
3.09056
 20
7.53043
 30
0.0
 40
0.00738542
 41
0.00738542
  0
VERTEX
  8
0
 10
3.08544
 20
7.53472
 30
0.0
 40
0.00738542
 41
0.00738542
  0
VERTEX
  8
0
 10
3.0804
 20
7.54113
 30
0.0
 40
0.00738542
 41
0.00738542
  0
VERTEX
  8
0
 10
3.07542
 20
7.54753
 30
0.0
 40
0.00738542
 41
0.00738542
  0
VERTEX
  8
0
 10
3.07249
 20
7.55388
 30
0.0
 40
0.00738542
 41
0.00738542
  0
VERTEX
  8
0
 10
3.06956
 20
7.56125
 30
0.0
 40
0.00738542
 41
0.00738542
  0
VERTEX
  8
0
 10
3.06879
 20
7.56961
 30
0.0
 40
0.00738542
 41
0.00738542
  0
VERTEX
  8
0
 10
3.06793
 20
7.57693
 30
0.0
 40
0.00738542
 41
0.00738542
  0
VERTEX
  8
0
 10
3.06917
 20
7.58419
 30
0.0
 40
0.00738542
 41
0.00738542
  0
VERTEX
  8
0
 10
3.07042
 20
7.59142
 30
0.0
 40
0.00738542
 41
0.00738542
  0
VERTEX
  8
0
 10
3.07378
 20
7.59864
 30
0.0
 40
0.00738542
 41
0.00738542
  0
VERTEX
  8
0
 10
3.0771
 20
7.60585
 30
0.0
 40
0.00738542
 41
0.00738542
  0
VERTEX
  8
0
 10
3.08247
 20
7.61193
 30
0.0
 40
0.00738542
 41
0.00738542
  0
VERTEX
  8
0
 10
3.09321
 20
7.62201
 30
0.0
 40
0.00738542
 41
0.00738542
  0
VERTEX
  8
0
 10
3.10064
 20
7.62597
 30
0.0
 40
0.00738542
 41
0.00738542
  0
VERTEX
  8
0
 10
3.10699
 20
7.6289
 30
0.0
 40
0.00738542
 41
0.00738542
  0
VERTEX
  8
0
 10
3.11431
 20
7.63081
 30
0.0
 40
0.00738542
 41
0.00738542
  0
VERTEX
  8
0
 10
3.12267
 20
7.63162
 30
0.0
 40
0.00738542
 41
0.00738542
  0
VERTEX
  8
0
 10
3.12993
 20
7.6314
 30
0.0
 40
0.00738542
 41
0.00738542
  0
VERTEX
  8
0
 10
3.13721
 20
7.6301
 30
0.0
 40
0.00738542
 41
0.00738542
  0
VERTEX
  8
0
 10
3.14442
 20
7.62782
 30
0.0
 40
0.00738542
 41
0.00738542
  0
VERTEX
  8
0
 10
3.15164
 20
7.62451
 30
0.0
 40
0.00738542
 41
0.00738542
  0
VERTEX
  8
0
 10
3.15776
 20
7.62017
 30
0.0
 40
0.00738542
 41
0.00738542
  0
VERTEX
  8
0
 10
3.16385
 20
7.61475
 30
0.0
 40
0.00738542
 41
0.00738542
  0
VERTEX
  8
0
 10
3.16889
 20
7.60938
 30
0.0
 40
0.00738542
 41
0.00738542
  0
VERTEX
  8
0
 10
3.1729
 20
7.60303
 30
0.0
 40
0.00738542
 41
0.00738542
  0
VERTEX
  8
0
 10
3.17686
 20
7.59565
 30
0.0
 40
0.00738542
 41
0.00738542
  0
VERTEX
  8
0
 10
3.17871
 20
7.58826
 30
0.0
 40
0.00738542
 41
0.00738542
  0
VERTEX
  8
0
 10
3.18061
 20
7.58094
 30
0.0
 40
0.00738542
 41
0.00738542
  0
VERTEX
  8
0
 10
3.18033
 20
7.57368
 30
0.0
 40
0.00738542
 41
0.00738542
  0
SEQEND
 8
0
  0
POLYLINE
  8
0
 62
     0
 66
     1
 10
0
 20
0
 30
0.0
 70
     1
 40
0.53175
 41
0.53175
  0
VERTEX
  8
0
 10
2.45042
 20
7.80849
 30
0.0
 40
0.00738542
 41
0.00738542
  0
VERTEX
  8
0
 10
2.45096
 20
7.82617
 30
0.0
 40
0.00738542
 41
0.00738542
  0
VERTEX
  8
0
 10
2.4535
 20
7.84381
 30
0.0
 40
0.00738542
 41
0.00738542
  0
VERTEX
  8
0
 10
2.45611
 20
7.86143
 30
0.0
 40
0.00738542
 41
0.00738542
  0
VERTEX
  8
0
 10
2.45975
 20
7.87907
 30
0.0
 40
0.00738542
 41
0.00738542
  0
VERTEX
  8
0
 10
2.47114
 20
7.91206
 30
0.0
 40
0.00738542
 41
0.00738542
  0
VERTEX
  8
0
 10
2.47786
 20
7.92854
 30
0.0
 40
0.00738542
 41
0.00738542
  0
VERTEX
  8
0
 10
2.48562
 20
7.94499
 30
0.0
 40
0.00738542
 41
0.00738542
  0
VERTEX
  8
0
 10
2.49442
 20
7.96039
 30
0.0
 40
0.00738542
 41
0.00738542
  0
VERTEX
  8
0
 10
2.50424
 20
7.97472
 30
0.0
 40
0.00738542
 41
0.00738542
  0
VERTEX
  8
0
 10
2.51503
 20
7.98899
 30
0.0
 40
0.00738542
 41
0.00738542
  0
VERTEX
  8
0
 10
2.52588
 20
8.00325
 30
0.0
 40
0.00738542
 41
0.00738542
  0
VERTEX
  8
0
 10
2.53776
 20
8.01644
 30
0.0
 40
0.00738542
 41
0.00738542
  0
VERTEX
  8
0
 10
2.55063
 20
8.0286
 30
0.0
 40
0.00738542
 41
0.00738542
  0
VERTEX
  8
0
 10
2.56342
 20
8.03965
 30
0.0
 40
0.00738542
 41
0.00738542
  0
VERTEX
  8
0
 10
2.57835
 20
8.05072
 30
0.0
 40
0.00738542
 41
0.00738542
  0
VERTEX
  8
0
 10
2.59218
 20
8.06071
 30
0.0
 40
0.00738542
 41
0.00738542
  0
VERTEX
  8
0
 10
2.60801
 20
8.06967
 30
0.0
 40
0.00738542
 41
0.00738542
  0
VERTEX
  8
0
 10
2.62289
 20
8.07856
 30
0.0
 40
0.00738542
 41
0.00738542
  0
VERTEX
  8
0
 10
2.63975
 20
8.08539
 30
0.0
 40
0.00738542
 41
0.00738542
  0
VERTEX
  8
0
 10
2.6556
 20
8.09224
 30
0.0
 40
0.00738542
 41
0.00738542
  0
VERTEX
  8
0
 10
2.67242
 20
8.09694
 30
0.0
 40
0.00738542
 41
0.00738542
  0
VERTEX
  8
0
 10
2.69026
 20
8.10161
 30
0.0
 40
0.00738542
 41
0.00738542
  0
VERTEX
  8
0
 10
2.70703
 20
8.10531
 30
0.0
 40
0.00738542
 41
0.00738542
  0
VERTEX
  8
0
 10
2.72483
 20
8.10792
 30
0.0
 40
0.00738542
 41
0.00738542
  0
VERTEX
  8
0
 10
2.74257
 20
8.10949
 30
0.0
 40
0.00738542
 41
0.00738542
  0
VERTEX
  8
0
 10
2.76031
 20
8.11003
 30
0.0
 40
0.00738542
 41
0.00738542
  0
VERTEX
  8
0
 10
2.778
 20
8.10949
 30
0.0
 40
0.00738542
 41
0.00738542
  0
VERTEX
  8
0
 10
2.79568
 20
8.10796
 30
0.0
 40
0.00738542
 41
0.00738542
  0
VERTEX
  8
0
 10
2.81332
 20
8.10536
 30
0.0
 40
0.00738542
 41
0.00738542
  0
VERTEX
  8
0
 10
2.82992
 20
8.10172
 30
0.0
 40
0.00738542
 41
0.00738542
  0
VERTEX
  8
0
 10
2.8475
 20
8.09706
 30
0.0
 40
0.00738542
 41
0.00738542
  0
VERTEX
  8
0
 10
2.88049
 20
8.08567
 30
0.0
 40
0.00738542
 41
0.00738542
  0
VERTEX
  8
0
 10
2.89697
 20
8.0779
 30
0.0
 40
0.00738542
 41
0.00738542
  0
VERTEX
  8
0
 10
2.91237
 20
8.07021
 30
0.0
 40
0.00738542
 41
0.00738542
  0
VERTEX
  8
0
 10
2.92768
 20
8.06039
 30
0.0
 40
0.00738542
 41
0.00738542
  0
VERTEX
  8
0
 10
2.942
 20
8.05057
 30
0.0
 40
0.00738542
 41
0.00738542
  0
VERTEX
  8
0
 10
2.95628
 20
8.03971
 30
0.0
 40
0.00738542
 41
0.00738542
  0
VERTEX
  8
0
 10
2.96946
 20
8.02789
 30
0.0
 40
0.00738542
 41
0.00738542
  0
VERTEX
  8
0
 10
2.98269
 20
8.01606
 30
0.0
 40
0.00738542
 41
0.00738542
  0
VERTEX
  8
0
 10
2.99485
 20
8.00319
 30
0.0
 40
0.00738542
 41
0.00738542
  0
VERTEX
  8
0
 10
3.00592
 20
7.98931
 30
0.0
 40
0.00738542
 41
0.00738542
  0
VERTEX
  8
0
 10
3.02588
 20
7.95958
 30
0.0
 40
0.00738542
 41
0.00738542
  0
VERTEX
  8
0
 10
3.03483
 20
7.94472
 30
0.0
 40
0.00738542
 41
0.00738542
  0
VERTEX
  8
0
 10
3.04167
 20
7.92888
 30
0.0
 40
0.00738542
 41
0.00738542
  0
VERTEX
  8
0
 10
3.04947
 20
7.91194
 30
0.0
 40
0.00738542
 41
0.00738542
  0
VERTEX
  8
0
 10
3.05528
 20
7.89512
 30
0.0
 40
0.00738542
 41
0.00738542
  0
VERTEX
  8
0
 10
3.06
 20
7.87831
 30
0.0
 40
0.00738542
 41
0.00738542
  0
VERTEX
  8
0
 10
3.06369
 20
7.86154
 30
0.0
 40
0.00738542
 41
0.00738542
  0
VERTEX
  8
0
 10
3.06733
 20
7.84375
 30
0.0
 40
0.00738542
 41
0.00738542
  0
VERTEX
  8
0
 10
3.0689
 20
7.82596
 30
0.0
 40
0.00738542
 41
0.00738542
  0
VERTEX
  8
0
 10
3.07047
 20
7.80821
 30
0.0
 40
0.00738542
 41
0.00738542
  0
VERTEX
  8
0
 10
3.06993
 20
7.79047
 30
0.0
 40
0.00738542
 41
0.00738542
  0
VERTEX
  8
0
 10
3.06944
 20
7.77279
 30
0.0
 40
0.00738542
 41
0.00738542
  0
VERTEX
  8
0
 10
3.06683
 20
7.75515
 30
0.0
 40
0.00738542
 41
0.00738542
  0
VERTEX
  8
0
 10
3.06429
 20
7.73856
 30
0.0
 40
0.00738542
 41
0.00738542
  0
VERTEX
  8
0
 10
3.05957
 20
7.72097
 30
0.0
 40
0.00738542
 41
0.00738542
  0
VERTEX
  8
0
 10
3.05496
 20
7.70443
 30
0.0
 40
0.00738542
 41
0.00738542
  0
VERTEX
  8
0
 10
3.04921
 20
7.6869
 30
0.0
 40
0.00738542
 41
0.00738542
  0
VERTEX
  8
0
 10
3.04249
 20
7.67042
 30
0.0
 40
0.00738542
 41
0.00738542
  0
VERTEX
  8
0
 10
3.03369
 20
7.65506
 30
0.0
 40
0.00738542
 41
0.00738542
  0
VERTEX
  8
0
 10
3.02599
 20
7.63965
 30
0.0
 40
0.00738542
 41
0.00738542
  0
VERTEX
  8
0
 10
3.01617
 20
7.62429
 30
0.0
 40
0.00738542
 41
0.00738542
  0
VERTEX
  8
0
 10
3.00532
 20
7.61003
 30
0.0
 40
0.00738542
 41
0.00738542
  0
VERTEX
  8
0
 10
2.99451
 20
7.59674
 30
0.0
 40
0.00738542
 41
0.00738542
  0
VERTEX
  8
0
 10
2.98269
 20
7.58356
 30
0.0
 40
0.00738542
 41
0.00738542
  0
VERTEX
  8
0
 10
2.96983
 20
7.5714
 30
0.0
 40
0.00738542
 41
0.00738542
  0
VERTEX
  8
0
 10
2.95589
 20
7.55931
 30
0.0
 40
0.00738542
 41
0.00738542
  0
VERTEX
  8
0
 10
2.94206
 20
7.54932
 30
0.0
 40
0.00738542
 41
0.00738542
  0
VERTEX
  8
0
 10
2.92719
 20
7.53933
 30
0.0
 40
0.00738542
 41
0.00738542
  0
VERTEX
  8
0
 10
2.91233
 20
7.52929
 30
0.0
 40
0.00738542
 41
0.00738542
  0
VERTEX
  8
0
 10
2.89649
 20
7.52143
 30
0.0
 40
0.00738542
 41
0.00738542
  0
VERTEX
  8
0
 10
2.88064
 20
7.5146
 30
0.0
 40
0.00738542
 41
0.00738542
  0
VERTEX
  8
0
 10
2.86376
 20
7.50781
 30
0.0
 40
0.00738542
 41
0.00738542
  0
VERTEX
  8
0
 10
2.8469
 20
7.50206
 30
0.0
 40
0.00738542
 41
0.00738542
  0
VERTEX
  8
0
 10
2.83014
 20
7.49837
 30
0.0
 40
0.00738542
 41
0.00738542
  0
VERTEX
  8
0
 10
2.81233
 20
7.49468
 30
0.0
 40
0.00738542
 41
0.00738542
  0
VERTEX
  8
0
 10
2.79557
 20
7.49208
 30
0.0
 40
0.00738542
 41
0.00738542
  0
VERTEX
  8
0
 10
2.77783
 20
7.4905
 30
0.0
 40
0.00738542
 41
0.00738542
  0
VERTEX
  8
0
 10
2.7601
 20
7.48996
 30
0.0
 40
0.00738542
 41
0.00738542
  0
VERTEX
  8
0
 10
2.74235
 20
7.49044
 30
0.0
 40
0.00738542
 41
0.00738542
  0
VERTEX
  8
0
 10
2.72472
 20
7.49203
 30
0.0
 40
0.00738542
 41
0.00738542
  0
VERTEX
  8
0
 10
2.70708
 20
7.49462
 30
0.0
 40
0.00738542
 41
0.00738542
  0
VERTEX
  8
0
 10
2.68946
 20
7.49826
 30
0.0
 40
0.00738542
 41
0.00738542
  0
VERTEX
  8
0
 10
2.6729
 20
7.50293
 30
0.0
 40
0.00738542
 41
0.00738542
  0
VERTEX
  8
0
 10
2.65533
 20
7.5076
 30
0.0
 40
0.00738542
 41
0.00738542
  0
VERTEX
  8
0
 10
2.63889
 20
7.51432
 30
0.0
 40
0.00738542
 41
0.00738542
  0
VERTEX
  8
0
 10
2.62349
 20
7.52208
 30
0.0
 40
0.00738542
 41
0.00738542
  0
VERTEX
  8
0
 10
2.60704
 20
7.52983
 30
0.0
 40
0.00738542
 41
0.00738542
  0
VERTEX
  8
0
 10
2.59267
 20
7.53857
 30
0.0
 40
0.00738542
 41
0.00738542
  0
VERTEX
  8
0
 10
2.57736
 20
7.54943
 30
0.0
 40
0.00738542
 41
0.00738542
  0
VERTEX
  8
0
 10
2.56413
 20
7.56028
 30
0.0
 40
0.00738542
 41
0.00738542
  0
VERTEX
  8
0
 10
2.54986
 20
7.57107
 30
0.0
 40
0.00738542
 41
0.00738542
  0
VERTEX
  8
0
 10
2.53771
 20
7.58393
 30
0.0
 40
0.00738542
 41
0.00738542
  0
VERTEX
  8
0
 10
2.52561
 20
7.59679
 30
0.0
 40
0.00738542
 41
0.00738542
  0
VERTEX
  8
0
 10
2.51449
 20
7.61068
 30
0.0
 40
0.00738542
 41
0.00738542
  0
VERTEX
  8
0
 10
2.5045
 20
7.62451
 30
0.0
 40
0.00738542
 41
0.00738542
  0
VERTEX
  8
0
 10
2.49451
 20
7.63937
 30
0.0
 40
0.00738542
 41
0.00738542
  0
VERTEX
  8
0
 10
2.48557
 20
7.65528
 30
0.0
 40
0.00738542
 41
0.00738542
  0
VERTEX
  8
0
 10
2.47771
 20
7.67111
 30
0.0
 40
0.00738542
 41
0.00738542
  0
VERTEX
  8
0
 10
2.47086
 20
7.68696
 30
0.0
 40
0.00738542
 41
0.00738542
  0
VERTEX
  8
0
 10
2.46511
 20
7.70378
 30
0.0
 40
0.00738542
 41
0.00738542
  0
VERTEX
  8
0
 10
2.46044
 20
7.72168
 30
0.0
 40
0.00738542
 41
0.00738542
  0
VERTEX
  8
0
 10
2.45568
 20
7.73844
 30
0.0
 40
0.00738542
 41
0.00738542
  0
VERTEX
  8
0
 10
2.45307
 20
7.75624
 30
0.0
 40
0.00738542
 41
0.00738542
  0
VERTEX
  8
0
 10
2.4515
 20
7.77294
 30
0.0
 40
0.00738542
 41
0.00738542
  0
VERTEX
  8
0
 10
2.44993
 20
7.79075
 30
0.0
 40
0.00738542
 41
0.00738542
  0
VERTEX
  8
0
 10
2.45042
 20
7.80849
 30
0.0
 40
0.00738542
 41
0.00738542
  0
SEQEND
 8
0
  0
POLYLINE
  8
0
 62
     0
 66
     1
 10
0
 20
0
 30
0.0
 70
     1
 40
0.53175
 41
0.53175
  0
VERTEX
  8
0
 10
2.2411
 20
7.81456
 30
0.0
 40
0.00738542
 41
0.00738542
  0
VERTEX
  8
0
 10
2.24154
 20
7.79161
 30
0.0
 40
0.00738542
 41
0.00738542
  0
VERTEX
  8
0
 10
2.24186
 20
7.76867
 30
0.0
 40
0.00738542
 41
0.00738542
  0
VERTEX
  8
0
 10
2.24436
 20
7.74567
 30
0.0
 40
0.00738542
 41
0.00738542
  0
VERTEX
  8
0
 10
2.24681
 20
7.72374
 30
0.0
 40
0.00738542
 41
0.00738542
  0
VERTEX
  8
0
 10
2.25032
 20
7.70068
 30
0.0
 40
0.00738542
 41
0.00738542
  0
VERTEX
  8
0
 10
2.25592
 20
7.67865
 30
0.0
 40
0.00738542
 41
0.00738542
  0
VERTEX
  8
0
 10
2.26156
 20
7.65662
 30
0.0
 40
0.00738542
 41
0.00738542
  0
VERTEX
  8
0
 10
2.26822
 20
7.63456
 30
0.0
 40
0.00738542
 41
0.00738542
  0
VERTEX
  8
0
 10
2.27588
 20
7.61242
 30
0.0
 40
0.00738542
 41
0.00738542
  0
VERTEX
  8
0
 10
2.28467
 20
7.59131
 30
0.0
 40
0.00738542
 41
0.00738542
  0
VERTEX
  8
0
 10
2.29449
 20
7.57021
 30
0.0
 40
0.00738542
 41
0.00738542
  0
VERTEX
  8
0
 10
2.30533
 20
7.55007
 30
0.0
 40
0.00738542
 41
0.00738542
  0
VERTEX
  8
0
 10
2.31625
 20
7.53
 30
0.0
 40
0.00738542
 41
0.00738542
  0
VERTEX
  8
0
 10
2.32921
 20
7.51085
 30
0.0
 40
0.00738542
 41
0.00738542
  0
VERTEX
  8
0
 10
2.34224
 20
7.49169
 30
0.0
 40
0.00738542
 41
0.00738542
  0
VERTEX
  8
0
 10
2.35628
 20
7.47358
 30
0.0
 40
0.00738542
 41
0.00738542
  0
VERTEX
  8
0
 10
2.37142
 20
7.45643
 30
0.0
 40
0.00738542
 41
0.00738542
  0
VERTEX
  8
0
 10
2.38656
 20
7.43935
 30
0.0
 40
0.00738542
 41
0.00738542
  0
VERTEX
  8
0
 10
2.40278
 20
7.42324
 30
0.0
 40
0.00738542
 41
0.00738542
  0
VERTEX
  8
0
 10
2.42003
 20
7.40815
 30
0.0
 40
0.00738542
 41
0.00738542
  0
VERTEX
  8
0
 10
2.43733
 20
7.39307
 30
0.0
 40
0.00738542
 41
0.00738542
  0
VERTEX
  8
0
 10
2.45568
 20
7.37896
 30
0.0
 40
0.00738542
 41
0.00738542
  0
VERTEX
  8
0
 10
2.4751
 20
7.36594
 30
0.0
 40
0.00738542
 41
0.00738542
  0
VERTEX
  8
0
 10
2.49451
 20
7.35389
 30
0.0
 40
0.00738542
 41
0.00738542
  0
VERTEX
  8
0
 10
2.514
 20
7.34289
 30
0.0
 40
0.00738542
 41
0.00738542
  0
VERTEX
  8
0
 10
2.53456
 20
7.33296
 30
0.0
 40
0.00738542
 41
0.00738542
  0
VERTEX
  8
0
 10
2.55512
 20
7.32297
 30
0.0
 40
0.00738542
 41
0.00738542
  0
VERTEX
  8
0
 10
2.57676
 20
7.31396
 30
0.0
 40
0.00738542
 41
0.00738542
  0
VERTEX
  8
0
 10
2.59842
 20
7.30712
 30
0.0
 40
0.00738542
 41
0.00738542
  0
VERTEX
  8
0
 10
2.62011
 20
7.30024
 30
0.0
 40
0.00738542
 41
0.00738542
  0
VERTEX
  8
0
 10
2.64285
 20
7.29438
 30
0.0
 40
0.00738542
 41
0.00738542
  0
VERTEX
  8
0
 10
2.66569
 20
7.28956
 30
0.0
 40
0.00738542
 41
0.00738542
  0
VERTEX
  8
0
 10
2.68744
 20
7.28581
 30
0.0
 40
0.00738542
 41
0.00738542
  0
VERTEX
  8
0
 10
2.71029
 20
7.28304
 30
0.0
 40
0.00738542
 41
0.00738542
  0
VERTEX
  8
0
 10
2.73318
 20
7.28131
 30
0.0
 40
0.00738542
 41
0.00738542
  0
VERTEX
  8
0
 10
2.75608
 20
7.28065
 30
0.0
 40
0.00738542
 41
0.00738542
  0
VERTEX
  8
0
 10
2.77903
 20
7.28103
 30
0.0
 40
0.00738542
 41
0.00738542
  0
VERTEX
  8
0
 10
2.80197
 20
7.28244
 30
0.0
 40
0.00738542
 41
0.00738542
  0
VERTEX
  8
0
 10
2.82497
 20
7.28489
 30
0.0
 40
0.00738542
 41
0.00738542
  0
VERTEX
  8
0
 10
2.84799
 20
7.28842
 30
0.0
 40
0.00738542
 41
0.00738542
  0
VERTEX
  8
0
 10
2.87001
 20
7.29297
 30
0.0
 40
0.00738542
 41
0.00738542
  0
VERTEX
  8
0
 10
2.89312
 20
7.29856
 30
0.0
 40
0.00738542
 41
0.00738542
  0
VERTEX
  8
0
 10
2.91515
 20
7.30419
 30
0.0
 40
0.00738542
 41
0.00738542
  0
VERTEX
  8
0
 10
2.93619
 20
7.3119
 30
0.0
 40
0.00738542
 41
0.00738542
  0
VERTEX
  8
0
 10
2.95833
 20
7.32064
 30
0.0
 40
0.00738542
 41
0.00738542
  0
VERTEX
  8
0
 10
2.97944
 20
7.32943
 30
0.0
 40
0.00738542
 41
0.00738542
  0
VERTEX
  8
0
 10
2.99951
 20
7.33925
 30
0.0
 40
0.00738542
 41
0.00738542
  0
VERTEX
  8
0
 10
3.01964
 20
7.35015
 30
0.0
 40
0.00738542
 41
0.00738542
  0
VERTEX
  8
0
 10
3.03976
 20
7.36203
 30
0.0
 40
0.00738542
 41
0.00738542
  0
VERTEX
  8
0
 10
3.05892
 20
7.37506
 30
0.0
 40
0.00738542
 41
0.00738542
  0
VERTEX
  8
0
 10
3.09517
 20
7.40315
 30
0.0
 40
0.00738542
 41
0.00738542
  0
VERTEX
  8
0
 10
3.11231
 20
7.41829
 30
0.0
 40
0.00738542
 41
0.00738542
  0
VERTEX
  8
0
 10
3.12842
 20
7.43451
 30
0.0
 40
0.00738542
 41
0.00738542
  0
VERTEX
  8
0
 10
3.14447
 20
7.45074
 30
0.0
 40
0.00738542
 41
0.00738542
  0
VERTEX
  8
0
 10
3.15961
 20
7.46799
 30
0.0
 40
0.00738542
 41
0.00738542
  0
VERTEX
  8
0
 10
3.17367
 20
7.48639
 30
0.0
 40
0.00738542
 41
0.00738542
  0
VERTEX
  8
0
 10
3.18674
 20
7.50472
 30
0.0
 40
0.00738542
 41
0.00738542
  0
VERTEX
  8
0
 10
3.19976
 20
7.52414
 30
0.0
 40
0.00738542
 41
0.00738542
  0
VERTEX
  8
0
 10
3.21181
 20
7.54362
 30
0.0
 40
0.00738542
 41
0.00738542
  0
VERTEX
  8
0
 10
3.22282
 20
7.56413
 30
0.0
 40
0.00738542
 41
0.00738542
  0
VERTEX
  8
0
 10
3.23281
 20
7.58469
 30
0.0
 40
0.00738542
 41
0.00738542
  0
VERTEX
  8
0
 10
3.24175
 20
7.60633
 30
0.0
 40
0.00738542
 41
0.00738542
  0
VERTEX
  8
0
 10
3.24968
 20
7.62799
 30
0.0
 40
0.00738542
 41
0.00738542
  0
VERTEX
  8
0
 10
3.25657
 20
7.64963
 30
0.0
 40
0.00738542
 41
0.00738542
  0
VERTEX
  8
0
 10
3.26243
 20
7.67139
 30
0.0
 40
0.00738542
 41
0.00738542
  0
VERTEX
  8
0
 10
3.26828
 20
7.69412
 30
0.0
 40
0.00738542
 41
0.00738542
  0
VERTEX
  8
0
 10
3.27203
 20
7.71593
 30
0.0
 40
0.00738542
 41
0.00738542
  0
VERTEX
  8
0
 10
3.27582
 20
7.73872
 30
0.0
 40
0.00738542
 41
0.00738542
  0
VERTEX
  8
0
 10
3.2775
 20
7.76161
 30
0.0
 40
0.00738542
 41
0.00738542
  0
VERTEX
  8
0
 10
3.27924
 20
7.78444
 30
0.0
 40
0.00738542
 41
0.00738542
  0
VERTEX
  8
0
 10
3.27849
 20
7.83035
 30
0.0
 40
0.00738542
 41
0.00738542
  0
VERTEX
  8
0
 10
3.27604
 20
7.85335
 30
0.0
 40
0.00738542
 41
0.00738542
  0
VERTEX
  8
0
 10
3.27354
 20
7.87631
 30
0.0
 40
0.00738542
 41
0.00738542
  0
VERTEX
  8
0
 10
3.26904
 20
7.89936
 30
0.0
 40
0.00738542
 41
0.00738542
  0
VERTEX
  8
0
 10
3.26443
 20
7.92139
 30
0.0
 40
0.00738542
 41
0.00738542
  0
VERTEX
  8
0
 10
3.25885
 20
7.94347
 30
0.0
 40
0.00738542
 41
0.00738542
  0
VERTEX
  8
0
 10
3.25217
 20
7.9655
 30
0.0
 40
0.00738542
 41
0.00738542
  0
VERTEX
  8
0
 10
3.24447
 20
7.98763
 30
0.0
 40
0.00738542
 41
0.00738542
  0
VERTEX
  8
0
 10
3.23574
 20
8.00874
 30
0.0
 40
0.00738542
 41
0.00738542
  0
VERTEX
  8
0
 10
3.22592
 20
8.02881
 30
0.0
 40
0.00738542
 41
0.00738542
  0
VERTEX
  8
0
 10
3.215
 20
8.04997
 30
0.0
 40
0.00738542
 41
0.00738542
  0
VERTEX
  8
0
 10
3.20307
 20
8.06907
 30
0.0
 40
0.00738542
 41
0.00738542
  0
VERTEX
  8
0
 10
3.19119
 20
8.08919
 30
0.0
 40
0.00738542
 41
0.00738542
  0
VERTEX
  8
0
 10
3.17817
 20
8.10732
 30
0.0
 40
0.00738542
 41
0.00738542
  0
VERTEX
  8
0
 10
3.16406
 20
8.12543
 30
0.0
 40
0.00738542
 41
0.00738542
  0
VERTEX
  8
0
 10
3.14899
 20
8.14361
 30
0.0
 40
0.00738542
 41
0.00738542
  0
VERTEX
  8
0
 10
3.13385
 20
8.16069
 30
0.0
 40
0.00738542
 41
0.00738542
  0
VERTEX
  8
0
 10
3.11762
 20
8.17681
 30
0.0
 40
0.00738542
 41
0.00738542
  0
VERTEX
  8
0
 10
3.10038
 20
8.19189
 30
0.0
 40
0.00738542
 41
0.00738542
  0
VERTEX
  8
0
 10
3.08306
 20
8.20594
 30
0.0
 40
0.00738542
 41
0.00738542
  0
VERTEX
  8
0
 10
3.06472
 20
8.22006
 30
0.0
 40
0.00738542
 41
0.00738542
  0
VERTEX
  8
0
 10
3.04525
 20
8.23312
 30
0.0
 40
0.00738542
 41
0.00738542
  0
VERTEX
  8
0
 10
3.02582
 20
8.24511
 30
0.0
 40
0.00738542
 41
0.00738542
  0
VERTEX
  8
0
 10
3.0064
 20
8.25717
 30
0.0
 40
0.00738542
 41
0.00738542
  0
VERTEX
  8
0
 10
2.98583
 20
8.26714
 30
0.0
 40
0.00738542
 41
0.00738542
  0
VERTEX
  8
0
 10
2.96425
 20
8.27713
 30
0.0
 40
0.00738542
 41
0.00738542
  0
VERTEX
  8
0
 10
2.94362
 20
8.28504
 30
0.0
 40
0.00738542
 41
0.00738542
  0
VERTEX
  8
0
 10
2.92199
 20
8.29297
 30
0.0
 40
0.00738542
 41
0.00738542
  0
VERTEX
  8
0
 10
2.89925
 20
8.29986
 30
0.0
 40
0.00738542
 41
0.00738542
  0
VERTEX
  8
0
 10
2.8775
 20
8.30572
 30
0.0
 40
0.00738542
 41
0.00738542
  0
VERTEX
  8
0
 10
2.85471
 20
8.31054
 30
0.0
 40
0.00738542
 41
0.00738542
  0
VERTEX
  8
0
 10
2.83192
 20
8.31435
 30
0.0
 40
0.00738542
 41
0.00738542
  0
VERTEX
  8
0
 10
2.80903
 20
8.31603
 30
0.0
 40
0.00738542
 41
0.00738542
  0
VERTEX
  8
0
 10
2.78618
 20
8.31771
 30
0.0
 40
0.00738542
 41
0.00738542
  0
VERTEX
  8
0
 10
2.76329
 20
8.31836
 30
0.0
 40
0.00738542
 41
0.00738542
  0
VERTEX
  8
0
 10
2.74035
 20
8.31803
 30
0.0
 40
0.00738542
 41
0.00738542
  0
VERTEX
  8
0
 10
2.71739
 20
8.31765
 30
0.0
 40
0.00738542
 41
0.00738542
  0
VERTEX
  8
0
 10
2.69542
 20
8.31515
 30
0.0
 40
0.00738542
 41
0.00738542
  0
VERTEX
  8
0
 10
2.67242
 20
8.31164
 30
0.0
 40
0.00738542
 41
0.00738542
  0
VERTEX
  8
0
 10
2.64936
 20
8.30712
 30
0.0
 40
0.00738542
 41
0.00738542
  0
VERTEX
  8
0
 10
2.62733
 20
8.30149
 30
0.0
 40
0.00738542
 41
0.00738542
  0
VERTEX
  8
0
 10
2.60525
 20
8.29486
 30
0.0
 40
0.00738542
 41
0.00738542
  0
VERTEX
  8
0
 10
2.58317
 20
8.28819
 30
0.0
 40
0.00738542
 41
0.00738542
  0
VERTEX
  8
0
 10
2.56207
 20
8.2794
 30
0.0
 40
0.00738542
 41
0.00738542
  0
VERTEX
  8
0
 10
2.54096
 20
8.27067
 30
0.0
 40
0.00738542
 41
0.00738542
  0
VERTEX
  8
0
 10
2.50071
 20
8.24886
 30
0.0
 40
0.00738542
 41
0.00738542
  0
VERTEX
  8
0
 10
2.48058
 20
8.23697
 30
0.0
 40
0.00738542
 41
0.00738542
  0
VERTEX
  8
0
 10
2.46143
 20
8.22396
 30
0.0
 40
0.00738542
 41
0.00738542
  0
VERTEX
  8
0
 10
2.44331
 20
8.21094
 30
0.0
 40
0.00738542
 41
0.00738542
  0
VERTEX
  8
0
 10
2.42518
 20
8.19689
 30
0.0
 40
0.00738542
 41
0.00738542
  0
VERTEX
  8
0
 10
2.4081
 20
8.18175
 30
0.0
 40
0.00738542
 41
0.00738542
  0
VERTEX
  8
0
 10
2.39199
 20
8.16553
 30
0.0
 40
0.00738542
 41
0.00738542
  0
VERTEX
  8
0
 10
2.37586
 20
8.14828
 30
0.0
 40
0.00738542
 41
0.00738542
  0
VERTEX
  8
0
 10
2.36079
 20
8.13103
 30
0.0
 40
0.00738542
 41
0.00738542
  0
VERTEX
  8
0
 10
2.34674
 20
8.11372
 30
0.0
 40
0.00738542
 41
0.00738542
  0
VERTEX
  8
0
 10
2.33263
 20
8.09429
 30
0.0
 40
0.00738542
 41
0.00738542
  0
VERTEX
  8
0
 10
2.32064
 20
8.0759
 30
0.0
 40
0.00738542
 41
0.00738542
  0
VERTEX
  8
0
 10
2.30854
 20
8.05539
 30
0.0
 40
0.00738542
 41
0.00738542
  0
VERTEX
  8
0
 10
2.29758
 20
8.03592
 30
0.0
 40
0.00738542
 41
0.00738542
  0
VERTEX
  8
0
 10
2.2876
 20
8.01535
 30
0.0
 40
0.00738542
 41
0.00738542
  0
VERTEX
  8
0
 10
2.27864
 20
7.99376
 30
0.0
 40
0.00738542
 41
0.00738542
  0
VERTEX
  8
0
 10
2.27072
 20
7.97211
 30
0.0
 40
0.00738542
 41
0.00738542
  0
VERTEX
  8
0
 10
2.25694
 20
7.92871
 30
0.0
 40
0.00738542
 41
0.00738542
  0
VERTEX
  8
0
 10
2.25211
 20
7.90593
 30
0.0
 40
0.00738542
 41
0.00738542
  0
VERTEX
  8
0
 10
2.24832
 20
7.88314
 30
0.0
 40
0.00738542
 41
0.00738542
  0
VERTEX
  8
0
 10
2.24457
 20
7.86029
 30
0.0
 40
0.00738542
 41
0.00738542
  0
VERTEX
  8
0
 10
2.24283
 20
7.83746
 30
0.0
 40
0.00738542
 41
0.00738542
  0
VERTEX
  8
0
 10
2.2411
 20
7.81456
 30
0.0
 40
0.00738542
 41
0.00738542
  0
SEQEND
 8
0
  0
POLYLINE
  8
0
 62
     0
 66
     1
 10
0
 20
0
 30
0.0
 40
0.53175
 41
0.53175
  0
VERTEX
  8
0
 10
3.95361
 20
7.42389
 30
0.0
 40
0.00738542
 41
0.00738542
  0
VERTEX
  8
0
 10
3.94114
 20
7.42182
 30
0.0
 40
0.00738542
 41
0.00738542
  0
VERTEX
  8
0
 10
3.93485
 20
7.42074
 30
0.0
 40
0.00738542
 41
0.00738542
  0
VERTEX
  8
0
 10
3.9286
 20
7.41868
 30
0.0
 40
0.00738542
 41
0.00738542
  0
VERTEX
  8
0
 10
3.92236
 20
7.41553
 30
0.0
 40
0.00738542
 41
0.00738542
  0
VERTEX
  8
0
 10
3.91607
 20
7.41347
 30
0.0
 40
0.00738542
 41
0.00738542
  0
VERTEX
  8
0
 10
3.91086
 20
7.40929
 30
0.0
 40
0.00738542
 41
0.00738542
  0
VERTEX
  8
0
 10
3.90462
 20
7.40619
 30
0.0
 40
0.00738542
 41
0.00738542
  0
VERTEX
  8
0
 10
3.89942
 20
7.40201
 30
0.0
 40
0.00738542
 41
0.00738542
  0
VERTEX
  8
0
 10
3.89524
 20
7.39785
 30
0.0
 40
0.00738542
 41
0.00738542
  0
VERTEX
  8
0
 10
3.89111
 20
7.39264
 30
0.0
 40
0.00738542
 41
0.00738542
  0
VERTEX
  8
0
 10
3.88276
 20
7.38222
 30
0.0
 40
0.00738542
 41
0.00738542
  0
VERTEX
  8
0
 10
3.87967
 20
7.37597
 30
0.0
 40
0.00738542
 41
0.00738542
  0
VERTEX
  8
0
 10
3.87651
 20
7.37076
 30
0.0
 40
0.00738542
 41
0.00738542
  0
VERTEX
  8
0
 10
3.87446
 20
7.36453
 30
0.0
 40
0.00738542
 41
0.00738542
  0
VERTEX
  8
0
 10
3.87235
 20
7.35824
 30
0.0
 40
0.00738542
 41
0.00738542
  0
VERTEX
  8
0
 10
3.87131
 20
7.35097
 30
0.0
 40
0.00738542
 41
0.00738542
  0
VERTEX
  8
0
 10
3.87028
 20
7.34472
 30
0.0
 40
0.00738542
 41
0.00738542
  0
VERTEX
  8
0
 10
3.86919
 20
7.33843
 30
0.0
 40
0.00738542
 41
0.00738542
  0
VERTEX
  8
0
 10
3.86919
 20
7.33219
 30
0.0
 40
0.00738542
 41
0.00738542
  0
VERTEX
  8
0
 10
3.87028
 20
7.32493
 30
0.0
 40
0.00738542
 41
0.00738542
  0
VERTEX
  8
0
 10
3.87131
 20
7.31868
 30
0.0
 40
0.00738542
 41
0.00738542
  0
VERTEX
  8
0
 10
3.87235
 20
7.31239
 30
0.0
 40
0.00738542
 41
0.00738542
  0
VERTEX
  8
0
 10
3.87446
 20
7.30615
 30
0.0
 40
0.00738542
 41
0.00738542
  0
VERTEX
  8
0
 10
3.87651
 20
7.29992
 30
0.0
 40
0.00738542
 41
0.00738542
  0
VERTEX
  8
0
 10
3.87967
 20
7.29362
 30
0.0
 40
0.00738542
 41
0.00738542
  0
VERTEX
  8
0
 10
3.88276
 20
7.28842
 30
0.0
 40
0.00738542
 41
0.00738542
  0
VERTEX
  8
0
 10
3.88693
 20
7.28217
 30
0.0
 40
0.00738542
 41
0.00738542
  0
VERTEX
  8
0
 10
3.89111
 20
7.278
 30
0.0
 40
0.00738542
 41
0.00738542
  0
VERTEX
  8
0
 10
3.89524
 20
7.27279
 30
0.0
 40
0.00738542
 41
0.00738542
  0
VERTEX
  8
0
 10
3.89942
 20
7.26867
 30
0.0
 40
0.00738542
 41
0.00738542
  0
VERTEX
  8
0
 10
3.90462
 20
7.26449
 30
0.0
 40
0.00738542
 41
0.00738542
  0
VERTEX
  8
0
 10
3.91086
 20
7.26031
 30
0.0
 40
0.00738542
 41
0.00738542
  0
VERTEX
  8
0
 10
3.91607
 20
7.25722
 30
0.0
 40
0.00738542
 41
0.00738542
  0
VERTEX
  8
0
 10
3.92236
 20
7.25407
 30
0.0
 40
0.00738542
 41
0.00738542
  0
VERTEX
  8
0
 10
3.9286
 20
7.25201
 30
0.0
 40
0.00738542
 41
0.00738542
  0
VERTEX
  8
0
 10
3.93485
 20
7.24989
 30
0.0
 40
0.00738542
 41
0.00738542
  0
VERTEX
  8
0
 10
3.94114
 20
7.24783
 30
0.0
 40
0.00738542
 41
0.00738542
  0
VERTEX
  8
0
 10
3.94738
 20
7.24681
 30
0.0
 40
0.00738542
 41
0.00738542
  0
VERTEX
  8
0
 10
3.95361
 20
7.24681
 30
0.0
 40
0.00738542
 41
0.00738542
  0
SEQEND
 8
0
  0
POLYLINE
  8
0
 62
     0
 66
     1
 10
0
 20
0
 30
0.0
 40
0.53175
 41
0.53175
  0
VERTEX
  8
0
 10
3.95361
 20
7.24681
 30
0.0
 40
0.00738542
 41
0.00738542
  0
VERTEX
  8
0
 10
4.42551
 20
7.22493
 30
0.0
 40
0.00738542
 41
0.00738542
  0
SEQEND
 8
0
  0
POLYLINE
  8
0
 62
     0
 66
     1
 10
0
 20
0
 30
0.0
 40
0.53175
 41
0.53175
  0
VERTEX
  8
0
 10
4.42551
 20
7.22493
 30
0.0
 40
0.00738542
 41
0.00738542
  0
VERTEX
  8
0
 10
4.43278
 20
7.2239
 30
0.0
 40
0.00738542
 41
0.00738542
  0
VERTEX
  8
0
 10
4.44011
 20
7.22493
 30
0.0
 40
0.00738542
 41
0.00738542
  0
VERTEX
  8
0
 10
4.44738
 20
7.22597
 30
0.0
 40
0.00738542
 41
0.00738542
  0
VERTEX
  8
0
 10
4.45464
 20
7.22706
 30
0.0
 40
0.00738542
 41
0.00738542
  0
VERTEX
  8
0
 10
4.46197
 20
7.22911
 30
0.0
 40
0.00738542
 41
0.00738542
  0
VERTEX
  8
0
 10
4.46924
 20
7.23118
 30
0.0
 40
0.00738542
 41
0.00738542
  0
VERTEX
  8
0
 10
4.47651
 20
7.23432
 30
0.0
 40
0.00738542
 41
0.00738542
  0
VERTEX
  8
0
 10
4.48281
 20
7.23747
 30
0.0
 40
0.00738542
 41
0.00738542
  0
VERTEX
  8
0
 10
4.48904
 20
7.2416
 30
0.0
 40
0.00738542
 41
0.00738542
  0
VERTEX
  8
0
 10
4.50151
 20
7.24994
 30
0.0
 40
0.00738542
 41
0.00738542
  0
VERTEX
  8
0
 10
4.51714
 20
7.26557
 30
0.0
 40
0.00738542
 41
0.00738542
  0
VERTEX
  8
0
 10
4.5255
 20
7.27806
 30
0.0
 40
0.00738542
 41
0.00738542
  0
VERTEX
  8
0
 10
4.52968
 20
7.28435
 30
0.0
 40
0.00738542
 41
0.00738542
  0
VERTEX
  8
0
 10
4.53276
 20
7.29161
 30
0.0
 40
0.00738542
 41
0.00738542
  0
VERTEX
  8
0
 10
4.53489
 20
7.29889
 30
0.0
 40
0.00738542
 41
0.00738542
  0
VERTEX
  8
0
 10
4.53694
 20
7.30518
 30
0.0
 40
0.00738542
 41
0.00738542
  0
VERTEX
  8
0
 10
4.53901
 20
7.31244
 30
0.0
 40
0.00738542
 41
0.00738542
  0
VERTEX
  8
0
 10
4.5401
 20
7.31972
 30
0.0
 40
0.00738542
 41
0.00738542
  0
VERTEX
  8
0
 10
4.54113
 20
7.32807
 30
0.0
 40
0.00738542
 41
0.00738542
  0
VERTEX
  8
0
 10
4.54113
 20
7.34267
 30
0.0
 40
0.00738542
 41
0.00738542
  0
VERTEX
  8
0
 10
4.5401
 20
7.34993
 30
0.0
 40
0.00738542
 41
0.00738542
  0
VERTEX
  8
0
 10
4.53901
 20
7.35726
 30
0.0
 40
0.00738542
 41
0.00738542
  0
VERTEX
  8
0
 10
4.53489
 20
7.37181
 30
0.0
 40
0.00738542
 41
0.00738542
  0
VERTEX
  8
0
 10
4.53276
 20
7.37913
 30
0.0
 40
0.00738542
 41
0.00738542
  0
VERTEX
  8
0
 10
4.52968
 20
7.38536
 30
0.0
 40
0.00738542
 41
0.00738542
  0
VERTEX
  8
0
 10
4.52132
 20
7.39785
 30
0.0
 40
0.00738542
 41
0.00738542
  0
VERTEX
  8
0
 10
4.51714
 20
7.40414
 30
0.0
 40
0.00738542
 41
0.00738542
  0
VERTEX
  8
0
 10
4.51193
 20
7.40935
 30
0.0
 40
0.00738542
 41
0.00738542
  0
VERTEX
  8
0
 10
4.50672
 20
7.41558
 30
0.0
 40
0.00738542
 41
0.00738542
  0
VERTEX
  8
0
 10
4.50151
 20
7.41976
 30
0.0
 40
0.00738542
 41
0.00738542
  0
VERTEX
  8
0
 10
4.49528
 20
7.42497
 30
0.0
 40
0.00738542
 41
0.00738542
  0
VERTEX
  8
0
 10
4.48904
 20
7.4291
 30
0.0
 40
0.00738542
 41
0.00738542
  0
VERTEX
  8
0
 10
4.48281
 20
7.43224
 30
0.0
 40
0.00738542
 41
0.00738542
  0
VERTEX
  8
0
 10
4.47651
 20
7.43642
 30
0.0
 40
0.00738542
 41
0.00738542
  0
VERTEX
  8
0
 10
4.46924
 20
7.43847
 30
0.0
 40
0.00738542
 41
0.00738542
  0
VERTEX
  8
0
 10
4.46197
 20
7.44163
 30
0.0
 40
0.00738542
 41
0.00738542
  0
VERTEX
  8
0
 10
4.45464
 20
7.44265
 30
0.0
 40
0.00738542
 41
0.00738542
  0
VERTEX
  8
0
 10
4.44738
 20
7.44472
 30
0.0
 40
0.00738542
 41
0.00738542
  0
VERTEX
  8
0
 10
4.44011
 20
7.44581
 30
0.0
 40
0.00738542
 41
0.00738542
  0
VERTEX
  8
0
 10
4.42551
 20
7.44581
 30
0.0
 40
0.00738542
 41
0.00738542
  0
SEQEND
 8
0
  0
POLYLINE
  8
0
 62
     0
 66
     1
 10
0
 20
0
 30
0.0
 40
0.53175
 41
0.53175
  0
VERTEX
  8
0
 10
4.42551
 20
7.44581
 30
0.0
 40
0.00738542
 41
0.00738542
  0
VERTEX
  8
0
 10
3.95361
 20
7.42389
 30
0.0
 40
0.00738542
 41
0.00738542
  0
SEQEND
 8
0
  0
POLYLINE
  8
0
 62
     0
 66
     1
 10
0
 20
0
 30
0.0
 70
     1
 40
0.53175
 41
0.53175
  0
VERTEX
  8
0
 10
4.00049
 20
7.33535
 30
0.0
 40
0.00738542
 41
0.00738542
  0
VERTEX
  8
0
 10
3.99946
 20
7.33014
 30
0.0
 40
0.00738542
 41
0.00738542
  0
VERTEX
  8
0
 10
3.99946
 20
7.32601
 30
0.0
 40
0.00738542
 41
0.00738542
  0
VERTEX
  8
0
 10
3.99843
 20
7.32183
 30
0.0
 40
0.00738542
 41
0.00738542
  0
VERTEX
  8
0
 10
3.99631
 20
7.31765
 30
0.0
 40
0.00738542
 41
0.00738542
  0
VERTEX
  8
0
 10
3.99425
 20
7.31347
 30
0.0
 40
0.00738542
 41
0.00738542
  0
VERTEX
  8
0
 10
3.9911
 20
7.30935
 30
0.0
 40
0.00738542
 41
0.00738542
  0
VERTEX
  8
0
 10
3.98904
 20
7.30621
 30
0.0
 40
0.00738542
 41
0.00738542
  0
VERTEX
  8
0
 10
3.98486
 20
7.30306
 30
0.0
 40
0.00738542
 41
0.00738542
  0
VERTEX
  8
0
 10
3.98178
 20
7.29997
 30
0.0
 40
0.00738542
 41
0.00738542
  0
VERTEX
  8
0
 10
3.9776
 20
7.29785
 30
0.0
 40
0.00738542
 41
0.00738542
  0
VERTEX
  8
0
 10
3.97342
 20
7.29579
 30
0.0
 40
0.00738542
 41
0.00738542
  0
VERTEX
  8
0
 10
3.96924
 20
7.29476
 30
0.0
 40
0.00738542
 41
0.00738542
  0
VERTEX
  8
0
 10
3.96511
 20
7.29368
 30
0.0
 40
0.00738542
 41
0.00738542
  0
VERTEX
  8
0
 10
3.9599
 20
7.29264
 30
0.0
 40
0.00738542
 41
0.00738542
  0
VERTEX
  8
0
 10
3.95572
 20
7.29264
 30
0.0
 40
0.00738542
 41
0.00738542
  0
VERTEX
  8
0
 10
3.95156
 20
7.29368
 30
0.0
 40
0.00738542
 41
0.00738542
  0
VERTEX
  8
0
 10
3.94738
 20
7.29476
 30
0.0
 40
0.00738542
 41
0.00738542
  0
VERTEX
  8
0
 10
3.94217
 20
7.29579
 30
0.0
 40
0.00738542
 41
0.00738542
  0
VERTEX
  8
0
 10
3.93804
 20
7.29785
 30
0.0
 40
0.00738542
 41
0.00738542
  0
VERTEX
  8
0
 10
3.93489
 20
7.29997
 30
0.0
 40
0.00738542
 41
0.00738542
  0
VERTEX
  8
0
 10
3.93072
 20
7.30306
 30
0.0
 40
0.00738542
 41
0.00738542
  0
VERTEX
  8
0
 10
3.92763
 20
7.30621
 30
0.0
 40
0.00738542
 41
0.00738542
  0
VERTEX
  8
0
 10
3.92447
 20
7.30935
 30
0.0
 40
0.00738542
 41
0.00738542
  0
VERTEX
  8
0
 10
3.92242
 20
7.31347
 30
0.0
 40
0.00738542
 41
0.00738542
  0
VERTEX
  8
0
 10
3.92031
 20
7.31765
 30
0.0
 40
0.00738542
 41
0.00738542
  0
VERTEX
  8
0
 10
3.91824
 20
7.32183
 30
0.0
 40
0.00738542
 41
0.00738542
  0
VERTEX
  8
0
 10
3.91721
 20
7.32601
 30
0.0
 40
0.00738542
 41
0.00738542
  0
VERTEX
  8
0
 10
3.91613
 20
7.33014
 30
0.0
 40
0.00738542
 41
0.00738542
  0
VERTEX
  8
0
 10
3.91613
 20
7.33951
 30
0.0
 40
0.00738542
 41
0.00738542
  0
VERTEX
  8
0
 10
3.91721
 20
7.34369
 30
0.0
 40
0.00738542
 41
0.00738542
  0
VERTEX
  8
0
 10
3.91824
 20
7.3489
 30
0.0
 40
0.00738542
 41
0.00738542
  0
VERTEX
  8
0
 10
3.92031
 20
7.35303
 30
0.0
 40
0.00738542
 41
0.00738542
  0
VERTEX
  8
0
 10
3.92242
 20
7.35721
 30
0.0
 40
0.00738542
 41
0.00738542
  0
VERTEX
  8
0
 10
3.92447
 20
7.36035
 30
0.0
 40
0.00738542
 41
0.00738542
  0
VERTEX
  8
0
 10
3.92763
 20
7.36344
 30
0.0
 40
0.00738542
 41
0.00738542
  0
VERTEX
  8
0
 10
3.93072
 20
7.3666
 30
0.0
 40
0.00738542
 41
0.00738542
  0
VERTEX
  8
0
 10
3.93489
 20
7.36974
 30
0.0
 40
0.00738542
 41
0.00738542
  0
VERTEX
  8
0
 10
3.93804
 20
7.37181
 30
0.0
 40
0.00738542
 41
0.00738542
  0
VERTEX
  8
0
 10
3.94217
 20
7.37386
 30
0.0
 40
0.00738542
 41
0.00738542
  0
VERTEX
  8
0
 10
3.94738
 20
7.37597
 30
0.0
 40
0.00738542
 41
0.00738542
  0
VERTEX
  8
0
 10
3.95156
 20
7.37701
 30
0.0
 40
0.00738542
 41
0.00738542
  0
VERTEX
  8
0
 10
3.96511
 20
7.37701
 30
0.0
 40
0.00738542
 41
0.00738542
  0
VERTEX
  8
0
 10
3.96924
 20
7.37597
 30
0.0
 40
0.00738542
 41
0.00738542
  0
VERTEX
  8
0
 10
3.97342
 20
7.37386
 30
0.0
 40
0.00738542
 41
0.00738542
  0
VERTEX
  8
0
 10
3.98178
 20
7.36974
 30
0.0
 40
0.00738542
 41
0.00738542
  0
VERTEX
  8
0
 10
3.98486
 20
7.3666
 30
0.0
 40
0.00738542
 41
0.00738542
  0
VERTEX
  8
0
 10
3.98904
 20
7.36344
 30
0.0
 40
0.00738542
 41
0.00738542
  0
VERTEX
  8
0
 10
3.9911
 20
7.36035
 30
0.0
 40
0.00738542
 41
0.00738542
  0
VERTEX
  8
0
 10
3.99425
 20
7.35721
 30
0.0
 40
0.00738542
 41
0.00738542
  0
VERTEX
  8
0
 10
3.99631
 20
7.35303
 30
0.0
 40
0.00738542
 41
0.00738542
  0
VERTEX
  8
0
 10
3.99843
 20
7.3489
 30
0.0
 40
0.00738542
 41
0.00738542
  0
VERTEX
  8
0
 10
3.99946
 20
7.34369
 30
0.0
 40
0.00738542
 41
0.00738542
  0
VERTEX
  8
0
 10
3.99946
 20
7.33951
 30
0.0
 40
0.00738542
 41
0.00738542
  0
VERTEX
  8
0
 10
4.00049
 20
7.33535
 30
0.0
 40
0.00738542
 41
0.00738542
  0
SEQEND
 8
0
  0
POLYLINE
  8
0
 62
     0
 66
     1
 10
0
 20
0
 30
0.0
 70
     1
 40
0.53175
 41
0.53175
  0
VERTEX
  8
0
 10
4.47239
 20
7.33535
 30
0.0
 40
0.00738542
 41
0.00738542
  0
VERTEX
  8
0
 10
4.47239
 20
7.33014
 30
0.0
 40
0.00738542
 41
0.00738542
  0
VERTEX
  8
0
 10
4.47136
 20
7.32601
 30
0.0
 40
0.00738542
 41
0.00738542
  0
VERTEX
  8
0
 10
4.47026
 20
7.32183
 30
0.0
 40
0.00738542
 41
0.00738542
  0
VERTEX
  8
0
 10
4.46924
 20
7.31765
 30
0.0
 40
0.00738542
 41
0.00738542
  0
VERTEX
  8
0
 10
4.4661
 20
7.31347
 30
0.0
 40
0.00738542
 41
0.00738542
  0
VERTEX
  8
0
 10
4.46403
 20
7.30935
 30
0.0
 40
0.00738542
 41
0.00738542
  0
VERTEX
  8
0
 10
4.46089
 20
7.30621
 30
0.0
 40
0.00738542
 41
0.00738542
  0
VERTEX
  8
0
 10
4.45779
 20
7.30306
 30
0.0
 40
0.00738542
 41
0.00738542
  0
VERTEX
  8
0
 10
4.45464
 20
7.29997
 30
0.0
 40
0.00738542
 41
0.00738542
  0
VERTEX
  8
0
 10
4.45047
 20
7.29785
 30
0.0
 40
0.00738542
 41
0.00738542
  0
VERTEX
  8
0
 10
4.44635
 20
7.29579
 30
0.0
 40
0.00738542
 41
0.00738542
  0
VERTEX
  8
0
 10
4.44217
 20
7.29476
 30
0.0
 40
0.00738542
 41
0.00738542
  0
VERTEX
  8
0
 10
4.43696
 20
7.29368
 30
0.0
 40
0.00738542
 41
0.00738542
  0
VERTEX
  8
0
 10
4.43278
 20
7.29264
 30
0.0
 40
0.00738542
 41
0.00738542
  0
VERTEX
  8
0
 10
4.4286
 20
7.29264
 30
0.0
 40
0.00738542
 41
0.00738542
  0
VERTEX
  8
0
 10
4.42339
 20
7.29368
 30
0.0
 40
0.00738542
 41
0.00738542
  0
VERTEX
  8
0
 10
4.41928
 20
7.29476
 30
0.0
 40
0.00738542
 41
0.00738542
  0
VERTEX
  8
0
 10
4.4151
 20
7.29579
 30
0.0
 40
0.00738542
 41
0.00738542
  0
VERTEX
  8
0
 10
4.41092
 20
7.29785
 30
0.0
 40
0.00738542
 41
0.00738542
  0
VERTEX
  8
0
 10
4.40674
 20
7.29997
 30
0.0
 40
0.00738542
 41
0.00738542
  0
VERTEX
  8
0
 10
4.4005
 20
7.30621
 30
0.0
 40
0.00738542
 41
0.00738542
  0
VERTEX
  8
0
 10
4.3974
 20
7.30935
 30
0.0
 40
0.00738542
 41
0.00738542
  0
VERTEX
  8
0
 10
4.39426
 20
7.31347
 30
0.0
 40
0.00738542
 41
0.00738542
  0
VERTEX
  8
0
 10
4.39219
 20
7.31765
 30
0.0
 40
0.00738542
 41
0.00738542
  0
VERTEX
  8
0
 10
4.39111
 20
7.32183
 30
0.0
 40
0.00738542
 41
0.00738542
  0
VERTEX
  8
0
 10
4.38906
 20
7.32601
 30
0.0
 40
0.00738542
 41
0.00738542
  0
VERTEX
  8
0
 10
4.38906
 20
7.33014
 30
0.0
 40
0.00738542
 41
0.00738542
  0
VERTEX
  8
0
 10
4.38803
 20
7.33535
 30
0.0
 40
0.00738542
 41
0.00738542
  0
VERTEX
  8
0
 10
4.38906
 20
7.33951
 30
0.0
 40
0.00738542
 41
0.00738542
  0
VERTEX
  8
0
 10
4.38906
 20
7.34369
 30
0.0
 40
0.00738542
 41
0.00738542
  0
VERTEX
  8
0
 10
4.39111
 20
7.3489
 30
0.0
 40
0.00738542
 41
0.00738542
  0
VERTEX
  8
0
 10
4.39219
 20
7.35303
 30
0.0
 40
0.00738542
 41
0.00738542
  0
VERTEX
  8
0
 10
4.39426
 20
7.35721
 30
0.0
 40
0.00738542
 41
0.00738542
  0
VERTEX
  8
0
 10
4.40364
 20
7.3666
 30
0.0
 40
0.00738542
 41
0.00738542
  0
VERTEX
  8
0
 10
4.40674
 20
7.36974
 30
0.0
 40
0.00738542
 41
0.00738542
  0
VERTEX
  8
0
 10
4.4151
 20
7.37386
 30
0.0
 40
0.00738542
 41
0.00738542
  0
VERTEX
  8
0
 10
4.41928
 20
7.37597
 30
0.0
 40
0.00738542
 41
0.00738542
  0
VERTEX
  8
0
 10
4.42339
 20
7.37701
 30
0.0
 40
0.00738542
 41
0.00738542
  0
VERTEX
  8
0
 10
4.43696
 20
7.37701
 30
0.0
 40
0.00738542
 41
0.00738542
  0
VERTEX
  8
0
 10
4.44217
 20
7.37597
 30
0.0
 40
0.00738542
 41
0.00738542
  0
VERTEX
  8
0
 10
4.44635
 20
7.37386
 30
0.0
 40
0.00738542
 41
0.00738542
  0
VERTEX
  8
0
 10
4.45047
 20
7.37181
 30
0.0
 40
0.00738542
 41
0.00738542
  0
VERTEX
  8
0
 10
4.45464
 20
7.36974
 30
0.0
 40
0.00738542
 41
0.00738542
  0
VERTEX
  8
0
 10
4.45779
 20
7.3666
 30
0.0
 40
0.00738542
 41
0.00738542
  0
VERTEX
  8
0
 10
4.46089
 20
7.36344
 30
0.0
 40
0.00738542
 41
0.00738542
  0
VERTEX
  8
0
 10
4.46403
 20
7.36035
 30
0.0
 40
0.00738542
 41
0.00738542
  0
VERTEX
  8
0
 10
4.4661
 20
7.35721
 30
0.0
 40
0.00738542
 41
0.00738542
  0
VERTEX
  8
0
 10
4.46924
 20
7.35303
 30
0.0
 40
0.00738542
 41
0.00738542
  0
VERTEX
  8
0
 10
4.47026
 20
7.3489
 30
0.0
 40
0.00738542
 41
0.00738542
  0
VERTEX
  8
0
 10
4.47136
 20
7.34369
 30
0.0
 40
0.00738542
 41
0.00738542
  0
VERTEX
  8
0
 10
4.47239
 20
7.33951
 30
0.0
 40
0.00738542
 41
0.00738542
  0
VERTEX
  8
0
 10
4.47239
 20
7.33535
 30
0.0
 40
0.00738542
 41
0.00738542
  0
SEQEND
 8
0
  0
POLYLINE
  8
0
 62
     0
 66
     1
 10
0
 20
0
 30
0.0
 70
     1
 40
0.53175
 41
0.53175
  0
VERTEX
  8
0
 10
3.92182
 20
7.94428
 30
0.0
 40
0.00738542
 41
0.00738542
  0
VERTEX
  8
0
 10
3.92182
 20
7.93907
 30
0.0
 40
0.00738542
 41
0.00738542
  0
VERTEX
  8
0
 10
3.92079
 20
7.93489
 30
0.0
 40
0.00738542
 41
0.00738542
  0
VERTEX
  8
0
 10
3.91872
 20
7.92969
 30
0.0
 40
0.00738542
 41
0.00738542
  0
VERTEX
  8
0
 10
3.91558
 20
7.9266
 30
0.0
 40
0.00738542
 41
0.00738542
  0
VERTEX
  8
0
 10
3.91249
 20
7.92242
 30
0.0
 40
0.00738542
 41
0.00738542
  0
VERTEX
  8
0
 10
3.90831
 20
7.92031
 30
0.0
 40
0.00738542
 41
0.00738542
  0
VERTEX
  8
0
 10
3.90414
 20
7.91824
 30
0.0
 40
0.00738542
 41
0.00738542
  0
VERTEX
  8
0
 10
3.89996
 20
7.91721
 30
0.0
 40
0.00738542
 41
0.00738542
  0
VERTEX
  8
0
 10
3.89475
 20
7.91618
 30
0.0
 40
0.00738542
 41
0.00738542
  0
VERTEX
  8
0
 10
3.89063
 20
7.91721
 30
0.0
 40
0.00738542
 41
0.00738542
  0
VERTEX
  8
0
 10
3.88542
 20
7.91824
 30
0.0
 40
0.00738542
 41
0.00738542
  0
VERTEX
  8
0
 10
3.88124
 20
7.92031
 30
0.0
 40
0.00738542
 41
0.00738542
  0
VERTEX
  8
0
 10
3.87706
 20
7.92242
 30
0.0
 40
0.00738542
 41
0.00738542
  0
VERTEX
  8
0
 10
3.87397
 20
7.9266
 30
0.0
 40
0.00738542
 41
0.00738542
  0
VERTEX
  8
0
 10
3.87082
 20
7.92969
 30
0.0
 40
0.00738542
 41
0.00738542
  0
VERTEX
  8
0
 10
3.86979
 20
7.93489
 30
0.0
 40
0.00738542
 41
0.00738542
  0
VERTEX
  8
0
 10
3.86768
 20
7.93907
 30
0.0
 40
0.00738542
 41
0.00738542
  0
VERTEX
  8
0
 10
3.86768
 20
7.94846
 30
0.0
 40
0.00738542
 41
0.00738542
  0
VERTEX
  8
0
 10
3.86979
 20
7.95367
 30
0.0
 40
0.00738542
 41
0.00738542
  0
VERTEX
  8
0
 10
3.87082
 20
7.95779
 30
0.0
 40
0.00738542
 41
0.00738542
  0
VERTEX
  8
0
 10
3.87397
 20
7.96094
 30
0.0
 40
0.00738542
 41
0.00738542
  0
VERTEX
  8
0
 10
3.87706
 20
7.96511
 30
0.0
 40
0.00738542
 41
0.00738542
  0
VERTEX
  8
0
 10
3.88124
 20
7.96718
 30
0.0
 40
0.00738542
 41
0.00738542
  0
VERTEX
  8
0
 10
3.88542
 20
7.96929
 30
0.0
 40
0.00738542
 41
0.00738542
  0
VERTEX
  8
0
 10
3.89063
 20
7.97032
 30
0.0
 40
0.00738542
 41
0.00738542
  0
VERTEX
  8
0
 10
3.89475
 20
7.97136
 30
0.0
 40
0.00738542
 41
0.00738542
  0
VERTEX
  8
0
 10
3.89996
 20
7.97032
 30
0.0
 40
0.00738542
 41
0.00738542
  0
VERTEX
  8
0
 10
3.90414
 20
7.96929
 30
0.0
 40
0.00738542
 41
0.00738542
  0
VERTEX
  8
0
 10
3.90831
 20
7.96718
 30
0.0
 40
0.00738542
 41
0.00738542
  0
VERTEX
  8
0
 10
3.91249
 20
7.96511
 30
0.0
 40
0.00738542
 41
0.00738542
  0
VERTEX
  8
0
 10
3.91558
 20
7.96094
 30
0.0
 40
0.00738542
 41
0.00738542
  0
VERTEX
  8
0
 10
3.91872
 20
7.95779
 30
0.0
 40
0.00738542
 41
0.00738542
  0
VERTEX
  8
0
 10
3.92079
 20
7.95367
 30
0.0
 40
0.00738542
 41
0.00738542
  0
VERTEX
  8
0
 10
3.92182
 20
7.94846
 30
0.0
 40
0.00738542
 41
0.00738542
  0
VERTEX
  8
0
 10
3.92182
 20
7.94428
 30
0.0
 40
0.00738542
 41
0.00738542
  0
SEQEND
 8
0
  0
POLYLINE
  8
0
 62
     0
 66
     1
 10
0
 20
0
 30
0.0
 70
     1
 40
0.53175
 41
0.53175
  0
VERTEX
  8
0
 10
4.04058
 20
7.94428
 30
0.0
 40
0.00738542
 41
0.00738542
  0
VERTEX
  8
0
 10
4.03956
 20
7.93907
 30
0.0
 40
0.00738542
 41
0.00738542
  0
VERTEX
  8
0
 10
4.03851
 20
7.93489
 30
0.0
 40
0.00738542
 41
0.00738542
  0
VERTEX
  8
0
 10
4.0364
 20
7.92969
 30
0.0
 40
0.00738542
 41
0.00738542
  0
VERTEX
  8
0
 10
4.03435
 20
7.9266
 30
0.0
 40
0.00738542
 41
0.00738542
  0
VERTEX
  8
0
 10
4.03017
 20
7.92242
 30
0.0
 40
0.00738542
 41
0.00738542
  0
VERTEX
  8
0
 10
4.02707
 20
7.92031
 30
0.0
 40
0.00738542
 41
0.00738542
  0
VERTEX
  8
0
 10
4.02289
 20
7.91824
 30
0.0
 40
0.00738542
 41
0.00738542
  0
VERTEX
  8
0
 10
4.01768
 20
7.91721
 30
0.0
 40
0.00738542
 41
0.00738542
  0
VERTEX
  8
0
 10
4.01351
 20
7.91618
 30
0.0
 40
0.00738542
 41
0.00738542
  0
VERTEX
  8
0
 10
4.00831
 20
7.91721
 30
0.0
 40
0.00738542
 41
0.00738542
  0
VERTEX
  8
0
 10
4.00412
 20
7.91824
 30
0.0
 40
0.00738542
 41
0.00738542
  0
VERTEX
  8
0
 10
3.99892
 20
7.92031
 30
0.0
 40
0.00738542
 41
0.00738542
  0
VERTEX
  8
0
 10
3.99582
 20
7.92242
 30
0.0
 40
0.00738542
 41
0.00738542
  0
VERTEX
  8
0
 10
3.99164
 20
7.9266
 30
0.0
 40
0.00738542
 41
0.00738542
  0
VERTEX
  8
0
 10
3.98958
 20
7.92969
 30
0.0
 40
0.00738542
 41
0.00738542
  0
VERTEX
  8
0
 10
3.98747
 20
7.93489
 30
0.0
 40
0.00738542
 41
0.00738542
  0
VERTEX
  8
0
 10
3.98643
 20
7.93907
 30
0.0
 40
0.00738542
 41
0.00738542
  0
VERTEX
  8
0
 10
3.9854
 20
7.94428
 30
0.0
 40
0.00738542
 41
0.00738542
  0
VERTEX
  8
0
 10
3.98643
 20
7.94846
 30
0.0
 40
0.00738542
 41
0.00738542
  0
VERTEX
  8
0
 10
3.98747
 20
7.95367
 30
0.0
 40
0.00738542
 41
0.00738542
  0
VERTEX
  8
0
 10
3.98958
 20
7.95779
 30
0.0
 40
0.00738542
 41
0.00738542
  0
VERTEX
  8
0
 10
3.99164
 20
7.96094
 30
0.0
 40
0.00738542
 41
0.00738542
  0
VERTEX
  8
0
 10
3.99582
 20
7.96511
 30
0.0
 40
0.00738542
 41
0.00738542
  0
VERTEX
  8
0
 10
3.99892
 20
7.96718
 30
0.0
 40
0.00738542
 41
0.00738542
  0
VERTEX
  8
0
 10
4.00412
 20
7.96929
 30
0.0
 40
0.00738542
 41
0.00738542
  0
VERTEX
  8
0
 10
4.00831
 20
7.97032
 30
0.0
 40
0.00738542
 41
0.00738542
  0
VERTEX
  8
0
 10
4.01351
 20
7.97136
 30
0.0
 40
0.00738542
 41
0.00738542
  0
VERTEX
  8
0
 10
4.01768
 20
7.97032
 30
0.0
 40
0.00738542
 41
0.00738542
  0
VERTEX
  8
0
 10
4.02289
 20
7.96929
 30
0.0
 40
0.00738542
 41
0.00738542
  0
VERTEX
  8
0
 10
4.02707
 20
7.96718
 30
0.0
 40
0.00738542
 41
0.00738542
  0
VERTEX
  8
0
 10
4.03017
 20
7.96511
 30
0.0
 40
0.00738542
 41
0.00738542
  0
VERTEX
  8
0
 10
4.03435
 20
7.96094
 30
0.0
 40
0.00738542
 41
0.00738542
  0
VERTEX
  8
0
 10
4.0364
 20
7.95779
 30
0.0
 40
0.00738542
 41
0.00738542
  0
VERTEX
  8
0
 10
4.03851
 20
7.95367
 30
0.0
 40
0.00738542
 41
0.00738542
  0
VERTEX
  8
0
 10
4.03956
 20
7.94846
 30
0.0
 40
0.00738542
 41
0.00738542
  0
VERTEX
  8
0
 10
4.04058
 20
7.94428
 30
0.0
 40
0.00738542
 41
0.00738542
  0
SEQEND
 8
0
  0
POLYLINE
  8
0
 62
     0
 66
     1
 10
0
 20
0
 30
0.0
 70
     1
 40
0.53175
 41
0.53175
  0
VERTEX
  8
0
 10
4.54269
 20
7.94428
 30
0.0
 40
0.00738542
 41
0.00738542
  0
VERTEX
  8
0
 10
4.54161
 20
7.93907
 30
0.0
 40
0.00738542
 41
0.00738542
  0
VERTEX
  8
0
 10
4.54058
 20
7.93489
 30
0.0
 40
0.00738542
 41
0.00738542
  0
VERTEX
  8
0
 10
4.53851
 20
7.92969
 30
0.0
 40
0.00738542
 41
0.00738542
  0
VERTEX
  8
0
 10
4.5364
 20
7.9266
 30
0.0
 40
0.00738542
 41
0.00738542
  0
VERTEX
  8
0
 10
4.53228
 20
7.92242
 30
0.0
 40
0.00738542
 41
0.00738542
  0
VERTEX
  8
0
 10
4.52914
 20
7.92031
 30
0.0
 40
0.00738542
 41
0.00738542
  0
VERTEX
  8
0
 10
4.52393
 20
7.91824
 30
0.0
 40
0.00738542
 41
0.00738542
  0
VERTEX
  8
0
 10
4.51975
 20
7.91721
 30
0.0
 40
0.00738542
 41
0.00738542
  0
VERTEX
  8
0
 10
4.51454
 20
7.91618
 30
0.0
 40
0.00738542
 41
0.00738542
  0
VERTEX
  8
0
 10
4.51042
 20
7.91721
 30
0.0
 40
0.00738542
 41
0.00738542
  0
VERTEX
  8
0
 10
4.50521
 20
7.91824
 30
0.0
 40
0.00738542
 41
0.00738542
  0
VERTEX
  8
0
 10
4.50103
 20
7.92031
 30
0.0
 40
0.00738542
 41
0.00738542
  0
VERTEX
  8
0
 10
4.49789
 20
7.92242
 30
0.0
 40
0.00738542
 41
0.00738542
  0
VERTEX
  8
0
 10
4.49376
 20
7.9266
 30
0.0
 40
0.00738542
 41
0.00738542
  0
VERTEX
  8
0
 10
4.49164
 20
7.92969
 30
0.0
 40
0.00738542
 41
0.00738542
  0
VERTEX
  8
0
 10
4.48958
 20
7.93489
 30
0.0
 40
0.00738542
 41
0.00738542
  0
VERTEX
  8
0
 10
4.48856
 20
7.93907
 30
0.0
 40
0.00738542
 41
0.00738542
  0
VERTEX
  8
0
 10
4.48747
 20
7.94428
 30
0.0
 40
0.00738542
 41
0.00738542
  0
VERTEX
  8
0
 10
4.48856
 20
7.94846
 30
0.0
 40
0.00738542
 41
0.00738542
  0
VERTEX
  8
0
 10
4.48958
 20
7.95367
 30
0.0
 40
0.00738542
 41
0.00738542
  0
VERTEX
  8
0
 10
4.49164
 20
7.95779
 30
0.0
 40
0.00738542
 41
0.00738542
  0
VERTEX
  8
0
 10
4.49376
 20
7.96094
 30
0.0
 40
0.00738542
 41
0.00738542
  0
VERTEX
  8
0
 10
4.49789
 20
7.96511
 30
0.0
 40
0.00738542
 41
0.00738542
  0
VERTEX
  8
0
 10
4.50103
 20
7.96718
 30
0.0
 40
0.00738542
 41
0.00738542
  0
VERTEX
  8
0
 10
4.50521
 20
7.96929
 30
0.0
 40
0.00738542
 41
0.00738542
  0
VERTEX
  8
0
 10
4.51042
 20
7.97032
 30
0.0
 40
0.00738542
 41
0.00738542
  0
VERTEX
  8
0
 10
4.51454
 20
7.97136
 30
0.0
 40
0.00738542
 41
0.00738542
  0
VERTEX
  8
0
 10
4.51975
 20
7.97032
 30
0.0
 40
0.00738542
 41
0.00738542
  0
VERTEX
  8
0
 10
4.52393
 20
7.96929
 30
0.0
 40
0.00738542
 41
0.00738542
  0
VERTEX
  8
0
 10
4.52914
 20
7.96718
 30
0.0
 40
0.00738542
 41
0.00738542
  0
VERTEX
  8
0
 10
4.53228
 20
7.96511
 30
0.0
 40
0.00738542
 41
0.00738542
  0
VERTEX
  8
0
 10
4.5364
 20
7.96094
 30
0.0
 40
0.00738542
 41
0.00738542
  0
VERTEX
  8
0
 10
4.53851
 20
7.95779
 30
0.0
 40
0.00738542
 41
0.00738542
  0
VERTEX
  8
0
 10
4.54058
 20
7.95367
 30
0.0
 40
0.00738542
 41
0.00738542
  0
VERTEX
  8
0
 10
4.54161
 20
7.94846
 30
0.0
 40
0.00738542
 41
0.00738542
  0
VERTEX
  8
0
 10
4.54269
 20
7.94428
 30
0.0
 40
0.00738542
 41
0.00738542
  0
SEQEND
 8
0
  0
POLYLINE
  8
0
 62
     0
 66
     1
 10
0
 20
0
 30
0.0
 70
     1
 40
0.53175
 41
0.53175
  0
VERTEX
  8
0
 10
4.42393
 20
7.94428
 30
0.0
 40
0.00738542
 41
0.00738542
  0
VERTEX
  8
0
 10
4.42393
 20
7.93907
 30
0.0
 40
0.00738542
 41
0.00738542
  0
VERTEX
  8
0
 10
4.4229
 20
7.93489
 30
0.0
 40
0.00738542
 41
0.00738542
  0
VERTEX
  8
0
 10
4.42079
 20
7.92969
 30
0.0
 40
0.00738542
 41
0.00738542
  0
VERTEX
  8
0
 10
4.41769
 20
7.9266
 30
0.0
 40
0.00738542
 41
0.00738542
  0
VERTEX
  8
0
 10
4.41456
 20
7.92242
 30
0.0
 40
0.00738542
 41
0.00738542
  0
VERTEX
  8
0
 10
4.41037
 20
7.92031
 30
0.0
 40
0.00738542
 41
0.00738542
  0
VERTEX
  8
0
 10
4.40619
 20
7.91824
 30
0.0
 40
0.00738542
 41
0.00738542
  0
VERTEX
  8
0
 10
4.40207
 20
7.91721
 30
0.0
 40
0.00738542
 41
0.00738542
  0
VERTEX
  8
0
 10
4.39686
 20
7.91618
 30
0.0
 40
0.00738542
 41
0.00738542
  0
VERTEX
  8
0
 10
4.39268
 20
7.91721
 30
0.0
 40
0.00738542
 41
0.00738542
  0
VERTEX
  8
0
 10
4.38747
 20
7.91824
 30
0.0
 40
0.00738542
 41
0.00738542
  0
VERTEX
  8
0
 10
4.38331
 20
7.92031
 30
0.0
 40
0.00738542
 41
0.00738542
  0
VERTEX
  8
0
 10
4.37918
 20
7.92242
 30
0.0
 40
0.00738542
 41
0.00738542
  0
VERTEX
  8
0
 10
4.37603
 20
7.9266
 30
0.0
 40
0.00738542
 41
0.00738542
  0
VERTEX
  8
0
 10
4.37289
 20
7.92969
 30
0.0
 40
0.00738542
 41
0.00738542
  0
VERTEX
  8
0
 10
4.37082
 20
7.93489
 30
0.0
 40
0.00738542
 41
0.00738542
  0
VERTEX
  8
0
 10
4.36979
 20
7.93907
 30
0.0
 40
0.00738542
 41
0.00738542
  0
VERTEX
  8
0
 10
4.36979
 20
7.94846
 30
0.0
 40
0.00738542
 41
0.00738542
  0
VERTEX
  8
0
 10
4.37082
 20
7.95367
 30
0.0
 40
0.00738542
 41
0.00738542
  0
VERTEX
  8
0
 10
4.37289
 20
7.95779
 30
0.0
 40
0.00738542
 41
0.00738542
  0
VERTEX
  8
0
 10
4.37603
 20
7.96094
 30
0.0
 40
0.00738542
 41
0.00738542
  0
VERTEX
  8
0
 10
4.37918
 20
7.96511
 30
0.0
 40
0.00738542
 41
0.00738542
  0
VERTEX
  8
0
 10
4.38331
 20
7.96718
 30
0.0
 40
0.00738542
 41
0.00738542
  0
VERTEX
  8
0
 10
4.38747
 20
7.96929
 30
0.0
 40
0.00738542
 41
0.00738542
  0
VERTEX
  8
0
 10
4.39268
 20
7.97032
 30
0.0
 40
0.00738542
 41
0.00738542
  0
VERTEX
  8
0
 10
4.39686
 20
7.97136
 30
0.0
 40
0.00738542
 41
0.00738542
  0
VERTEX
  8
0
 10
4.40207
 20
7.97032
 30
0.0
 40
0.00738542
 41
0.00738542
  0
VERTEX
  8
0
 10
4.40619
 20
7.96929
 30
0.0
 40
0.00738542
 41
0.00738542
  0
VERTEX
  8
0
 10
4.41037
 20
7.96718
 30
0.0
 40
0.00738542
 41
0.00738542
  0
VERTEX
  8
0
 10
4.41456
 20
7.96511
 30
0.0
 40
0.00738542
 41
0.00738542
  0
VERTEX
  8
0
 10
4.41769
 20
7.96094
 30
0.0
 40
0.00738542
 41
0.00738542
  0
VERTEX
  8
0
 10
4.42079
 20
7.95779
 30
0.0
 40
0.00738542
 41
0.00738542
  0
VERTEX
  8
0
 10
4.4229
 20
7.95367
 30
0.0
 40
0.00738542
 41
0.00738542
  0
VERTEX
  8
0
 10
4.42393
 20
7.94846
 30
0.0
 40
0.00738542
 41
0.00738542
  0
VERTEX
  8
0
 10
4.42393
 20
7.94428
 30
0.0
 40
0.00738542
 41
0.00738542
  0
SEQEND
 8
0
  0
POLYLINE
  8
0
 62
     0
 66
     1
 10
0
 20
0
 30
0.0
 70
     1
 40
0.53175
 41
0.53175
  0
VERTEX
  8
0
 10
4.27914
 20
7.94428
 30
0.0
 40
0.00738542
 41
0.00738542
  0
VERTEX
  8
0
 10
4.2781
 20
7.93593
 30
0.0
 40
0.00738542
 41
0.00738542
  0
VERTEX
  8
0
 10
4.27707
 20
7.92865
 30
0.0
 40
0.00738542
 41
0.00738542
  0
VERTEX
  8
0
 10
4.27496
 20
7.92139
 30
0.0
 40
0.00738542
 41
0.00738542
  0
VERTEX
  8
0
 10
4.27289
 20
7.91406
 30
0.0
 40
0.00738542
 41
0.00738542
  0
VERTEX
  8
0
 10
4.26872
 20
7.90679
 30
0.0
 40
0.00738542
 41
0.00738542
  0
VERTEX
  8
0
 10
4.26454
 20
7.90056
 30
0.0
 40
0.00738542
 41
0.00738542
  0
VERTEX
  8
0
 10
4.25933
 20
7.89426
 30
0.0
 40
0.00738542
 41
0.00738542
  0
VERTEX
  8
0
 10
4.25412
 20
7.88906
 30
0.0
 40
0.00738542
 41
0.00738542
  0
VERTEX
  8
0
 10
4.24789
 20
7.88385
 30
0.0
 40
0.00738542
 41
0.00738542
  0
VERTEX
  8
0
 10
4.24164
 20
7.87972
 30
0.0
 40
0.00738542
 41
0.00738542
  0
VERTEX
  8
0
 10
4.2354
 20
7.87657
 30
0.0
 40
0.00738542
 41
0.00738542
  0
VERTEX
  8
0
 10
4.22808
 20
7.87343
 30
0.0
 40
0.00738542
 41
0.00738542
  0
VERTEX
  8
0
 10
4.22081
 20
7.87136
 30
0.0
 40
0.00738542
 41
0.00738542
  0
VERTEX
  8
0
 10
4.21246
 20
7.87033
 30
0.0
 40
0.00738542
 41
0.00738542
  0
VERTEX
  8
0
 10
4.19683
 20
7.87033
 30
0.0
 40
0.00738542
 41
0.00738542
  0
VERTEX
  8
0
 10
4.18956
 20
7.87136
 30
0.0
 40
0.00738542
 41
0.00738542
  0
VERTEX
  8
0
 10
4.18224
 20
7.87343
 30
0.0
 40
0.00738542
 41
0.00738542
  0
VERTEX
  8
0
 10
4.16769
 20
7.87972
 30
0.0
 40
0.00738542
 41
0.00738542
  0
VERTEX
  8
0
 10
4.1614
 20
7.88385
 30
0.0
 40
0.00738542
 41
0.00738542
  0
VERTEX
  8
0
 10
4.15517
 20
7.88906
 30
0.0
 40
0.00738542
 41
0.00738542
  0
VERTEX
  8
0
 10
4.14996
 20
7.89426
 30
0.0
 40
0.00738542
 41
0.00738542
  0
VERTEX
  8
0
 10
4.14475
 20
7.90056
 30
0.0
 40
0.00738542
 41
0.00738542
  0
VERTEX
  8
0
 10
4.14057
 20
7.90679
 30
0.0
 40
0.00738542
 41
0.00738542
  0
VERTEX
  8
0
 10
4.13747
 20
7.91406
 30
0.0
 40
0.00738542
 41
0.00738542
  0
VERTEX
  8
0
 10
4.13433
 20
7.92139
 30
0.0
 40
0.00738542
 41
0.00738542
  0
VERTEX
  8
0
 10
4.13226
 20
7.92865
 30
0.0
 40
0.00738542
 41
0.00738542
  0
VERTEX
  8
0
 10
4.13124
 20
7.93593
 30
0.0
 40
0.00738542
 41
0.00738542
  0
VERTEX
  8
0
 10
4.13124
 20
7.95156
 30
0.0
 40
0.00738542
 41
0.00738542
  0
VERTEX
  8
0
 10
4.13226
 20
7.95888
 30
0.0
 40
0.00738542
 41
0.00738542
  0
VERTEX
  8
0
 10
4.13433
 20
7.96614
 30
0.0
 40
0.00738542
 41
0.00738542
  0
VERTEX
  8
0
 10
4.13747
 20
7.97342
 30
0.0
 40
0.00738542
 41
0.00738542
  0
VERTEX
  8
0
 10
4.14057
 20
7.98074
 30
0.0
 40
0.00738542
 41
0.00738542
  0
VERTEX
  8
0
 10
4.14475
 20
7.98697
 30
0.0
 40
0.00738542
 41
0.00738542
  0
VERTEX
  8
0
 10
4.14996
 20
7.99322
 30
0.0
 40
0.00738542
 41
0.00738542
  0
VERTEX
  8
0
 10
4.15517
 20
7.99843
 30
0.0
 40
0.00738542
 41
0.00738542
  0
VERTEX
  8
0
 10
4.1614
 20
8.00364
 30
0.0
 40
0.00738542
 41
0.00738542
  0
VERTEX
  8
0
 10
4.16769
 20
8.00781
 30
0.0
 40
0.00738542
 41
0.00738542
  0
VERTEX
  8
0
 10
4.17497
 20
8.01096
 30
0.0
 40
0.00738542
 41
0.00738542
  0
VERTEX
  8
0
 10
4.18224
 20
8.01406
 30
0.0
 40
0.00738542
 41
0.00738542
  0
VERTEX
  8
0
 10
4.18956
 20
8.01617
 30
0.0
 40
0.00738542
 41
0.00738542
  0
VERTEX
  8
0
 10
4.19683
 20
8.01719
 30
0.0
 40
0.00738542
 41
0.00738542
  0
VERTEX
  8
0
 10
4.21246
 20
8.01719
 30
0.0
 40
0.00738542
 41
0.00738542
  0
VERTEX
  8
0
 10
4.22081
 20
8.01617
 30
0.0
 40
0.00738542
 41
0.00738542
  0
VERTEX
  8
0
 10
4.22808
 20
8.01406
 30
0.0
 40
0.00738542
 41
0.00738542
  0
VERTEX
  8
0
 10
4.2354
 20
8.01096
 30
0.0
 40
0.00738542
 41
0.00738542
  0
VERTEX
  8
0
 10
4.24164
 20
8.00781
 30
0.0
 40
0.00738542
 41
0.00738542
  0
VERTEX
  8
0
 10
4.24789
 20
8.00364
 30
0.0
 40
0.00738542
 41
0.00738542
  0
VERTEX
  8
0
 10
4.25412
 20
7.99843
 30
0.0
 40
0.00738542
 41
0.00738542
  0
VERTEX
  8
0
 10
4.25933
 20
7.99322
 30
0.0
 40
0.00738542
 41
0.00738542
  0
VERTEX
  8
0
 10
4.26454
 20
7.98697
 30
0.0
 40
0.00738542
 41
0.00738542
  0
VERTEX
  8
0
 10
4.26872
 20
7.98074
 30
0.0
 40
0.00738542
 41
0.00738542
  0
VERTEX
  8
0
 10
4.27289
 20
7.97342
 30
0.0
 40
0.00738542
 41
0.00738542
  0
VERTEX
  8
0
 10
4.27496
 20
7.96614
 30
0.0
 40
0.00738542
 41
0.00738542
  0
VERTEX
  8
0
 10
4.27707
 20
7.95888
 30
0.0
 40
0.00738542
 41
0.00738542
  0
VERTEX
  8
0
 10
4.2781
 20
7.95156
 30
0.0
 40
0.00738542
 41
0.00738542
  0
VERTEX
  8
0
 10
4.27914
 20
7.94428
 30
0.0
 40
0.00738542
 41
0.00738542
  0
SEQEND
 8
0
  0
POLYLINE
  8
0
 62
     0
 66
     1
 10
0
 20
0
 30
0.0
 40
0.53175
 41
0.53175
  0
VERTEX
  8
0
 10
4.38851
 20
7.68386
 30
0.0
 40
0.00738542
 41
0.00738542
  0
VERTEX
  8
0
 10
4.38851
 20
7.82553
 30
0.0
 40
0.00738542
 41
0.00738542
  0
SEQEND
 8
0
  0
POLYLINE
  8
0
 62
     0
 66
     1
 10
0
 20
0
 30
0.0
 40
0.53175
 41
0.53175
  0
VERTEX
  8
0
 10
4.72185
 20
7.82553
 30
0.0
 40
0.00738542
 41
0.00738542
  0
VERTEX
  8
0
 10
4.38851
 20
7.82553
 30
0.0
 40
0.00738542
 41
0.00738542
  0
SEQEND
 8
0
  0
POLYLINE
  8
0
 62
     0
 66
     1
 10
0
 20
0
 30
0.0
 40
0.53175
 41
0.53175
  0
VERTEX
  8
0
 10
4.72185
 20
8.06201
 30
0.0
 40
0.00738542
 41
0.00738542
  0
VERTEX
  8
0
 10
4.72185
 20
7.82553
 30
0.0
 40
0.00738542
 41
0.00738542
  0
SEQEND
 8
0
  0
POLYLINE
  8
0
 62
     0
 66
     1
 10
0
 20
0
 30
0.0
 40
0.53175
 41
0.53175
  0
VERTEX
  8
0
 10
4.38851
 20
8.06201
 30
0.0
 40
0.00738542
 41
0.00738542
  0
VERTEX
  8
0
 10
4.72185
 20
8.06201
 30
0.0
 40
0.00738542
 41
0.00738542
  0
SEQEND
 8
0
  0
POLYLINE
  8
0
 62
     0
 66
     1
 10
0
 20
0
 30
0.0
 40
0.53175
 41
0.53175
  0
VERTEX
  8
0
 10
4.38851
 20
8.20367
 30
0.0
 40
0.00738542
 41
0.00738542
  0
VERTEX
  8
0
 10
4.38851
 20
8.06201
 30
0.0
 40
0.00738542
 41
0.00738542
  0
SEQEND
 8
0
  0
POLYLINE
  8
0
 62
     0
 66
     1
 10
0
 20
0
 30
0.0
 40
0.53175
 41
0.53175
  0
VERTEX
  8
0
 10
4.02186
 20
8.20367
 30
0.0
 40
0.00738542
 41
0.00738542
  0
VERTEX
  8
0
 10
4.38851
 20
8.20367
 30
0.0
 40
0.00738542
 41
0.00738542
  0
SEQEND
 8
0
  0
POLYLINE
  8
0
 62
     0
 66
     1
 10
0
 20
0
 30
0.0
 40
0.53175
 41
0.53175
  0
VERTEX
  8
0
 10
4.02186
 20
8.06201
 30
0.0
 40
0.00738542
 41
0.00738542
  0
VERTEX
  8
0
 10
4.02186
 20
8.20367
 30
0.0
 40
0.00738542
 41
0.00738542
  0
SEQEND
 8
0
  0
POLYLINE
  8
0
 62
     0
 66
     1
 10
0
 20
0
 30
0.0
 40
0.53175
 41
0.53175
  0
VERTEX
  8
0
 10
3.68853
 20
8.06201
 30
0.0
 40
0.00738542
 41
0.00738542
  0
VERTEX
  8
0
 10
4.02186
 20
8.06201
 30
0.0
 40
0.00738542
 41
0.00738542
  0
SEQEND
 8
0
  0
POLYLINE
  8
0
 62
     0
 66
     1
 10
0
 20
0
 30
0.0
 40
0.53175
 41
0.53175
  0
VERTEX
  8
0
 10
3.68853
 20
7.82553
 30
0.0
 40
0.00738542
 41
0.00738542
  0
VERTEX
  8
0
 10
3.68853
 20
8.06201
 30
0.0
 40
0.00738542
 41
0.00738542
  0
SEQEND
 8
0
  0
POLYLINE
  8
0
 62
     0
 66
     1
 10
0
 20
0
 30
0.0
 40
0.53175
 41
0.53175
  0
VERTEX
  8
0
 10
4.02186
 20
7.82553
 30
0.0
 40
0.00738542
 41
0.00738542
  0
VERTEX
  8
0
 10
3.68853
 20
7.82553
 30
0.0
 40
0.00738542
 41
0.00738542
  0
SEQEND
 8
0
  0
POLYLINE
  8
0
 62
     0
 66
     1
 10
0
 20
0
 30
0.0
 40
0.53175
 41
0.53175
  0
VERTEX
  8
0
 10
4.02186
 20
7.82553
 30
0.0
 40
0.00738542
 41
0.00738542
  0
VERTEX
  8
0
 10
4.02186
 20
7.68386
 30
0.0
 40
0.00738542
 41
0.00738542
  0
SEQEND
 8
0
  0
POLYLINE
  8
0
 62
     0
 66
     1
 10
0
 20
0
 30
0.0
 40
0.53175
 41
0.53175
  0
VERTEX
  8
0
 10
4.02186
 20
7.68386
 30
0.0
 40
0.00738542
 41
0.00738542
  0
VERTEX
  8
0
 10
4.38851
 20
7.68386
 30
0.0
 40
0.00738542
 41
0.00738542
  0
SEQEND
 8
0
  0
TEXT
  8
0
 62
     0
 10
4.20518
 20
7.27057
 30
0
 40
0.125
  1
G
 50
0
  0
POLYLINE
  8
0
 62
     1
 66
     1
 10
0
 20
0
 30
0.0
 70
     1
 40
0.75
 41
0.75
  0
VERTEX
  8
0
 10
4.27962
 20
7.28358
 30
0.0
 40
0.0104167
 41
0.0104167
  0
VERTEX
  8
0
 10
4.27962
 20
7.30811
 30
0.0
 40
0.0104167
 41
0.0104167
  0
VERTEX
  8
0
 10
4.25944
 20
7.30811
 30
0.0
 40
0.0104167
 41
0.0104167
  0
VERTEX
  8
0
 10
4.25944
 20
7.31808
 30
0.0
 40
0.0104167
 41
0.0104167
  0
VERTEX
  8
0
 10
4.29178
 20
7.31808
 30
0.0
 40
0.0104167
 41
0.0104167
  0
VERTEX
  8
0
 10
4.29178
 20
7.27903
 30
0.0
 40
0.0104167
 41
0.0104167
  0
VERTEX
  8
0
 10
4.27593
 20
7.27143
 30
0.0
 40
0.0104167
 41
0.0104167
  0
VERTEX
  8
0
 10
4.25771
 20
7.26882
 30
0.0
 40
0.0104167
 41
0.0104167
  0
VERTEX
  8
0
 10
4.22407
 20
7.28119
 30
0.0
 40
0.0104167
 41
0.0104167
  0
VERTEX
  8
0
 10
4.21213
 20
7.31614
 30
0.0
 40
0.0104167
 41
0.0104167
  0
VERTEX
  8
0
 10
4.22407
 20
7.35086
 30
0.0
 40
0.0104167
 41
0.0104167
  0
VERTEX
  8
0
 10
4.25771
 20
7.36344
 30
0.0
 40
0.0104167
 41
0.0104167
  0
VERTEX
  8
0
 10
4.27463
 20
7.36106
 30
0.0
 40
0.0104167
 41
0.0104167
  0
VERTEX
  8
0
 10
4.28939
 20
7.35476
 30
0.0
 40
0.0104167
 41
0.0104167
  0
VERTEX
  8
0
 10
4.28939
 20
7.34153
 30
0.0
 40
0.0104167
 41
0.0104167
  0
VERTEX
  8
0
 10
4.27485
 20
7.35021
 30
0.0
 40
0.0104167
 41
0.0104167
  0
VERTEX
  8
0
 10
4.25879
 20
7.35325
 30
0.0
 40
0.0104167
 41
0.0104167
  0
VERTEX
  8
0
 10
4.23361
 20
7.34392
 30
0.0
 40
0.0104167
 41
0.0104167
  0
VERTEX
  8
0
 10
4.22515
 20
7.31614
 30
0.0
 40
0.0104167
 41
0.0104167
  0
VERTEX
  8
0
 10
4.23361
 20
7.28836
 30
0.0
 40
0.0104167
 41
0.0104167
  0
VERTEX
  8
0
 10
4.25879
 20
7.27903
 30
0.0
 40
0.0104167
 41
0.0104167
  0
VERTEX
  8
0
 10
4.27029
 20
7.28011
 30
0.0
 40
0.0104167
 41
0.0104167
  0
VERTEX
  8
0
 10
4.27962
 20
7.28358
 30
0.0
 40
0.0104167
 41
0.0104167
  0
SEQEND
 8
0
  0
TEXT
  8
0
 62
     0
 10
4.15104
 20
7.73053
 30
0
 40
0.125
  1
G
 50
0
  0
POLYLINE
  8
0
 62
     1
 66
     1
 10
0
 20
0
 30
0.0
 70
     1
 40
0.75
 41
0.75
  0
VERTEX
  8
0
 10
4.22547
 20
7.74354
 30
0.0
 40
0.0104167
 41
0.0104167
  0
VERTEX
  8
0
 10
4.22547
 20
7.76807
 30
0.0
 40
0.0104167
 41
0.0104167
  0
VERTEX
  8
0
 10
4.20529
 20
7.76807
 30
0.0
 40
0.0104167
 41
0.0104167
  0
VERTEX
  8
0
 10
4.20529
 20
7.77806
 30
0.0
 40
0.0104167
 41
0.0104167
  0
VERTEX
  8
0
 10
4.23763
 20
7.77806
 30
0.0
 40
0.0104167
 41
0.0104167
  0
VERTEX
  8
0
 10
4.23763
 20
7.73899
 30
0.0
 40
0.0104167
 41
0.0104167
  0
VERTEX
  8
0
 10
4.22179
 20
7.73139
 30
0.0
 40
0.0104167
 41
0.0104167
  0
VERTEX
  8
0
 10
4.20356
 20
7.72879
 30
0.0
 40
0.0104167
 41
0.0104167
  0
VERTEX
  8
0
 10
4.16992
 20
7.74115
 30
0.0
 40
0.0104167
 41
0.0104167
  0
VERTEX
  8
0
 10
4.15799
 20
7.7761
 30
0.0
 40
0.0104167
 41
0.0104167
  0
VERTEX
  8
0
 10
4.16992
 20
7.81082
 30
0.0
 40
0.0104167
 41
0.0104167
  0
VERTEX
  8
0
 10
4.20356
 20
7.8234
 30
0.0
 40
0.0104167
 41
0.0104167
  0
VERTEX
  8
0
 10
4.22049
 20
7.82101
 30
0.0
 40
0.0104167
 41
0.0104167
  0
VERTEX
  8
0
 10
4.23525
 20
7.81472
 30
0.0
 40
0.0104167
 41
0.0104167
  0
VERTEX
  8
0
 10
4.23525
 20
7.80149
 30
0.0
 40
0.0104167
 41
0.0104167
  0
VERTEX
  8
0
 10
4.22071
 20
7.81017
 30
0.0
 40
0.0104167
 41
0.0104167
  0
VERTEX
  8
0
 10
4.20464
 20
7.81321
 30
0.0
 40
0.0104167
 41
0.0104167
  0
VERTEX
  8
0
 10
4.17947
 20
7.80388
 30
0.0
 40
0.0104167
 41
0.0104167
  0
VERTEX
  8
0
 10
4.171
 20
7.7761
 30
0.0
 40
0.0104167
 41
0.0104167
  0
VERTEX
  8
0
 10
4.17947
 20
7.74832
 30
0.0
 40
0.0104167
 41
0.0104167
  0
VERTEX
  8
0
 10
4.20464
 20
7.73899
 30
0.0
 40
0.0104167
 41
0.0104167
  0
VERTEX
  8
0
 10
4.21614
 20
7.74007
 30
0.0
 40
0.0104167
 41
0.0104167
  0
VERTEX
  8
0
 10
4.22547
 20
7.74354
 30
0.0
 40
0.0104167
 41
0.0104167
  0
SEQEND
 8
0
  0
ENDSEC
  0
EOF
